<svg width="40" height="40" viewBox="0 0 40 40" fill="none" xmlns="http://www.w3.org/2000/svg">
<path d="M8.125 10H7.5C7.16881 10.001 6.85144 10.133 6.61719 10.3672C6.383 10.6014 6.251 10.9188 6.25 11.25V13.125C6.251 13.4562 6.383 13.7736 6.61719 14.0078C6.85144 14.242 7.16881 14.374 7.5 14.375H10V10H8.125Z" fill="#ED1C24"/>
<path d="M10 8.75C10 8.4185 10.1317 8.10056 10.3661 7.86613C10.6006 7.63169 10.9185 7.5 11.25 7.5H18.75C19.0815 7.5 19.3994 7.63169 19.6339 7.86613C19.8683 8.10056 20 8.4185 20 8.75V10H21.875V5.625C21.875 4.63044 21.4799 3.67661 20.7766 2.97335C20.0734 2.27009 19.1196 1.875 18.125 1.875H15.625C14.9619 1.875 14.3261 2.13839 13.8573 2.60723C13.3884 3.07607 13.125 3.71196 13.125 4.375C13.125 4.04348 12.9933 3.72554 12.7589 3.49112C12.5244 3.25669 12.2065 3.125 11.875 3.125H10.625C9.96194 3.125 9.32606 3.38839 8.85725 3.85723C8.38838 4.32607 8.125 4.96196 8.125 5.625V10H10V8.75Z" fill="#58595B"/>
<path d="M18.125 21.2504V18.9004C17.2391 19.6123 16.1366 20.0005 15 20.0005C13.8634 20.0005 12.7609 19.6123 11.875 18.9004V21.2504L15 23.1254L18.125 21.2504Z" fill="#FFA791"/>
<path d="M15 20.0004C13.8633 20.0013 12.7605 19.6132 11.875 18.9004V19.5254C12.7609 20.2373 13.8634 20.6255 15 20.6255C16.1366 20.6255 17.2391 20.2373 18.125 19.5254V18.9004C17.2395 19.6132 16.1368 20.0013 15 20.0004Z" fill="#FF9478"/>
<path d="M15.0006 26.25L16.4581 25.5212L16.3494 24.2044L15.0006 23.125L13.6519 24.2044L13.5469 25.4725L15.0006 26.25Z" fill="#D80027"/>
<path d="M15 26.2502L13.5462 25.4727L12.5 38.1252H15H17.5L16.4575 25.5214L15 26.2502Z" fill="#ED1C24"/>
<path d="M11.875 25.625L9.375 21.875L6.60625 22.5688C5.25428 22.9066 4.05413 23.6868 3.19679 24.7854C2.33944 25.8839 1.87417 27.2378 1.875 28.6313V38.125H12.5L13.5463 25.4725L13.6512 24.2044L11.875 25.625Z" fill="#57A4FF"/>
<path d="M23.3946 22.5688L20.6259 21.875L18.1259 25.625L16.3496 24.2044L16.4584 25.5212L17.5009 38.125H28.1259V28.6313C28.1267 27.2378 27.6614 25.8839 26.8041 24.7854C25.9467 23.6868 24.7466 22.9066 23.3946 22.5688Z" fill="#57A4FF"/>
<path d="M15 23.125L11.875 21.25L9.375 21.875L11.875 25.625L15 23.125Z" fill="#006DF0"/>
<path d="M18.125 25.625L20.625 21.875L18.125 21.25L15 23.125L18.125 25.625Z" fill="#006DF0"/>
<path d="M20 8.75V15C20 16.3261 19.4732 17.5979 18.5356 18.5356C17.5979 19.4732 16.3261 20 15 20C13.6739 20 12.4021 19.4732 11.4644 18.5356C10.5268 17.5979 10 16.3261 10 15V8.75C10.001 8.41881 10.133 8.10144 10.3672 7.86719C10.6014 7.633 10.9188 7.501 11.25 7.5H18.75C19.0812 7.501 19.3986 7.633 19.6328 7.86719C19.867 8.10144 19.999 8.41881 20 8.75Z" fill="#FFBCAB"/>
<path d="M31.8742 1.875C30.4672 1.87433 29.1012 2.34872 27.9975 3.2213C26.8937 4.09389 26.1169 5.31356 25.7929 6.68275C25.4689 8.05194 25.6166 9.49038 26.2122 10.7651C26.8077 12.0399 27.8162 13.0762 29.0742 13.7063L28.1242 17.5L32.9555 14.2813C34.4962 14.0114 35.8796 13.1736 36.8327 11.9333C37.7858 10.6931 38.2392 9.14056 38.1034 7.58238C37.9676 6.02411 37.2524 4.57343 36.0992 3.51678C34.9459 2.46012 33.4384 1.8743 31.8742 1.875Z" fill="#FFCD00"/>
<path d="M31.875 1.875C31.561 1.87752 31.2476 1.90364 30.9375 1.95313C32.4034 2.17424 33.7429 2.90959 34.7164 4.02768C35.6898 5.14576 36.2339 6.57369 36.2511 8.05606C36.2684 9.53844 35.7579 10.9787 34.8107 12.1191C33.8636 13.2596 32.5416 14.026 31.0812 14.2813L28.5 16L28.125 17.5L32.9562 14.2813C34.4969 14.0114 35.8804 13.1736 36.8335 11.9333C37.7866 10.6931 38.24 9.14056 38.1042 7.58238C37.9684 6.02411 37.2532 4.57343 36.0999 3.51678C34.9467 2.46012 33.4391 1.8743 31.875 1.875Z" fill="#EBBF00"/>
<path d="M13.125 12.5C13.2907 12.5 13.4497 12.4341 13.5669 12.3169C13.6841 12.1997 13.75 12.0408 13.75 11.875V11.25C13.75 11.0843 13.6841 10.9253 13.5669 10.8081C13.4497 10.6909 13.2907 10.625 13.125 10.625C12.9593 10.625 12.8003 10.6909 12.6831 10.8081C12.5659 10.9253 12.5 11.0843 12.5 11.25V11.875C12.5 12.0408 12.5659 12.1997 12.6831 12.3169C12.8003 12.4341 12.9593 12.5 13.125 12.5Z" fill="#58595B"/>
<path d="M16.875 12.5C17.0407 12.5 17.1997 12.4341 17.3169 12.3169C17.4341 12.1997 17.5 12.0408 17.5 11.875V11.25C17.5 11.0843 17.4341 10.9253 17.3169 10.8081C17.1997 10.6909 17.0407 10.625 16.875 10.625C16.7093 10.625 16.5503 10.6909 16.4331 10.8081C16.3159 10.9253 16.25 11.0843 16.25 11.25V11.875C16.25 12.0408 16.3159 12.1997 16.4331 12.3169C16.5503 12.4341 16.7093 12.5 16.875 12.5Z" fill="#58595B"/>
<path d="M20.625 17.5H16.25C16.0843 17.5 15.9253 17.4341 15.8081 17.3169C15.6909 17.1997 15.625 17.0408 15.625 16.875C15.625 16.7092 15.6909 16.5503 15.8081 16.4331C15.9253 16.3159 16.0843 16.25 16.25 16.25H20.625C20.7908 16.25 20.9497 16.1841 21.0669 16.0669C21.1841 15.9497 21.25 15.7908 21.25 15.625V13.75C21.25 13.5843 21.3159 13.4253 21.4331 13.3081C21.5503 13.1909 21.7092 13.125 21.875 13.125C22.0408 13.125 22.1997 13.1909 22.3169 13.3081C22.4341 13.4253 22.5 13.5843 22.5 13.75V15.625C22.5 16.1223 22.3024 16.5992 21.9508 16.9508C21.5992 17.3024 21.1223 17.5 20.625 17.5Z" fill="#939598"/>
<path d="M32.3231 3.78854C31.9627 3.72287 31.5923 3.73721 31.238 3.83056C30.8838 3.92391 30.5543 4.09398 30.2731 4.32873C29.9918 4.56348 29.7656 4.85718 29.6104 5.18904C29.4552 5.52089 29.3748 5.88281 29.375 6.24916C29.375 6.41491 29.4409 6.57391 29.5581 6.6911C29.6753 6.80829 29.8343 6.87416 30 6.87416C30.1658 6.87416 30.3248 6.80829 30.4419 6.6911C30.5591 6.57391 30.625 6.41491 30.625 6.24916C30.6248 6.06527 30.6653 5.88361 30.7434 5.71714C30.8215 5.55066 30.9354 5.40347 31.0769 5.28606C31.2184 5.16865 31.3841 5.0839 31.5621 5.03788C31.7402 4.99185 31.9262 4.98568 32.1069 5.01979C32.3542 5.06777 32.5817 5.18862 32.7599 5.36681C32.9381 5.545 33.0589 5.7724 33.1069 6.01979C33.1658 6.3311 33.1042 6.65316 32.9347 6.92079C32.7652 7.18848 32.5004 7.38179 32.1937 7.46166C31.9285 7.52598 31.6921 7.67635 31.5213 7.88929C31.3506 8.10216 31.2552 8.36566 31.25 8.63854V9.99916C31.25 10.1649 31.3159 10.3239 31.4331 10.4411C31.5503 10.5583 31.7093 10.6242 31.875 10.6242C32.0408 10.6242 32.1998 10.5583 32.3169 10.4411C32.4341 10.3239 32.5 10.1649 32.5 9.99916L32.5069 8.66854C33.1183 8.5111 33.6471 8.12754 33.9865 7.59529C34.3259 7.06304 34.4508 6.42173 34.3356 5.80104C34.2424 5.30171 34.0002 4.84228 33.6411 4.4831C33.2819 4.12392 32.8224 3.8818 32.3231 3.78854Z" fill="#ED1C24"/>
<path d="M31.875 12.5C32.2202 12.5 32.5 12.2202 32.5 11.875C32.5 11.5298 32.2202 11.25 31.875 11.25C31.5298 11.25 31.25 11.5298 31.25 11.875C31.25 12.2202 31.5298 12.5 31.875 12.5Z" fill="#ED1C24"/>
<path d="M22.5 30C22.6657 30 22.8247 30.0659 22.9419 30.1831C23.0591 30.3003 23.125 30.4593 23.125 30.625V38.125H21.875V30.625C21.875 30.4593 21.9409 30.3003 22.0581 30.1831C22.1753 30.0659 22.3343 30 22.5 30Z" fill="#2488FF"/>
<path d="M7.5 30C7.66575 30 7.82475 30.0659 7.94194 30.1831C8.05912 30.3003 8.125 30.4593 8.125 30.625V38.125H6.875V30.625C6.875 30.4593 6.94088 30.3003 7.05806 30.1831C7.17525 30.0659 7.33425 30 7.5 30Z" fill="#2488FF"/>
<path d="M20 14.375H22.5C22.8312 14.374 23.1486 14.242 23.3828 14.0078C23.617 13.7736 23.749 13.4562 23.75 13.125V11.25C23.749 10.9188 23.617 10.6014 23.3828 10.3672C23.1486 10.133 22.8312 10.001 22.5 10H20V14.375Z" fill="#ED1C24"/>
<path d="M15.625 15.625H14.375C14.0435 15.625 13.7256 15.7567 13.4911 15.9911C13.2567 16.2256 13.125 16.5435 13.125 16.875C13.125 17.2065 13.2567 17.5244 13.4911 17.7589C13.7256 17.9933 14.0435 18.125 14.375 18.125H15.625C15.9565 18.125 16.2744 17.9933 16.5089 17.7589C16.7433 17.5244 16.875 17.2065 16.875 16.875C16.875 16.5435 16.7433 16.2256 16.5089 15.9911C16.2744 15.7567 15.9565 15.625 15.625 15.625Z" fill="#58595B"/>
</svg>
