<svg width="24" height="24" viewBox="0 0 24 24" fill="none" xmlns="http://www.w3.org/2000/svg">
<path d="M1.6951 15.504C1.5511 15.36 1.4791 15.144 1.5031 14.928C1.5991 13.776 1.8631 12.648 2.2711 11.568C2.7991 10.176 4.0231 9.16799 5.4631 8.85599C5.9671 9.11999 6.5671 9.26399 7.1671 9.26399C7.7911 9.26399 8.3671 9.11999 8.8711 8.85599C9.9271 9.07199 10.8631 9.67199 11.4871 10.536L12.0151 10.008C11.4151 9.23999 10.5991 8.63999 9.6631 8.30399C10.4551 7.60799 10.9351 6.59999 10.9351 5.47199C10.9831 3.38399 9.2791 1.67999 7.1911 1.67999C5.1031 1.67999 3.3991 3.38399 3.3991 5.47199C3.3991 6.59999 3.9031 7.60799 4.6711 8.30399C3.2791 8.80799 2.1271 9.88799 1.5991 11.304C1.1671 12.456 0.879096 13.656 0.759096 14.88C0.711096 15.288 0.855096 15.72 1.1431 16.008C1.4311 16.32 1.8151 16.488 2.2231 16.488H9.4711V15.744H2.2231C2.0311 15.744 1.8391 15.672 1.6951 15.504ZM4.1431 5.47199C4.1431 3.79199 5.5111 2.42399 7.1911 2.42399C8.8711 2.42399 10.2391 3.79199 10.2391 5.47199C10.2391 7.15199 8.8711 8.51999 7.1911 8.51999C5.5111 8.51999 4.1431 7.15199 4.1431 5.47199Z" fill="#212529"/>
<path d="M16.8865 12.864C15.3505 12.864 14.1025 14.112 14.1025 15.648C14.1025 17.184 15.3505 18.432 16.8865 18.432C18.4225 18.432 19.6705 17.184 19.6705 15.648C19.6945 14.112 18.4465 12.864 16.8865 12.864ZM16.8865 17.712C15.7585 17.712 14.8225 16.8 14.8225 15.648C14.8225 14.496 15.7345 13.584 16.8865 13.584C18.0145 13.584 18.9265 14.496 18.9265 15.648C18.9265 16.8 18.0145 17.712 16.8865 17.712Z" fill="#212529"/>
<path d="M23.2228 14.112L21.9508 13.968C21.8788 13.728 21.7828 13.488 21.6628 13.248L22.4548 12.264C22.5748 12.12 22.5508 11.904 22.4308 11.76L20.7748 10.104C20.6308 9.96001 20.4388 9.96001 20.2708 10.08L19.2868 10.872C19.0708 10.752 18.8308 10.656 18.5668 10.584L18.4228 9.31201C18.3988 9.12001 18.2548 8.97601 18.0628 8.97601H15.7108C15.5188 8.97601 15.3508 9.12001 15.3508 9.31201L15.2068 10.584C14.9668 10.656 14.7268 10.752 14.4868 10.872L13.5028 10.08C13.3588 9.96001 13.1428 9.98401 12.9988 10.104L11.3428 11.76C11.1988 11.904 11.1988 12.096 11.3188 12.264L12.1108 13.248C11.9908 13.464 11.8948 13.704 11.8228 13.968L10.5508 14.112C10.3588 14.136 10.2148 14.28 10.2148 14.472V16.824C10.2148 17.016 10.3588 17.184 10.5508 17.184L11.8228 17.328C11.8948 17.568 11.9908 17.808 12.1108 18.048L11.3188 19.032C11.1988 19.176 11.2228 19.392 11.3428 19.536L12.9988 21.192C13.1428 21.336 13.3348 21.336 13.5028 21.216L14.4868 20.424C14.7028 20.544 14.9428 20.64 15.2068 20.712L15.3508 21.984C15.3748 22.176 15.5188 22.32 15.7108 22.32H18.0628C18.2548 22.32 18.4228 22.176 18.4228 21.984L18.5668 20.712C18.8068 20.64 19.0468 20.544 19.2868 20.424L20.2708 21.216C20.4148 21.336 20.6308 21.312 20.7748 21.192L22.4308 19.536C22.5748 19.392 22.5748 19.2 22.4548 19.032L21.6628 18.048C21.7828 17.832 21.8788 17.592 21.9508 17.328L23.2228 17.184C23.4148 17.16 23.5588 17.016 23.5588 16.824V14.472C23.5588 14.28 23.4148 14.112 23.2228 14.112ZM22.8148 16.488L21.6388 16.608C21.4948 16.632 21.3508 16.728 21.3268 16.872C21.2308 17.232 21.0868 17.568 20.9188 17.88C20.8468 18.024 20.8468 18.168 20.9428 18.288L21.6868 19.224L20.4868 20.424L19.5508 19.68C19.4308 19.584 19.2628 19.584 19.1428 19.656C18.8308 19.824 18.4948 19.968 18.1348 20.064C17.9908 20.112 17.8708 20.232 17.8708 20.376L17.7508 21.552H16.0708L15.9268 20.4C15.9028 20.256 15.8068 20.112 15.6628 20.088C15.3028 19.992 14.9668 19.848 14.6548 19.68C14.5108 19.608 14.3668 19.608 14.2468 19.704L13.3348 20.448L12.1348 19.248L12.8788 18.336C12.9748 18.216 12.9988 18.048 12.9028 17.928C12.7348 17.616 12.5908 17.28 12.4948 16.92C12.4468 16.776 12.3268 16.656 12.1828 16.656L11.0068 16.536V14.856L12.1828 14.736C12.3268 14.712 12.4708 14.616 12.4948 14.472C12.5908 14.112 12.7348 13.776 12.9028 13.464C12.9748 13.32 12.9748 13.176 12.8788 13.056L12.1348 12.144L13.3348 10.944L14.2708 11.688C14.3908 11.784 14.5588 11.808 14.6788 11.712C14.9908 11.544 15.3268 11.4 15.6868 11.304C15.8308 11.256 15.9508 11.136 15.9508 10.992L16.0708 9.81601H17.7508L17.8708 10.992C17.8948 11.136 17.9908 11.28 18.1348 11.304C18.4948 11.4 18.8308 11.544 19.1428 11.712C19.2628 11.784 19.4308 11.784 19.5508 11.688L20.4868 10.944L21.6868 12.144L20.9428 13.056C20.8468 13.176 20.8228 13.344 20.9188 13.464C21.0868 13.776 21.2308 14.112 21.3268 14.472C21.3748 14.616 21.4948 14.736 21.6388 14.736L22.8148 14.856V16.488Z" fill="#212529"/>
</svg>
