<svg width="24" height="24" viewBox="0 0 24 24" fill="none" xmlns="http://www.w3.org/2000/svg">
<g clip-path="url(#clip0_9325_71730)">
<path d="M23.8095 13.1095H20.4694C20.3643 13.1095 20.279 13.1948 20.279 13.3V14.0566H19.6994C19.6633 13.5116 19.4732 12.9863 19.1572 12.5433H19.8378C20.6858 12.5433 21.3756 11.858 21.3756 11.0156V4.67411C21.3756 3.83173 20.6858 3.14639 19.8378 3.14639H17.3382V2.16668C17.3383 1.60216 16.8761 1.14282 16.3081 1.14282H12.9407C12.3726 1.14282 11.9105 1.60216 11.9105 2.16668V3.14639H9.41092C8.56292 3.14639 7.87307 3.83173 7.87307 4.67411V10.6796C7.66002 10.7435 7.45078 10.8208 7.24664 10.9112L4.56478 9.11635C4.47783 9.0582 4.36016 9.08101 4.3013 9.16758L0.0329233 15.4497C0.00439949 15.4917 -0.00617194 15.5433 0.00349472 15.5932C0.0131614 15.643 0.0423519 15.6869 0.0845423 15.7151L2.85383 17.5685C2.88635 17.5903 2.92316 17.6007 2.95959 17.6007C3.02059 17.6007 3.08049 17.5715 3.1173 17.5173L3.37983 17.1309C3.56745 17.9448 4.05549 18.6583 4.76549 19.1335L10.0392 22.663C10.2348 22.7939 10.4569 22.8565 10.6768 22.8565C11.0448 22.8565 11.4066 22.681 11.6274 22.356C11.7866 22.1217 11.8514 21.8432 11.8128 21.5653L12.6887 22.1515C12.8843 22.2824 13.1064 22.345 13.3264 22.345C13.6944 22.345 14.0562 22.1695 14.277 21.8444C14.4479 21.5928 14.5102 21.2901 14.4522 20.992C14.4342 20.8995 14.4042 20.8116 14.3654 20.7283C14.5615 20.7277 14.7559 20.6816 14.9319 20.5939H18.3343C19.0179 20.5939 19.6962 20.4022 20.279 20.05V20.8769C20.279 20.9821 20.3643 21.0674 20.4695 21.0674H23.8095C23.9147 21.0674 24 20.9821 24 20.8769V13.3C24 13.1948 23.9147 13.1095 23.8095 13.1095ZM15.9479 3.14639H13.3008V2.52554H15.9479V3.14639ZM9.41088 3.52735H19.8378C20.4757 3.52735 20.9947 4.04177 20.9947 4.67411V7.65435H18.684V6.34216C18.684 6.23697 18.5987 6.15168 18.4935 6.15168H16.8113C16.7061 6.15168 16.6208 6.23697 16.6208 6.34216V7.65435H12.7961V6.34216C12.7961 6.23697 12.7108 6.15168 12.6056 6.15168H10.9234C10.8182 6.15168 10.7329 6.23697 10.7329 6.34216V7.65435H8.25397V4.67411C8.25397 4.04177 8.77297 3.52735 9.41088 3.52735ZM8.25397 8.0353H10.7329V9.34749C10.7329 9.45268 10.8182 9.53797 10.9234 9.53797H12.6056C12.7108 9.53797 12.7961 9.45268 12.7961 9.34749V8.0353H16.6208V9.34749C16.6208 9.45268 16.7061 9.53797 16.8113 9.53797H18.4936C18.5988 9.53797 18.6841 9.45268 18.6841 9.34749V8.0353H20.9947V11.0155C20.9947 11.6479 20.4758 12.1623 19.8378 12.1623H18.8325C18.815 12.1449 18.7977 12.1272 18.7797 12.1102L15.8376 9.34382C15.356 8.89096 14.6112 8.90101 14.142 9.36658C13.9119 9.59492 13.7852 9.89863 13.7852 10.2217C13.7852 10.5448 13.9119 10.8485 14.142 11.0769L15.2356 12.1623H13.6411C13.6654 12.0435 13.6724 11.9191 13.6593 11.7918C13.5995 11.2096 13.1303 10.7505 12.5435 10.7002L9.87678 10.4714C9.33188 10.4247 8.78426 10.4626 8.25397 10.5803V8.0353ZM13.9619 21.6304C13.7264 21.9771 13.2503 22.0689 12.9006 21.8349L11.3186 20.7762C11.3185 20.7761 11.3184 20.7759 11.3182 20.7758L9.34016 19.452C9.25273 19.3935 9.1344 19.417 9.07592 19.5044C9.0174 19.5918 9.04088 19.7101 9.1283 19.7686L11.1068 21.0928C11.2758 21.2061 11.3902 21.3777 11.4288 21.5763C11.4673 21.774 11.426 21.9749 11.3124 22.1419C11.0769 22.4887 10.6008 22.5804 10.2512 22.3464L4.97745 18.8169C4.24326 18.3255 3.77673 17.5468 3.69002 16.6745L7.35545 11.2797C8.13273 10.9264 8.99235 10.778 9.84435 10.8511L12.5111 11.0798C12.9158 11.1145 13.2393 11.4303 13.2804 11.8307C13.3269 12.2839 13.0064 12.6863 12.5508 12.7469L10.6991 12.9935C10.6206 13.004 10.5567 13.062 10.5387 13.1391C10.5208 13.2163 10.5525 13.2965 10.6183 13.3406L16.0579 16.9811C16.2536 17.1121 16.3861 17.3108 16.4308 17.5406C16.4753 17.7693 16.4274 18.0017 16.2962 18.1949C16.0238 18.5959 15.4735 18.7019 15.0693 18.4314L11.6077 16.1147C11.5204 16.0562 11.402 16.0797 11.3435 16.1671C11.285 16.2545 11.3084 16.3728 11.3959 16.4313L14.8574 18.748C15.0532 18.879 15.1856 19.0777 15.2303 19.3075C15.2748 19.5363 15.227 19.7686 15.0957 19.9618C14.8234 20.3627 14.2731 20.4687 13.8689 20.1983L10.4073 17.8816C10.3199 17.8231 10.2016 17.8465 10.1431 17.934C10.0845 18.0214 10.108 18.1397 10.1954 18.1982L13.7559 20.5811C13.9252 20.6944 14.0397 20.8662 14.0784 21.0649C14.1167 21.2625 14.0754 21.4633 13.9619 21.6304ZM18.3342 20.213H15.3838C15.3928 20.2006 15.4021 20.1886 15.4108 20.1758C15.5995 19.898 15.6682 19.5638 15.6042 19.2347C15.5856 19.1389 15.5561 19.0471 15.5171 18.9601C15.5319 18.9606 15.5467 18.9617 15.5615 18.9617C15.9679 18.9617 16.3674 18.7679 16.6113 18.409C16.8 18.1312 16.8687 17.7969 16.8047 17.4678C16.7404 17.1376 16.5505 16.8523 16.2698 16.6644L11.2493 13.3044L12.601 13.1244C12.9881 13.073 13.3076 12.8508 13.4926 12.5433H15.3971C15.2587 12.887 15.1246 13.4282 15.2742 14.0545C15.4313 14.7125 15.827 15.1404 16.0489 15.3368C16.0852 15.3689 16.1303 15.3847 16.1751 15.3847C16.2277 15.3847 16.2802 15.363 16.3178 15.3204C16.3875 15.2417 16.3803 15.1213 16.3014 15.0516C16.1132 14.8849 15.7775 14.5223 15.6447 13.9661C15.4741 13.2514 15.7414 12.665 15.8642 12.446C15.906 12.3713 15.893 12.2779 15.8322 12.2176L14.4104 10.8065C14.2529 10.6503 14.1663 10.4426 14.1663 10.2218C14.1663 10.001 14.253 9.7933 14.4104 9.63701C14.7331 9.31678 15.2454 9.30992 15.5767 9.62139L18.5188 12.3877C19.031 12.8693 19.3248 13.547 19.3248 14.2471C19.3248 14.3523 19.4101 14.4376 19.5153 14.4376H20.2791V19.5953C19.7145 19.9938 19.0275 20.213 18.3342 20.213Z" fill="#212529"/>
</g>
<defs>
<clipPath id="clip0_9325_71730">
<rect width="24" height="24" fill="white"/>
</clipPath>
</defs>
</svg>
