<svg width="24" height="24" viewBox="0 0 24 24" fill="none" xmlns="http://www.w3.org/2000/svg">
<g clip-path="url(#clip0_16215_495)">
<path d="M8.92333 9.33378H6.97514C6.79229 9.33378 6.64433 9.48174 6.64433 9.66459V11.613C6.64433 11.7959 6.79229 11.9438 6.97514 11.9438H8.92333C9.10618 11.9438 9.25414 11.7959 9.25414 11.613V9.66459C9.25414 9.48174 9.10618 9.33378 8.92333 9.33378ZM8.59252 11.2822H7.3057V9.99514H8.59252V11.2822ZM9.97026 14.7503C9.97026 14.5674 10.1182 14.4194 10.3011 14.4194H14.0123C14.1952 14.4194 14.3431 14.5674 14.3431 14.7503C14.3431 14.9331 14.1952 15.0811 14.0123 15.0811H10.3011C10.1182 15.0811 9.97026 14.9331 9.97026 14.7503ZM8.92333 12.8515H6.97514C6.79229 12.8515 6.64433 12.9994 6.64433 13.1823V15.1307C6.64433 15.3136 6.79229 15.4615 6.97514 15.4615H8.92333C9.10618 15.4615 9.25414 15.3136 9.25414 15.1307V13.1823C9.25414 12.9994 9.10618 12.8515 8.92333 12.8515ZM8.59252 14.7999H7.3057V13.5128H8.59252V14.7999ZM15.935 17.0802C15.935 17.263 15.7871 17.411 15.6042 17.411H10.2802C10.0973 17.411 9.94938 17.263 9.94938 17.0802C9.94938 16.8973 10.0973 16.7494 10.2802 16.7494H15.6042C15.7871 16.7494 15.935 16.8973 15.935 17.0802ZM14.3431 18.2677C14.3431 18.4506 14.1952 18.5985 14.0123 18.5985H10.3011C10.1182 18.5985 9.97026 18.4506 9.97026 18.2677C9.97026 18.0849 10.1182 17.9369 10.3011 17.9369H14.0123C14.1952 17.9369 14.3431 18.0849 14.3431 18.2677ZM24.0377 13.8826C24.0148 13.7978 23.9593 13.7255 23.8837 13.6817L22.3755 12.8115C22.2171 12.7203 22.0149 12.7743 21.9238 12.9327L21.8074 13.1342L21.6146 13.0234L18.8426 10.0196L18.814 9.98827C18.6243 9.78148 18.3157 9.44685 17.9247 9.38878V4.90794C17.9247 4.26746 17.4045 3.74667 16.7647 3.74667H14.5173C14.4004 3.33793 14.062 2.99439 13.5099 2.99439H12.7986C12.5172 2.53573 11.9859 2.25 11.3857 2.25C10.786 2.25 10.255 2.53599 9.97357 2.99439H9.24549C8.69337 2.99439 8.35466 3.33793 8.23803 3.74667H5.99086C5.35114 3.74667 4.8306 4.26746 4.8306 4.90794V15.1292C4.64342 15.1305 4.43638 15.1353 4.20234 15.1422L4.08647 15.0752L4.17458 14.9227C4.26575 14.7645 4.21177 14.5623 4.05362 14.4711L2.60839 13.6356C2.5325 13.5918 2.44235 13.5801 2.35729 13.6022C2.27249 13.6251 2.20016 13.6807 2.15636 13.7563L-0.00549606 17.5032C-0.0966663 17.6613 -0.0426772 17.8635 0.11547 17.9547L1.5607 18.7903C1.61138 18.8196 1.66868 18.8348 1.72623 18.8348C1.75475 18.8348 1.78378 18.831 1.8118 18.8236C1.8966 18.8007 1.96893 18.7452 2.01273 18.6696L2.07334 18.5646L2.25874 18.6719C2.81365 19.3467 3.18776 19.8693 3.49004 20.291C3.58783 20.4273 3.67646 20.5513 3.75999 20.6644C4.27696 21.3644 5.04248 21.75 5.91548 21.75H11.3837C11.7957 21.7375 12.11 21.4546 12.208 21.0479H16.765C17.4047 21.0479 17.925 20.5268 17.925 19.8864V16.5602C18.3365 16.6468 18.8693 16.6791 19.6086 16.6814L19.7229 16.7471L19.6702 16.8383C19.5791 16.9964 19.633 17.1986 19.7912 17.2898L21.295 18.1597C21.3457 18.189 21.403 18.2043 21.4605 18.2043C21.489 18.2043 21.5178 18.2005 21.5458 18.1931C21.6306 18.1704 21.703 18.1149 21.7468 18.0393L24.0046 14.134C24.0487 14.0578 24.0607 13.9677 24.038 13.8829L24.0377 13.8826ZM9.24549 3.65626H10.1755C10.3097 3.65626 10.4307 3.57528 10.4816 3.45075C10.6444 3.05347 11.0554 2.91213 11.3859 2.91213C11.7165 2.91213 12.1278 3.05347 12.2905 3.45075C12.3415 3.57503 12.4624 3.65626 12.5966 3.65626H13.5099C13.886 3.65626 13.9048 4.00006 13.9048 4.06882C13.9048 4.0701 13.9048 4.07264 13.9048 4.07391C13.9048 4.07519 13.9041 4.07646 13.9041 4.07774C13.9041 4.07875 13.9046 4.07952 13.9046 4.08028C13.9028 4.16585 13.8717 4.48138 13.5101 4.48138H9.24574C8.88437 4.48138 8.8533 4.1661 8.85152 4.08028C8.85152 4.07926 8.85203 4.0785 8.85203 4.07774C8.85203 4.07646 8.85126 4.07519 8.85126 4.07391C8.85126 4.07264 8.85126 4.0701 8.85126 4.06882C8.85126 3.99981 8.87011 3.65626 9.24599 3.65626H9.24549ZM0.732779 17.5478L2.56382 14.3741L3.43631 14.8784L1.60526 18.052L0.732779 17.5478ZM11.3735 21.0884H5.91522C5.248 21.0884 4.68672 20.806 4.29199 20.2714C4.21049 20.1609 4.1234 20.0394 4.02764 19.9057C3.71288 19.4662 3.3212 18.9191 2.73114 18.2045C2.70593 18.1742 2.67562 18.1485 2.64124 18.1287L2.40364 17.9914L3.75566 15.6482L3.95252 15.762C4.006 15.7931 4.06635 15.8115 4.12823 15.8064C4.54869 15.7934 4.86702 15.7839 5.11812 15.787C5.13289 15.789 5.14588 15.7957 5.16116 15.7957C5.17389 15.7957 5.18484 15.7898 5.19732 15.7883C5.93789 15.8066 6.02065 15.9612 6.3316 16.5558C6.37235 16.6335 6.41717 16.7188 6.4653 16.809C6.47396 16.8337 6.48746 16.8546 6.50146 16.8762C6.67897 17.204 6.91529 17.6122 7.26903 18.1205C7.29678 18.1605 7.3332 18.1938 7.37522 18.2183L8.79498 19.0378C8.91111 19.1048 8.96739 19.2018 8.96739 19.3342C8.96739 19.5044 8.87189 19.6933 8.73666 19.8051C8.72648 19.812 8.71654 19.8196 8.70712 19.8278C8.69464 19.8367 8.68191 19.8448 8.66892 19.8525C8.55534 19.9182 8.44329 19.9172 8.32614 19.8492L6.19816 18.6207C6.04001 18.5298 5.83755 18.5835 5.74638 18.7419C5.65521 18.9 5.7092 19.1025 5.8676 19.1937L7.99508 20.4219C8.31494 20.6073 8.68115 20.6091 8.99897 20.426C9.00712 20.4212 9.01527 20.4163 9.02342 20.4112L11.3544 20.4583C11.5739 20.4629 11.5818 20.7433 11.5818 20.7754C11.5818 20.8067 11.5772 21.0823 11.374 21.0884H11.3735ZM8.59201 18.1567L7.77021 17.6825C7.60493 17.4423 7.46766 17.2259 7.35052 17.0305H8.59201V18.1567ZM17.2631 19.8864C17.2631 20.1619 17.0395 20.3863 16.7647 20.3863H12.1757C12.0473 20.0366 11.7455 19.8044 11.3674 19.7967L9.54981 19.76C9.60074 19.6235 9.6285 19.4789 9.62876 19.335C9.62876 19.0195 9.49353 18.7421 9.25338 18.5524V16.6997C9.25338 16.5169 9.10542 16.3689 8.92257 16.3689H6.98049C6.95884 16.3277 6.93771 16.2874 6.91759 16.2492C6.51369 15.4773 6.29875 15.2145 5.49171 15.1483V4.9082C5.49171 4.63265 5.71531 4.40855 5.99035 4.40855H8.2421C8.36358 4.80939 8.70101 5.143 9.24498 5.143H13.5094C14.0533 5.143 14.3907 4.80964 14.5122 4.40855H16.7642C17.039 4.40855 17.2626 4.63265 17.2626 4.9082V9.75983L17.2593 12.1356L14.8514 10.7446C14.3523 10.4566 13.8603 10.5895 13.532 10.9018H10.3006C10.1177 10.9018 9.96975 11.0497 9.96975 11.2326C9.96975 11.4154 10.1177 11.5634 10.3006 11.5634H13.1607C13.0647 11.9986 13.1979 12.4781 13.6874 12.7608L14.5033 13.2317H10.2797C10.0968 13.2317 9.94887 13.3796 9.94887 13.5625C9.94887 13.7453 10.0968 13.8933 10.2797 13.8933H15.3931C15.6918 14.3171 15.9231 14.6802 16.1125 14.98C16.5355 15.6492 16.8203 16.0654 17.2629 16.3195V19.8869L17.2631 19.8864ZM20.053 16.1741L19.8617 16.0638C19.8118 16.035 19.7548 16.0198 19.697 16.0198H19.6863C17.5534 16.0198 17.4518 15.8593 16.6723 14.626C16.4327 14.2468 16.1344 13.7749 15.7076 13.1943C15.6806 13.1571 15.646 13.1263 15.6065 13.1036L14.0189 12.1876C13.6352 11.966 13.8503 11.5672 13.8761 11.5226C13.9018 11.4781 14.1376 11.0956 14.5216 11.3174L17.4246 12.9943C17.5267 13.0532 17.6528 13.0537 17.7551 12.9943C17.8575 12.9355 17.9204 12.8265 17.9207 12.7084L17.9242 10.0751C18.0317 10.1296 18.1593 10.2531 18.3263 10.4355L21.1631 13.5093C21.1857 13.534 21.2122 13.5551 21.2415 13.5717L21.4768 13.7071L20.4755 15.4427L20.0532 16.1738L20.053 16.1741ZM21.3396 17.4217L20.4082 16.8828L20.9565 15.9324L22.2161 13.7512C22.2161 13.7512 22.2169 13.7484 22.2174 13.7471L22.3312 13.55L23.2661 14.0894L21.3396 17.4217ZM9.94938 6.52711C9.94938 6.34426 10.0973 6.1963 10.2802 6.1963H15.6042C15.7871 6.1963 15.935 6.34426 15.935 6.52711C15.935 6.70996 15.7871 6.85792 15.6042 6.85792H10.2802C10.0973 6.85792 9.94938 6.70996 9.94938 6.52711ZM14.0123 7.3838C14.1952 7.3838 14.3431 7.53176 14.3431 7.71461C14.3431 7.89746 14.1952 8.04542 14.0123 8.04542H10.3011C10.1182 8.04542 9.97026 7.89746 9.97026 7.71461C9.97026 7.53176 10.1182 7.3838 10.3011 7.3838H14.0123ZM8.92333 5.81583H6.97514C6.79229 5.81583 6.64433 5.96379 6.64433 6.14664V8.09483C6.64433 8.27768 6.79229 8.42564 6.97514 8.42564H8.92333C9.10618 8.42564 9.25414 8.27768 9.25414 8.09483V6.14664C9.25414 5.96379 9.10618 5.81583 8.92333 5.81583ZM8.59252 7.76402H7.3057V6.47719H8.59252V7.76402ZM9.94938 10.0443C9.94938 9.86144 10.0973 9.71348 10.2802 9.71348H15.6042C15.7871 9.71348 15.935 9.86144 15.935 10.0443C15.935 10.2271 15.7871 10.3751 15.6042 10.3751H10.2802C10.0973 10.3751 9.94938 10.2271 9.94938 10.0443Z" fill="black"/>
</g>
<defs>
<clipPath id="clip0_16215_495">
<rect width="24" height="24" fill="white"/>
</clipPath>
</defs>
</svg>
