<svg width="24" height="24" viewBox="0 0 24 24" fill="none" xmlns="http://www.w3.org/2000/svg">
<path d="M22.3997 8.8271H22.5028C22.7889 8.8271 23.0215 8.59445 23.0215 8.3084V4.92122C23.0215 4.39665 22.5947 3.96979 22.0701 3.96979H20.3717V2.64979C20.3717 2.12522 19.9449 1.69836 19.4203 1.69836H1.93092C1.40635 1.69836 0.979492 2.12522 0.979492 2.64979V6.03698C0.979492 6.32302 1.21215 6.55567 1.49819 6.55567H1.60129C2.17631 6.55567 2.64406 7.02343 2.64406 7.59845C2.64406 8.17347 2.17631 8.64122 1.60129 8.64122H1.49819C1.21215 8.64122 0.979492 8.87387 0.979492 9.15992V12.5471C0.979492 13.0717 1.40635 13.4985 1.93092 13.4985H3.62929V14.8185C3.62929 15.3431 4.05615 15.77 4.58072 15.77H9.96896V17.2922C9.96896 17.4833 10.1237 17.638 10.3148 17.638H10.9765C11.095 18.097 11.2762 18.5341 11.5175 18.9431L11.0492 19.4113C10.9143 19.5463 10.9143 19.7652 11.0492 19.9004L12.3702 21.2214C12.4351 21.2863 12.523 21.3228 12.6146 21.3228C12.7064 21.3228 12.7941 21.2863 12.859 21.2214L13.3272 20.7531C13.7362 20.9946 14.1734 21.1756 14.6323 21.2941V21.9558C14.6323 22.1469 14.7871 22.3016 14.9781 22.3016H16.8462C17.0372 22.3016 17.192 22.1469 17.192 21.9558V21.2939C17.6509 21.1753 18.0881 20.9944 18.497 20.7529L18.9653 21.2211C19.1002 21.3561 19.3192 21.3561 19.4543 21.2211L20.7753 19.9002C20.8402 19.8353 20.8765 19.7473 20.8765 19.6558C20.8765 19.5642 20.84 19.476 20.7753 19.4113L20.3071 18.9431C20.5486 18.5341 20.7295 18.097 20.8481 17.638H21.5098C21.7008 17.638 21.8556 17.4833 21.8556 17.2922V15.77H22.0701C22.5947 15.77 23.0215 15.3431 23.0215 14.8185V11.4313C23.0215 11.1453 22.7889 10.9127 22.5028 10.9127H22.3997C21.8247 10.9127 21.357 10.4449 21.357 9.86987C21.357 9.29485 21.8247 8.8271 22.3997 8.8271ZM1.67108 12.5471V9.33159C2.59508 9.29485 3.33566 8.53151 3.33566 7.59869C3.33566 6.66587 2.59533 5.90253 1.67108 5.86579V2.65004C1.67108 2.50677 1.78766 2.3902 1.93092 2.3902H5.73027V2.9351C5.73027 3.12612 5.88504 3.2809 6.07606 3.2809C6.26708 3.2809 6.42186 3.12612 6.42186 2.9351V2.38996H19.4201C19.5633 2.38996 19.6799 2.50653 19.6799 2.64979V5.86555C18.7559 5.90228 18.0153 6.66563 18.0153 7.59845C18.0153 8.53126 18.7557 9.29461 19.6799 9.33134V11.7208L19.4541 11.495C19.3892 11.4301 19.3013 11.3936 19.2097 11.3936C19.1181 11.3936 19.0302 11.4301 18.9653 11.495L18.497 11.9633C18.0881 11.722 17.6509 11.5408 17.1922 11.4223V10.7608C17.1922 10.5698 17.0375 10.415 16.8464 10.415H14.9783C14.8182 10.415 14.684 10.524 14.6446 10.6717H7.6679C7.47688 10.6717 7.3221 10.8264 7.3221 11.0175C7.3221 11.2085 7.47688 11.3633 7.6679 11.3633H14.6326V11.4228C14.1736 11.5413 13.7365 11.7223 13.3275 11.9638L12.8592 11.4955C12.7243 11.3606 12.5054 11.3606 12.3702 11.4955L11.0583 12.8074H6.42186V12.262C6.42186 12.071 6.26708 11.9162 6.07606 11.9162C5.88504 11.9162 5.73027 12.071 5.73027 12.262V12.8069H1.93092C1.78766 12.8072 1.67108 12.6906 1.67108 12.5471ZM4.58072 15.0784C4.43745 15.0784 4.32088 14.9618 4.32088 14.8185V13.4985H11.2427L11.5175 13.7733C11.2762 14.1823 11.095 14.6194 10.9765 15.0781L4.58072 15.0784ZM21.164 16.9464H20.5723C20.4075 16.9464 20.2655 17.0628 20.2331 17.2247C20.1205 17.7896 19.9008 18.3198 19.58 18.8006C19.4884 18.9377 19.5065 19.1204 19.6231 19.237L20.0416 19.6555L19.2097 20.4874L18.7912 20.0689C18.6746 19.9523 18.4919 19.9342 18.3548 20.0258C17.8743 20.3466 17.3441 20.5663 16.7788 20.6789C16.6172 20.7113 16.5006 20.8531 16.5006 21.0181V21.6095H15.3239V21.0181C15.3239 20.8533 15.2076 20.7113 15.0457 20.6789C14.4807 20.5663 13.9505 20.3466 13.4698 20.0258C13.3326 19.9342 13.1499 19.9523 13.0334 20.0689L12.6148 20.4874L11.7829 19.6555L12.2015 19.237C12.318 19.1204 12.3361 18.9377 12.2446 18.8006C11.9237 18.3201 11.7041 17.7899 11.5912 17.2244C11.5588 17.0628 11.417 16.9462 11.252 16.9462H10.6606V15.7695H11.252C11.4168 15.7695 11.5588 15.6531 11.5912 15.4913C11.7038 14.9263 11.9235 14.3961 12.2446 13.9153C12.3361 13.7782 12.318 13.5955 12.2015 13.4789L11.7829 13.0604L12.6148 12.2285L13.0334 12.647C13.1499 12.7636 13.3326 12.7817 13.4698 12.6901C13.9503 12.3693 14.4805 12.1496 15.0457 12.037C15.2073 12.0047 15.3239 11.8629 15.3239 11.6978V11.1061H16.5006V11.6978C16.5006 11.8626 16.617 12.0047 16.7788 12.037C17.3438 12.1496 17.874 12.3693 18.3548 12.6901C18.4919 12.7817 18.6746 12.7636 18.7912 12.647L19.2097 12.2285L20.0416 13.0604L19.6231 13.4789C19.5065 13.5955 19.4884 13.7782 19.58 13.9153C19.9008 14.3958 20.1205 14.926 20.2331 15.4913C20.2655 15.6529 20.4072 15.7695 20.5723 15.7695H21.164V16.9464ZM22.3297 11.6028V14.8185C22.3297 14.9618 22.2131 15.0784 22.0699 15.0784H20.8478C20.7293 14.6194 20.5483 14.1823 20.3068 13.7735L20.7751 13.3053C20.91 13.1704 20.91 12.9514 20.7751 12.8162L20.3712 12.4124V9.15992C20.3712 8.87387 20.1386 8.64122 19.8526 8.64122H19.7495C19.1744 8.64122 18.7067 8.17347 18.7067 7.59845C18.7067 7.02343 19.1744 6.55567 19.7495 6.55567H19.8526C20.1386 6.55567 20.3712 6.32302 20.3712 6.03698V4.66114H22.0696C22.2129 4.66114 22.3295 4.77771 22.3295 4.92098V8.13673C21.4055 8.17347 20.6649 8.93681 20.6649 9.86963C20.6654 10.8027 21.4057 11.566 22.3297 11.6028ZM4.5381 4.36947H2.86325C2.67223 4.36947 2.51745 4.21469 2.51745 4.02367C2.51745 3.83265 2.67223 3.67787 2.86325 3.67787H4.53786C4.72888 3.67787 4.88366 3.83265 4.88366 4.02367C4.88366 4.21469 4.72888 4.36947 4.5381 4.36947ZM8.31847 7.61155H17.0639C17.3022 7.61155 17.4961 7.41759 17.4961 7.1793V3.49885C17.4961 3.26057 17.3022 3.06661 17.0639 3.06661H8.31847C8.08019 3.06661 7.88623 3.26057 7.88623 3.49885V7.1793C7.88623 7.41759 8.08019 7.61155 8.31847 7.61155ZM8.57782 3.75845H16.8046V6.9202H8.57782V3.75845ZM4.88366 10.8335C4.88366 11.0246 4.72888 11.1793 4.53786 11.1793H2.86325C2.67223 11.1793 2.51745 11.0246 2.51745 10.8335C2.51745 10.6425 2.67223 10.4878 2.86325 10.4878H4.53786C4.72888 10.4878 4.88366 10.6425 4.88366 10.8335ZM4.88366 9.54392C4.88366 9.73494 4.72888 9.88971 4.53786 9.88971H2.86325C2.67223 9.88971 2.51745 9.73494 2.51745 9.54392C2.51745 9.3529 2.67223 9.19812 2.86325 9.19812H4.53786C4.72888 9.19836 4.88366 9.35314 4.88366 9.54392ZM5.73027 4.97853V4.08783C5.73027 3.89681 5.88504 3.74204 6.07606 3.74204C6.26708 3.74204 6.42186 3.89681 6.42186 4.08783V4.97853C6.42186 5.16955 6.26708 5.32432 6.07606 5.32432C5.88504 5.32432 5.73027 5.16955 5.73027 4.97853ZM5.73027 7.0222V6.13151C5.73027 5.94049 5.88504 5.78571 6.07606 5.78571C6.26708 5.78571 6.42186 5.94049 6.42186 6.13151V7.0222C6.42186 7.21322 6.26708 7.368 6.07606 7.368C5.88504 7.368 5.73027 7.21322 5.73027 7.0222ZM5.73027 9.06563V8.17494C5.73027 7.98392 5.88504 7.82914 6.07606 7.82914C6.26708 7.82914 6.42186 7.98392 6.42186 8.17494V9.06563C6.42186 9.25665 6.26708 9.41143 6.07606 9.41143C5.88504 9.41143 5.73027 9.25665 5.73027 9.06563ZM5.73027 11.1093V10.2186C5.73027 10.0276 5.88504 9.87281 6.07606 9.87281C6.26708 9.87281 6.42186 10.0276 6.42186 10.2186V11.1093C6.42186 11.3003 6.26708 11.4551 6.07606 11.4551C5.88504 11.4551 5.73027 11.3003 5.73027 11.1093ZM17.0654 9.55273C17.0654 9.74375 16.9106 9.89853 16.7196 9.89853H8.64749C8.45647 9.89853 8.3017 9.74375 8.3017 9.55273C8.3017 9.36171 8.45647 9.20694 8.64749 9.20694H16.7196C16.9106 9.20718 17.0654 9.36196 17.0654 9.55273ZM15.9121 12.8655C13.9863 12.8655 12.4194 14.4323 12.4194 16.3582C12.4194 18.2841 13.9863 19.8509 15.9121 19.8509C17.838 19.8509 19.4049 18.2841 19.4049 16.3582C19.4049 14.4323 17.838 12.8655 15.9121 12.8655ZM15.5634 19.1371V18.1614C15.5634 18.0184 15.4755 17.8903 15.342 17.8389C14.7628 17.6155 14.3262 16.9793 14.3262 16.3584C14.3262 16.0344 14.4033 15.7509 14.5566 15.5099V16.3168C14.5566 16.4402 14.6225 16.5544 14.7295 16.6163L15.7395 17.1994C15.8465 17.2611 15.9783 17.2611 16.0853 17.1994L17.0952 16.6163C17.2023 16.5546 17.2681 16.4405 17.2681 16.3168V15.5099C17.4212 15.7509 17.4983 16.0342 17.4983 16.3582C17.4983 16.979 17.0617 17.6153 16.4825 17.8386C16.349 17.89 16.2611 18.0184 16.2611 18.1611V19.1368C16.1468 19.151 16.0304 19.1593 15.9121 19.1593C15.7941 19.1593 15.6778 19.1513 15.5634 19.1371ZM16.9525 18.9583V18.383C17.6813 17.9978 18.1897 17.183 18.1897 16.3582C18.1897 15.5368 17.8037 14.8472 17.1031 14.4167C16.9963 14.351 16.8626 14.3483 16.7534 14.4095C16.6441 14.4708 16.5763 14.5861 16.5763 14.7113V16.1172L15.9121 16.5007L15.248 16.1172V14.7113C15.248 14.5861 15.1804 14.4705 15.0709 14.4095C14.9617 14.3486 14.828 14.3513 14.7212 14.4167C14.0206 14.8472 13.6346 15.5368 13.6346 16.3582C13.6346 17.1828 14.143 17.9978 14.8718 18.383V18.9583C13.841 18.5444 13.111 17.5352 13.111 16.3582C13.111 14.8136 14.3676 13.5571 15.9121 13.5571C17.4567 13.5571 18.7133 14.8136 18.7133 16.3582C18.7133 17.5352 17.9832 18.5444 16.9525 18.9583Z" fill="black"/>
<path d="M10.4846 4.5H10.9099V6.3375H10.4846V4.5ZM9.64986 6.3375H9.22461V4.5H9.64986V6.3375ZM10.5161 5.58413H9.61836V5.2245H10.5161V5.58413Z" fill="black"/>
<path d="M11.7357 5.24025H12.6204V5.571H11.7357V5.24025ZM11.7672 5.99625H12.7674V6.3375H11.3446V4.5H12.7332V4.84125H11.7672V5.99625Z" fill="black"/>
<path d="M13.1057 6.3375V4.5H13.531V5.991H14.4523V6.3375H13.1057Z" fill="black"/>
<path d="M14.6899 6.3375V4.5H15.4853C15.6498 4.5 15.7916 4.52713 15.9106 4.58138C16.0296 4.63387 16.1214 4.71 16.1862 4.80975C16.2509 4.9095 16.2833 5.0285 16.2833 5.16675C16.2833 5.30325 16.2509 5.42138 16.1862 5.52113C16.1214 5.62088 16.0296 5.69788 15.9106 5.75213C15.7916 5.80463 15.6498 5.83088 15.4853 5.83088H14.9262L15.1152 5.63925V6.3375H14.6899ZM15.1152 5.6865L14.9262 5.48438H15.4617C15.5929 5.48438 15.6909 5.45638 15.7557 5.40038C15.8204 5.34438 15.8528 5.2665 15.8528 5.16675C15.8528 5.06525 15.8204 4.9865 15.7557 4.9305C15.6909 4.8745 15.5929 4.8465 15.4617 4.8465H14.9262L15.1152 4.64438V5.6865Z" fill="black"/>
</svg>
