<svg width="24" height="24" viewBox="0 0 24 24" fill="none" xmlns="http://www.w3.org/2000/svg">
<g clip-path="url(#clip0_9325_33759)">
<path d="M11.2091 0.391832C11.1878 0.312161 11.199 0.227298 11.2403 0.155912C11.2816 0.0845253 11.3495 0.0324628 11.4292 0.0111777C11.5089 -0.0101075 11.5938 0.00112811 11.6651 0.0424128C11.7365 0.0836975 11.7886 0.151649 11.8099 0.23132L12.234 1.8143C12.2446 1.85378 12.2473 1.89495 12.242 1.93548C12.2367 1.97601 12.2234 2.01509 12.203 2.05049C12.1826 2.08589 12.1553 2.11692 12.1229 2.14179C12.0905 2.16666 12.0534 2.18489 12.014 2.19544C11.9745 2.20599 11.9333 2.20865 11.8928 2.20327C11.8522 2.19789 11.8132 2.18457 11.7778 2.16408C11.7424 2.14359 11.7115 2.11633 11.6867 2.08385C11.6618 2.05137 11.6437 2.01432 11.6332 1.97481L11.2091 0.391832ZM13.4709 0.231321C13.4925 0.151801 13.5447 0.0840695 13.6161 0.0429419C13.6875 0.00181438 13.7723 -0.00936177 13.8519 0.0118581C13.9315 0.0330779 13.9995 0.0849666 14.041 0.156174C14.0824 0.227382 14.094 0.312112 14.0732 0.391832L13.6491 1.97481C13.6385 2.01436 13.6203 2.05144 13.5954 2.08395C13.5706 2.11645 13.5395 2.14373 13.5041 2.16424C13.4687 2.18475 13.4296 2.19809 13.389 2.20348C13.3485 2.20888 13.3072 2.20623 13.2677 2.19569C13.2281 2.18516 13.1911 2.16693 13.1586 2.14206C13.1261 2.11719 13.0988 2.08616 13.0783 2.05074C13.0577 2.01533 13.0444 1.97622 13.039 1.93565C13.0336 1.89508 13.0363 1.85385 13.0468 1.8143L13.4709 0.231321ZM19.8868 4.63569C19.9582 4.59507 20.0429 4.58441 20.1221 4.60605C20.2014 4.62769 20.2689 4.67987 20.3098 4.75115C20.3507 4.82244 20.3617 4.90703 20.3404 4.9864C20.319 5.06578 20.2671 5.13346 20.196 5.17464L18.7765 5.99338C18.7412 6.01385 18.7022 6.02714 18.6617 6.03251C18.6213 6.03788 18.5802 6.03521 18.5408 6.02465C18.5014 6.0141 18.4644 5.99587 18.4321 5.97101C18.3997 5.94615 18.3726 5.91514 18.3522 5.87978C18.3319 5.84441 18.3187 5.80537 18.3135 5.76491C18.3082 5.72444 18.3111 5.68334 18.3217 5.64396C18.3324 5.60458 18.3508 5.5677 18.3757 5.53543C18.4007 5.50316 18.4318 5.47613 18.4672 5.4559L19.8868 4.63569ZM18.1713 3.15137C18.2123 3.0799 18.28 3.02765 18.3595 3.00611C18.4391 2.98457 18.5239 2.99551 18.5954 3.03651C18.6668 3.07752 18.7191 3.14524 18.7406 3.22478C18.7622 3.30431 18.7512 3.38914 18.7102 3.46061L17.89 4.87867C17.8697 4.91399 17.8427 4.94496 17.8104 4.96983C17.7781 4.99469 17.7413 5.01295 17.702 5.02356C17.6626 5.03418 17.6216 5.03694 17.5812 5.03169C17.5408 5.02644 17.5018 5.01328 17.4665 4.99297C17.4312 4.97266 17.4003 4.94558 17.3754 4.9133C17.3506 4.88102 17.3324 4.84416 17.3218 4.80482C17.3112 4.76549 17.3084 4.72446 17.3137 4.68407C17.319 4.64367 17.3322 4.60472 17.3525 4.56943L18.1713 3.15137ZM5.08477 5.17464C5.01364 5.13346 4.96173 5.06577 4.9404 4.9864C4.91907 4.90703 4.93006 4.82244 4.97096 4.75115C5.01186 4.67987 5.07935 4.62769 5.15864 4.60605C5.23792 4.58441 5.32256 4.59507 5.394 4.63569L6.81353 5.4559C6.84897 5.47613 6.88006 5.50316 6.90503 5.53543C6.93 5.5677 6.94835 5.60458 6.95904 5.64396C6.96972 5.68334 6.97253 5.72444 6.9673 5.76491C6.96207 5.80537 6.9489 5.84441 6.92856 5.87978C6.90821 5.91514 6.88108 5.94615 6.84873 5.97101C6.81637 5.99587 6.77943 6.0141 6.74001 6.02465C6.7006 6.03521 6.65949 6.03788 6.61904 6.03251C6.57859 6.02715 6.5396 6.01385 6.5043 5.99338L5.08477 5.17464ZM6.57056 3.46061C6.52966 3.38915 6.51881 3.30437 6.54038 3.22491C6.56194 3.14544 6.61417 3.07779 6.68559 3.03681C6.75701 2.99583 6.84178 2.98488 6.92126 3.00636C7.00075 3.02784 7.06846 3.08 7.10952 3.15137L7.92825 4.56943C7.94861 4.60472 7.96181 4.64368 7.9671 4.68408C7.97239 4.72448 7.96966 4.76552 7.95908 4.80487C7.9485 4.84421 7.93026 4.88109 7.90542 4.91338C7.88058 4.94567 7.84961 4.97275 7.8143 4.99307C7.77898 5.01339 7.74001 5.02655 7.69961 5.0318C7.6592 5.03704 7.61816 5.03428 7.57882 5.02365C7.53949 5.01302 7.50264 4.99475 7.47037 4.96987C7.4381 4.945 7.41106 4.914 7.39077 4.87867L6.57056 3.46061ZM3.95827 18.9002L4.84769 18.1713C4.85505 18.1654 4.86388 18.1595 4.87125 18.1536C5.01838 18.0447 5.20232 17.9977 5.38369 18.0226C5.56542 18.0465 5.73126 18.1386 5.84754 18.2803C5.85343 18.2876 5.8446 18.2773 5.85933 18.2965L5.9197 18.3745C6.15726 18.1047 6.38041 17.8226 6.58823 17.5293C6.74285 17.3172 6.88127 17.1273 7.02705 16.9609V10.439H6.61621C6.5753 10.4391 6.53476 10.4312 6.49692 10.4157C6.45907 10.4001 6.42467 10.3773 6.39567 10.3484C6.36667 10.3195 6.34365 10.2852 6.32792 10.2475C6.3122 10.2097 6.30408 10.1692 6.30403 10.1283V7.38052C6.30407 7.29774 6.33698 7.21836 6.39551 7.15982C6.45405 7.10128 6.53343 7.06838 6.61621 7.06834H9.83666C9.53983 6.7208 9.38916 6.2718 9.41626 5.81556C9.44335 5.35932 9.64611 4.9313 9.98199 4.62134C10.3179 4.31138 10.7607 4.14356 11.2177 4.1531C11.6746 4.16264 12.1101 4.3488 12.4328 4.67251C12.5094 4.74946 12.5789 4.83325 12.6404 4.92284C12.7018 4.83325 12.7713 4.74946 12.848 4.67251C13.1706 4.34853 13.6062 4.16213 14.0633 4.15247C14.5203 4.14281 14.9634 4.31063 15.2994 4.6207C15.6354 4.93076 15.8381 5.35895 15.8651 5.81534C15.8921 6.27174 15.7412 6.72084 15.4441 7.06834H18.6646C18.7473 7.06838 18.8267 7.10128 18.8853 7.15982C18.9438 7.21836 18.9767 7.29774 18.9767 7.38052V10.1283C18.9767 10.1692 18.9686 10.2097 18.9528 10.2475C18.9371 10.2852 18.9141 10.3195 18.8851 10.3484C18.8561 10.3773 18.8217 10.4001 18.7839 10.4157C18.746 10.4312 18.7055 10.4391 18.6646 10.439H18.2537V15.8314C18.4567 15.7798 18.6678 15.7683 18.8751 15.7976C19.0323 15.82 19.1796 15.8876 19.2992 15.992C19.3631 16.0496 19.4136 16.1204 19.4474 16.1994C19.4812 16.2785 19.4975 16.364 19.4951 16.4499C19.4907 16.6988 19.3405 17.0006 18.987 17.3231C18.669 17.6147 18.2979 17.9725 17.8959 18.3583C16.6148 19.5923 15.0347 21.1149 14.0746 21.5464C14.0579 21.5536 14.0407 21.5595 14.0231 21.5641C13.4267 21.7143 11.9277 21.8056 10.6333 21.8836C9.77923 21.9351 9.01792 21.9823 8.7293 22.022L8.80146 22.1163C8.85831 22.1901 8.90006 22.2743 8.92431 22.3643C8.94857 22.4543 8.95486 22.5481 8.94282 22.6405C8.91852 22.8267 8.82429 22.9968 8.67923 23.1161L7.78835 23.8436C7.78099 23.8494 7.77363 23.8553 7.7648 23.8612C7.61805 23.971 7.43378 24.0181 7.25235 23.9923C7.07098 23.9683 6.90533 23.8768 6.7885 23.7361C6.78261 23.7287 6.77819 23.7213 6.7723 23.714L3.83458 19.8986C3.77793 19.8247 3.73641 19.7404 3.71241 19.6504C3.6884 19.5605 3.68238 19.4667 3.69469 19.3744V19.3729C3.71877 19.1874 3.81312 19.0182 3.95827 18.9002ZM6.30551 18.8752L8.32436 21.4963C8.33291 21.4918 8.34177 21.4878 8.35087 21.4845C8.55702 21.3873 9.50534 21.3299 10.5965 21.2637C11.8437 21.1871 13.2854 21.1002 13.8479 20.9662C14.7123 20.5627 16.2319 19.099 17.4659 17.9107C17.8782 17.5131 18.2596 17.1464 18.5688 16.8637C18.7794 16.6708 18.8692 16.5324 18.8737 16.447C18.8422 16.4279 18.8071 16.4159 18.7706 16.4116C18.6027 16.3822 18.3642 16.4175 18.0976 16.5309C18.0788 16.5424 18.0585 16.5513 18.0373 16.5574C17.9168 16.6132 17.8011 16.6787 17.6912 16.7532C17.6853 16.7562 17.6809 16.7606 17.675 16.7636L16.1009 17.6839C16.0857 17.6941 16.07 17.7034 16.0537 17.7119L14.6504 18.5321C14.2131 18.7883 13.7625 18.7456 12.7435 18.6484C11.9719 18.5748 10.8483 18.4673 9.12837 18.432C9.04849 18.4325 8.97149 18.4022 8.91342 18.3473C8.85535 18.2925 8.82071 18.2173 8.81672 18.1375C8.81274 18.0577 8.83971 17.9795 8.89201 17.9191C8.94432 17.8587 9.01791 17.8209 9.09745 17.8135C9.42877 17.7811 9.71445 17.7708 9.98833 17.7605C10.4064 17.7546 10.8233 17.7167 11.2356 17.6471C11.5816 17.5852 11.776 17.4512 11.8555 17.301L11.8644 17.2834C11.8901 17.2266 11.9012 17.1644 11.8968 17.1022C11.8902 17.0352 11.868 16.9707 11.832 16.9138C11.8081 16.8776 11.7799 16.8444 11.748 16.8151C11.742 16.811 11.7365 16.806 11.7318 16.8004C11.6461 16.7326 11.5407 16.6943 11.4314 16.6914C11.427 16.6916 11.4225 16.6911 11.4182 16.6899C8.08139 16.5338 7.77805 16.9491 7.09037 17.8945C6.84824 18.2365 6.58616 18.564 6.30551 18.8752ZM5.24233 18.6543L4.35291 19.3817C4.3413 19.3903 4.33154 19.4011 4.3242 19.4135C4.31687 19.4259 4.31211 19.4396 4.31021 19.4539C4.30866 19.4653 4.30942 19.477 4.31246 19.4881C4.31549 19.4992 4.32074 19.5096 4.32788 19.5187L7.26266 23.3296C7.2656 23.3341 7.26855 23.337 7.27149 23.3414C7.28714 23.361 7.30988 23.3737 7.33481 23.3768C7.3525 23.38 7.37076 23.3769 7.38635 23.3679C7.38842 23.3655 7.39092 23.3635 7.39371 23.362L8.28461 22.6331C8.30684 22.6157 8.32159 22.5904 8.32584 22.5624C8.32765 22.5509 8.32715 22.5391 8.32437 22.5277C8.32159 22.5163 8.31658 22.5056 8.30963 22.4962L5.65464 19.0475C5.65134 19.0444 5.64838 19.0409 5.64581 19.0372L5.3675 18.6764L5.36602 18.6735C5.3675 18.6764 5.37339 18.6838 5.36455 18.6749C5.34901 18.6549 5.32631 18.6417 5.30124 18.6381C5.28337 18.6346 5.26484 18.6383 5.24969 18.6484L5.24233 18.6543ZM7.64993 16.447C8.28902 16.098 9.3036 15.9699 11.4447 16.07H11.4535C11.5129 16.0723 11.5719 16.0792 11.6302 16.0906V10.439H7.64993V16.447ZM12.2531 16.4411C12.2913 16.4846 12.3263 16.5308 12.3577 16.5795C12.4492 16.7231 12.5043 16.8869 12.5182 17.0566C12.5196 17.0772 12.5196 17.0978 12.5196 17.1184H13.0277V10.439H12.2531V16.4411ZM12.3091 17.7413C12.2429 17.8255 12.1656 17.9003 12.0793 17.9637C12.3503 17.9872 12.5889 18.0093 12.8024 18.0299C13.6829 18.1139 14.0732 18.1507 14.3368 17.9961L14.7726 17.7413L12.3091 17.7413ZM15.8387 17.1184L17.351 16.2334C17.4413 16.1731 17.5347 16.1176 17.6308 16.0671V10.439H13.6505V17.1184L15.8387 17.1184ZM14.0982 4.77705C13.7946 4.7779 13.5037 4.89887 13.289 5.11354C13.0744 5.32821 12.9534 5.61912 12.9526 5.9227V7.06834H14.0982C14.402 7.06834 14.6934 6.94764 14.9083 6.73279C15.1231 6.51794 15.2438 6.22654 15.2438 5.92269C15.2438 5.61885 15.1231 5.32745 14.9083 5.1126C14.6934 4.89775 14.402 4.77705 14.0982 4.77705ZM11.9925 5.1128C11.8593 4.97967 11.6953 4.88145 11.515 4.82683C11.3348 4.7722 11.1439 4.76286 10.9592 4.79964C10.7745 4.83641 10.6017 4.91817 10.4561 5.03766C10.3105 5.15715 10.1967 5.3107 10.1246 5.4847C10.0526 5.65869 10.0245 5.84778 10.043 6.0352C10.0614 6.22263 10.1258 6.40261 10.2304 6.55921C10.335 6.71581 10.4767 6.8442 10.6427 6.933C10.8088 7.02181 10.9942 7.06829 11.1826 7.06833H12.3282V5.9227C12.3283 5.77225 12.2987 5.62327 12.2411 5.48429C12.1835 5.34531 12.099 5.21907 11.9925 5.1128ZM14.0364 7.69269V9.8161H18.3539V7.69269L14.0364 7.69269ZM11.2444 9.8161V7.69269H6.92839V9.8161H11.2444ZM11.8673 7.69269V9.8161H13.4135V7.69269H11.8673Z" fill="#212529" stroke="#212529" stroke-width="0.2"/>
</g>
<defs>
<clipPath id="clip0_9325_33759">
<rect width="24" height="24" fill="white"/>
</clipPath>
</defs>
</svg>
