<svg width="24" height="24" viewBox="0 0 24 24" fill="none" xmlns="http://www.w3.org/2000/svg">
<path d="M22.6177 17.9808C22.2721 17.6352 21.8569 17.4024 21.4009 17.2824C21.5017 17.1288 21.5617 16.9416 21.5617 16.7448V12.5088C21.5617 11.9616 21.1201 11.52 20.5753 11.52H15.0817C14.5345 11.52 14.0929 11.9616 14.0929 12.5088V16.7424C14.0929 16.9056 14.1361 17.0568 14.2081 17.1936H13.6417V15.5928C13.6417 15.444 13.5193 15.324 13.3705 15.324H12.7729V6.24959C12.7729 6.24959 12.7753 6.24959 12.7753 6.24719L15.0673 7.4568C14.9521 7.77599 15.0769 8.1408 15.3817 8.3208L16.5433 8.99039L17.6833 10.7088C17.7337 10.7856 17.8201 10.8288 17.9113 10.8288C17.9281 10.8288 17.9449 10.8288 17.9641 10.8216L20.5057 10.3008C20.6209 10.2792 20.7073 10.1808 20.7169 10.0656L20.8081 9.2664C20.8153 9.18959 20.7937 9.11039 20.7385 9.05279C20.6857 8.9976 20.6041 8.96159 20.5345 8.96399L18.7369 8.99279L17.6833 7.68479L18.2617 6.6912L19.9273 6.9744L20.7961 8.57039C20.8321 8.6376 20.8969 8.688 20.9737 8.7024C20.9905 8.70479 21.0121 8.70959 21.0337 8.70959C21.0913 8.70959 21.1441 8.69039 21.1921 8.65919L21.8497 8.18159C21.9433 8.1144 21.9817 7.992 21.9457 7.87919L21.1369 5.388C21.1057 5.28479 21.0121 5.21279 20.9017 5.2008L18.8329 5.04959L17.6689 4.38C17.3281 4.1808 16.8913 4.29599 16.6897 4.6368L13.8625 3.1056C13.4905 2.15279 12.5641 1.47839 11.4841 1.47839C10.0729 1.47839 8.9233 2.628 8.9233 4.04159C8.9233 4.9824 9.4369 5.8056 10.1929 6.24959V15.324H9.59529C9.44649 15.324 9.32409 15.444 9.32409 15.5928V17.46C9.32409 17.6064 9.44649 17.7288 9.59529 17.7288L20.7313 17.7312C21.2953 17.7312 21.8305 17.9544 22.2337 18.3576C22.6321 18.7512 22.8553 19.2864 22.8553 19.8576C22.8553 21.0288 21.9025 21.984 20.7313 21.984H5.7817L5.8201 21.7176C6.0145 21.6576 6.2017 21.5784 6.38409 21.4848L6.8473 21.828C6.95529 21.9072 7.10649 21.8976 7.2001 21.804L8.2081 20.796C8.3017 20.7024 8.3137 20.5512 8.2345 20.4432L7.8889 19.98C7.9825 19.8048 8.0569 19.6128 8.1217 19.416L8.69289 19.3344C8.8249 19.3152 8.9233 19.2 8.9233 19.068V17.6424C8.9233 17.5104 8.8249 17.3952 8.69289 17.376L8.1217 17.2944C8.0617 17.0976 7.9825 16.9104 7.8889 16.7304L8.2345 16.2672C8.3137 16.1592 8.3017 16.008 8.2081 15.9144L7.2001 14.9064C7.10649 14.8128 6.95529 14.8032 6.8473 14.8824L6.38409 15.2256C6.20409 15.132 6.0193 15.0528 5.8201 14.9928L5.73849 14.4216C5.7193 14.2896 5.60649 14.1912 5.47209 14.1912H4.04649C3.9145 14.1912 3.7993 14.2896 3.7825 14.4216L3.69849 14.9928C3.5017 15.0528 3.3145 15.132 3.1345 15.2256L2.6713 14.8824C2.5633 14.8032 2.4145 14.8128 2.32089 14.9064L1.3105 15.9144C1.2169 16.008 1.2073 16.1592 1.28649 16.2672L1.62969 16.7304C1.5361 16.9128 1.4593 17.1 1.3969 17.2944L0.830503 17.3808C0.696103 17.3976 0.600098 17.5128 0.600098 17.6472V19.0704C0.600098 19.2048 0.696103 19.32 0.830503 19.3368L1.4017 19.4208C1.4617 19.6128 1.54089 19.8 1.6345 19.9824L1.2889 20.4456C1.20969 20.5536 1.2217 20.7048 1.31529 20.7984L2.3233 21.8064C2.4169 21.9 2.5681 21.912 2.6761 21.8328L3.1393 21.4872C3.3193 21.5808 3.5089 21.66 3.7033 21.7224L3.7849 22.2912C3.8017 22.4256 3.9169 22.5216 4.0513 22.5216H20.7385C22.2073 22.5216 23.4001 21.3264 23.4001 19.8576C23.3977 19.1424 23.1193 18.4752 22.6177 17.9808ZM18.9073 5.5968L20.6809 5.7264L21.3745 7.8576L21.1225 8.0424L20.3377 6.6024C20.2969 6.53039 20.2249 6.48 20.1433 6.4656L18.5569 6.19919L18.9073 5.5968ZM17.4049 8.19839L18.4009 9.44159C18.4561 9.5064 18.5377 9.54959 18.6169 9.5424L20.2393 9.51599L20.2057 9.81839L18.0313 10.2648L17.0593 8.79839L17.4049 8.19839ZM14.0353 3.8088L16.4209 5.10479L15.3289 6.9888L13.2529 5.88959C13.7425 5.42399 14.0473 4.7712 14.0473 4.04159C14.0473 3.9624 14.0425 3.8832 14.0353 3.8088ZM9.4657 4.04159C9.4657 2.9256 10.3705 2.01599 11.4865 2.01599C12.6025 2.01599 13.5073 2.9256 13.5073 4.04159C13.5073 5.1552 12.6025 6.0624 11.4865 6.0624C10.3705 6.0624 9.4657 5.1552 9.4657 4.04159ZM12.2329 6.48959V15.324H10.7353V6.48959C10.9729 6.56159 11.2249 6.6024 11.4865 6.6024C11.7457 6.6024 11.9977 6.56159 12.2329 6.48959ZM13.1017 17.1912H9.86649V15.8616H13.1017V17.1912ZM17.0329 12.06H18.6217V12.9432L17.9137 12.7008C17.8849 12.6912 17.8561 12.6864 17.8273 12.6864C17.7985 12.6864 17.7697 12.6912 17.7409 12.7008L17.0329 12.9432V12.06ZM21.0241 16.7424C21.0241 16.9896 20.8225 17.1912 20.5753 17.1912H15.0817C14.8321 17.1912 14.6329 16.9896 14.6329 16.7424V12.5088C14.6329 12.2592 14.8321 12.06 15.0817 12.06H16.4953V13.32C16.4953 13.4064 16.5385 13.488 16.6057 13.5384C16.6753 13.5888 16.7689 13.6032 16.8505 13.5744L17.8273 13.2432L18.8041 13.5744C18.8329 13.5864 18.8617 13.5888 18.8905 13.5888C18.9481 13.5888 19.0009 13.572 19.0489 13.5384C19.1209 13.488 19.1593 13.4064 19.1593 13.32V12.06H20.5753C20.8225 12.06 21.0241 12.2592 21.0241 12.5088V16.7424ZM5.3113 21.4656L5.2393 21.9792H4.2793L4.20969 21.4704C4.19529 21.3624 4.1161 21.276 4.0105 21.2472C3.74649 21.18 3.4873 21.072 3.24969 20.9352C3.1561 20.8824 3.03849 20.8896 2.95209 20.952L2.5345 21.2664L1.8577 20.5824L2.1649 20.1672C2.22969 20.0808 2.2369 19.9632 2.18409 19.8696C2.0473 19.632 1.94409 19.3776 1.87209 19.1112C1.8433 19.008 1.7569 18.9288 1.6489 18.9144L1.13529 18.8424V17.8824L1.6489 17.8104C1.7569 17.796 1.8433 17.7168 1.87209 17.6136C1.9393 17.352 2.0473 17.0928 2.18649 16.8552C2.2417 16.764 2.2345 16.644 2.16969 16.5576L1.8601 16.1424L2.5393 15.4632L2.9545 15.7752C3.04089 15.84 3.16089 15.8472 3.2545 15.7896C3.4801 15.6528 3.7345 15.5496 4.0105 15.4776C4.1161 15.4488 4.19529 15.3624 4.20969 15.2544L4.2793 14.7408H5.2393L5.3113 15.2544C5.3257 15.3624 5.4049 15.4488 5.5081 15.4776C5.7817 15.5496 6.0361 15.6528 6.26649 15.7896C6.3601 15.8448 6.47769 15.84 6.56409 15.7752L6.9817 15.4632L7.65849 16.1424L7.3513 16.5576C7.28649 16.644 7.2793 16.764 7.3369 16.8552C7.4713 17.0856 7.5769 17.34 7.6489 17.6136C7.6777 17.7168 7.76409 17.796 7.87209 17.8104L8.3833 17.8824V18.8424L7.87209 18.9144C7.76409 18.9288 7.6777 19.008 7.6489 19.1112C7.5769 19.3848 7.4713 19.6392 7.3369 19.8696C7.2793 19.9632 7.28649 20.0808 7.3513 20.1672L7.65849 20.5824L6.9817 21.2616L6.56409 20.9496C6.47769 20.8848 6.3601 20.8776 6.26649 20.9304C6.02649 21.072 5.76969 21.1752 5.5081 21.2448C5.4049 21.2736 5.3257 21.3576 5.3113 21.4656Z" fill="#212529"/>
<path d="M6.62178 18.36C6.62178 19.3872 5.78417 20.22 4.75697 20.22C3.73217 20.22 2.89697 19.3872 2.89697 18.36C2.89697 17.3328 3.73217 16.4976 4.75697 16.4976C5.78417 16.4976 6.62178 17.3328 6.62178 18.36Z" fill="#212529"/>
<path d="M11.7482 19.8624C11.7482 20.5368 11.1986 21.0888 10.5218 21.0888C9.84258 21.0888 9.29297 20.5392 9.29297 19.8624C9.29297 19.1832 9.84258 18.6336 10.5218 18.6336C11.1986 18.6336 11.7482 19.1856 11.7482 19.8624Z" fill="#212529"/>
<path d="M16.8551 19.8624C16.8551 20.5368 16.3079 21.0888 15.6311 21.0888C14.9519 21.0888 14.4023 20.5392 14.4023 19.8624C14.4023 19.1832 14.9471 18.6336 15.6263 18.6336C16.3055 18.6336 16.8551 19.1856 16.8551 19.8624Z" fill="#212529"/>
<path d="M21.9601 19.8624C21.9601 20.5368 21.4105 21.0888 20.7313 21.0888C20.0545 21.0888 19.5049 20.5392 19.5049 19.8624C19.5049 19.1832 20.0545 18.6336 20.7313 18.6336C21.4105 18.6336 21.9601 19.1856 21.9601 19.8624Z" fill="#212529"/>
<path d="M12.6143 4.04158C12.6143 4.66319 12.1079 5.17199 11.4839 5.17199C10.8575 5.17199 10.3511 4.66319 10.3511 4.04158C10.3511 3.41759 10.8575 2.91119 11.4839 2.91119C12.1079 2.91119 12.6143 3.41759 12.6143 4.04158Z" fill="#212529"/>
<path d="M17.1192 13.9368H15.9012C15.4251 13.9368 15.0381 14.3239 15.0381 14.7999C15.0381 15.2759 15.4251 15.663 15.9012 15.663H17.1192C17.5952 15.663 17.9822 15.2759 17.9822 14.7999C17.9822 14.3239 17.5952 13.9368 17.1192 13.9368ZM17.1192 15.1244H15.9012C15.7223 15.1244 15.5767 14.9788 15.5767 14.7999C15.5767 14.621 15.7223 14.4754 15.9012 14.4754H17.1192C17.2981 14.4754 17.4437 14.621 17.4437 14.7999C17.4437 14.9788 17.2981 15.1244 17.1192 15.1244Z" fill="#212529"/>
</svg>
