<svg width="24" height="24" viewBox="0 0 24 24" fill="none" xmlns="http://www.w3.org/2000/svg">
<g clip-path="url(#clip0_9325_33689)">
<path fill-rule="evenodd" clip-rule="evenodd" d="M13.3961 2.46152L20.8558 5.65864C20.8714 5.66353 20.8861 5.67036 20.9007 5.6772L21.6029 5.97796C21.7288 6.03167 21.8822 6.0346 22.0276 5.99456C22.1751 5.95452 22.3089 5.87347 22.3938 5.7602C22.4163 5.7309 22.4329 5.7016 22.4446 5.67426C22.47 5.61567 22.4749 5.55806 22.4622 5.51021C22.4495 5.46333 22.4192 5.41841 22.3714 5.38228C22.3479 5.3647 22.3216 5.34908 22.2923 5.33639L13.2506 1.46154L4.48625 5.32964C4.45793 5.34233 4.43352 5.356 4.41301 5.37065C4.36028 5.40873 4.3261 5.45854 4.31243 5.51029C4.29876 5.56302 4.30462 5.62454 4.33196 5.68704C4.34368 5.71341 4.35833 5.73977 4.37688 5.76419C4.45696 5.87356 4.58586 5.95363 4.72842 5.99172C4.87002 6.0298 5.01846 6.02785 5.1405 5.97316L13.1109 2.45581C13.2056 2.41382 13.3101 2.4187 13.3961 2.46069L13.3961 2.46152ZM8.37184 9.09025H18.3167V8.4936H8.37184V9.09025ZM8.37184 10.4798H18.3167V9.77188H8.37184V10.4798ZM12.3297 15.7746H9.58754V16.2082H12.3297V15.7746ZM9.74178 17.7794H10.2691C10.4576 17.7794 10.6099 17.9318 10.6099 18.1202C10.6099 18.3087 10.4576 18.461 10.2691 18.461H9.74178V18.6769H12.1763V16.8908H9.74178V17.0051H10.2691C10.4576 17.0051 10.6099 17.1574 10.6099 17.3459C10.6099 17.5343 10.4576 17.6867 10.2691 17.6867H9.74178V17.7794ZM14.1703 5.02994V6.61778H12.604V5.02994H14.1703ZM12.2632 4.34832H14.5112C14.6996 4.34832 14.852 4.50066 14.852 4.68913V6.95857C14.852 7.14704 14.6996 7.29938 14.5112 7.29938H12.2632C12.0747 7.29938 11.9224 7.14704 11.9224 6.95857V4.68913C11.9224 4.50066 12.0747 4.34832 12.2632 4.34832ZM8.57585 19.9327L7.89423 18.6622H6.84837V19.9327H8.57585ZM6.84937 17.9806V17.3224C6.84937 17.134 6.69703 16.9816 6.50856 16.9816H6.31716L6.36892 6.17832L13.2504 3.14145L20.4033 6.20782V19.175H18.9981V8.15599C18.9981 7.96752 18.8458 7.81518 18.6573 7.81518H8.03075C7.84228 7.81518 7.68994 7.96752 7.68994 8.15599V17.9818H6.84818L6.84937 17.9806ZM8.02607 21.879C7.97334 21.8184 7.90206 21.7813 7.82589 21.7813C7.74972 21.7813 7.67941 21.8184 7.6257 21.879C7.56125 21.9522 7.52219 22.0567 7.52219 22.1748C7.52219 22.293 7.56125 22.3975 7.6257 22.4707C7.67843 22.5313 7.74972 22.5684 7.82589 22.5684C7.90206 22.5684 7.97237 22.5313 8.02607 22.4707C8.09052 22.3985 8.12959 22.293 8.12959 22.1748C8.12959 22.0567 8.09052 21.9522 8.02607 21.879ZM7.82589 21.0997C7.5466 21.0997 7.29466 21.2266 7.11497 21.4317C7.01536 21.545 6.93919 21.6817 6.89232 21.834H6.84935V20.6153H8.80337V21.834H8.7604C8.71353 21.6817 8.63639 21.545 8.53776 21.4317C8.35808 21.2266 8.10613 21.0997 7.82684 21.0997H7.82589ZM3.30657 21.879C3.25384 21.8184 3.18256 21.7813 3.10639 21.7813C3.03022 21.7813 2.95991 21.8184 2.9062 21.879C2.84175 21.9522 2.80269 22.0567 2.80269 22.1748C2.80269 22.293 2.84175 22.3975 2.9062 22.4707C2.95893 22.5313 3.03022 22.5684 3.10639 22.5684C3.18256 22.5684 3.25287 22.5313 3.30657 22.4707C3.37102 22.3975 3.41008 22.293 3.41008 22.1748C3.41008 22.0567 3.37102 21.9522 3.30657 21.879ZM4.04092 22.5157C3.99404 22.668 3.9169 22.8047 3.81827 22.918C3.63859 23.1231 3.38664 23.25 3.10735 23.25C2.82709 23.25 2.57612 23.1231 2.39643 22.918C2.29682 22.8047 2.22065 22.668 2.17378 22.5157H1.1914C1.00293 22.5157 0.850586 22.3633 0.850586 22.1748V17.3235C0.850586 17.1351 1.00292 16.9827 1.1914 16.9827H5.63846L5.68827 6.47916L5.41583 6.59927C5.14632 6.71841 4.83578 6.72915 4.55064 6.65201C4.26745 6.57486 4.00379 6.40788 3.82802 6.16863C3.77919 6.10125 3.73916 6.03289 3.70888 5.96356C3.61807 5.75751 3.60244 5.54072 3.65518 5.33956C3.70791 5.13839 3.829 4.95775 4.01161 4.82395C4.07313 4.77903 4.14051 4.73997 4.21278 4.70775L13.1109 0.779158C13.2056 0.737167 13.3101 0.74205 13.396 0.784041L22.5587 4.71163C22.6417 4.74776 22.7159 4.79073 22.7813 4.83956C22.9542 4.97041 23.0694 5.14522 23.1202 5.34051C23.17 5.53386 23.1553 5.74187 23.0704 5.94203C23.0362 6.02113 22.9923 6.09828 22.9366 6.17152C22.7589 6.40686 22.4923 6.57288 22.2052 6.65197C21.9171 6.7301 21.6046 6.72131 21.3351 6.60608L21.0841 6.49866V19.5136C21.0841 19.7021 20.9318 19.8544 20.7433 19.8544H18.6565C18.468 19.8544 18.3157 19.7021 18.3157 19.5136V11.1625H8.37082V18.1192C8.38644 18.1407 8.39913 18.1631 8.4089 18.1866L9.42643 20.0849C9.46159 20.1386 9.48209 20.2031 9.48209 20.2724V22.1728C9.48209 22.3612 9.32976 22.5136 9.14128 22.5136H8.7575C8.71063 22.6659 8.63348 22.8026 8.53485 22.9159C8.35517 23.121 8.10322 23.2479 7.82393 23.2479C7.54367 23.2479 7.2927 23.121 7.11301 22.9159C7.01341 22.8026 6.93724 22.6659 6.89037 22.5136H4.03998L4.04092 22.5157ZM6.16681 20.8224V21.8341H4.04092C3.99404 21.6817 3.9169 21.545 3.81827 21.4317C3.63859 21.2267 3.38664 21.0997 3.10735 21.0997C2.82709 21.0997 2.57612 21.2267 2.39643 21.4317C2.29682 21.545 2.22065 21.6817 2.17378 21.8341H1.53221V20.8224H6.16777H6.16681ZM1.53125 20.1408H6.16681V17.6643L1.53125 17.6633V20.1408ZM16.8704 15.7024H14.1282V16.2102H16.8704V15.7024ZM14.2825 17.7814H14.8098C14.9983 17.7814 15.1506 17.9338 15.1506 18.1223C15.1506 18.3107 14.9983 18.4631 14.8098 18.4631H14.2825V18.6789H16.7169V16.8928H14.2825V17.0071H14.8098C14.9983 17.0071 15.1506 17.1594 15.1506 17.3479C15.1506 17.5364 14.9983 17.6887 14.8098 17.6887H14.2825V17.7814ZM14.3479 12.9809H11.6058V13.3334H14.3479V12.9809ZM11.76 14.1293V14.015H14.1945V15.0209H13.7873C13.5988 15.0209 13.4465 15.1732 13.4465 15.3617V15.8021H13.0119V15.4359C13.0119 15.2474 12.8596 15.0951 12.6711 15.0951H11.76V14.8119H12.2873C12.4758 14.8119 12.6281 14.6595 12.6281 14.4711C12.6281 14.2826 12.4758 14.1303 12.2873 14.1303H11.76V14.1293ZM11.0784 14.4701V14.4691V13.9584C10.9856 13.8979 10.9251 13.7924 10.9251 13.6733V12.6391C10.9251 12.4507 11.0774 12.2983 11.2659 12.2983H14.6895C14.878 12.2983 15.0303 12.4507 15.0303 12.6391V13.6733C15.0303 13.7924 14.9698 13.8969 14.877 13.9584V15.0199H17.2118C17.4003 15.0199 17.5527 15.1722 17.5527 15.3607V16.5501C17.5527 16.6692 17.4921 16.7737 17.3993 16.8352V19.0187C17.3993 19.2072 17.247 19.3596 17.0585 19.3596H13.9414C13.7529 19.3596 13.6006 19.2072 13.6006 19.0187V16.8352C13.5078 16.7747 13.4473 16.6692 13.4473 16.5501V16.4827H13.0127V16.5501C13.0127 16.6692 12.9522 16.7737 12.8594 16.8352V19.0187C12.8594 19.2072 12.7071 19.3596 12.5186 19.3596H9.40148C9.21301 19.3596 9.06067 19.2072 9.06067 19.0187V16.8352C8.9679 16.7747 8.90735 16.6692 8.90735 16.5501V15.4339C8.90735 15.2455 9.05969 15.0931 9.24816 15.0931H11.0782L11.0784 14.4701Z" fill="#212529"/>
</g>
<defs>
<clipPath id="clip0_9325_33689">
<rect width="24" height="24" fill="white"/>
</clipPath>
</defs>
</svg>
