<svg width="24" height="24" viewBox="0 0 24 24" fill="none" xmlns="http://www.w3.org/2000/svg">
<path fill-rule="evenodd" clip-rule="evenodd" d="M3.15517 7.41977L3.14881 7.42536C3.10536 7.45391 3.06817 7.4924 3.04334 7.53709V7.54019C3.01851 7.58239 3.00621 7.63081 3 7.68046V7.68977V16.3112C3 16.4223 3.06207 16.5247 3.15517 16.5799L10.7398 20.9583L10.7523 20.9632C10.8019 20.9887 10.8517 21.0005 10.9014 20.9998H10.9074C10.9509 20.9986 11.0007 20.9862 11.0441 20.962L11.0565 20.9576L14.166 19.1589C14.315 19.0732 14.3708 18.8833 14.2839 18.7349C14.197 18.5866 14.0047 18.5357 13.8557 18.6214L11.2053 20.152V12.2463L18.1696 8.22605V11.9998C18.1696 12.1712 18.3062 12.3102 18.48 12.3102C18.6538 12.3102 18.7903 12.1712 18.7903 11.9998V7.71771C18.8027 7.6004 18.7469 7.48246 18.6351 7.41977L11.0502 3.04143C10.9571 2.98619 10.8391 2.98619 10.7398 3.04143L3.15517 7.41977ZM5.93585 9.56115L3.62069 8.22605V16.1318L10.5847 20.152V12.2463L8.26344 10.9056V13.3573C8.26344 13.4684 8.20757 13.5708 8.10826 13.626C8.01516 13.6819 7.89723 13.6819 7.79792 13.626L6.09102 12.6398C5.99792 12.5845 5.93585 12.4821 5.93585 12.371V9.56115ZM18.5172 13.1872C18.4862 13.0749 18.3991 12.988 18.2811 12.9619C17.7722 12.8452 17.2384 12.8452 16.7294 12.9619C16.6115 12.988 16.5247 13.0749 16.4936 13.1872L16.4006 13.5627C16.2578 13.6167 16.1275 13.6813 15.9972 13.7558L15.6432 13.5969C15.5377 13.5497 15.4137 13.5652 15.3268 13.6378C14.9109 13.9656 14.5821 14.3814 14.3524 14.855C14.3028 14.9593 14.3151 15.0834 14.3834 15.1759L14.6191 15.4856C14.5757 15.6272 14.5384 15.7724 14.5197 15.9195L14.1724 16.097C14.0731 16.1504 14.0048 16.2565 14.0048 16.3726C14.0048 16.8983 14.1228 17.4172 14.3524 17.8908C14.4021 17.9951 14.5076 18.0627 14.6255 18.0658L15.0101 18.077C15.097 18.1993 15.1902 18.3154 15.2895 18.4246L15.215 18.8045C15.1902 18.9187 15.2337 19.0354 15.3268 19.108C15.7365 19.4357 16.2143 19.6666 16.7294 19.7833C16.8411 19.8094 16.9592 19.7696 17.0337 19.6809L17.2819 19.3848C17.4309 19.3954 17.58 19.3954 17.729 19.3848L17.9772 19.6809C18.0517 19.7696 18.1694 19.8094 18.2811 19.7833C18.7963 19.6666 19.2744 19.4357 19.6841 19.108C19.7772 19.0354 19.8204 18.9187 19.7956 18.8045L19.7213 18.4246C19.8207 18.3154 19.9136 18.1993 20.0005 18.0764L20.3854 18.0658C20.5033 18.0627 20.6088 17.9951 20.6584 17.8908C20.8819 17.4172 21 16.8983 21 16.3726C21 16.2565 20.9379 16.1504 20.8324 16.097L20.4908 15.9189C20.466 15.7724 20.4352 15.6278 20.3917 15.4856L20.6275 15.1759C20.6958 15.0834 20.7081 14.9593 20.6584 14.855C20.4288 14.3814 20.0937 13.9656 19.6841 13.6378C19.5972 13.5652 19.4729 13.5497 19.3674 13.5969L19.0137 13.7552C18.8833 13.6813 18.7468 13.6167 18.6103 13.5627L18.5172 13.1872ZM17.9647 13.5317L18.0517 13.8762C18.0766 13.9786 18.1508 14.0605 18.2563 14.0934C18.4549 14.1592 18.6412 14.2505 18.8212 14.3653C18.9081 14.423 19.02 14.4323 19.1131 14.3889L19.4419 14.2436C19.6654 14.4503 19.8577 14.6918 20.0129 14.9593L19.7956 15.2436C19.7335 15.328 19.715 15.4391 19.7523 15.5378C19.8267 15.7345 19.8764 15.94 19.895 16.1485C19.9012 16.254 19.9633 16.3472 20.0626 16.3956L20.3729 16.5588C20.3543 16.8654 20.2862 17.1665 20.1744 17.4507L19.8144 17.4613C19.7089 17.4638 19.6157 17.5203 19.5598 17.6109C19.4543 17.7909 19.3178 17.9554 19.1688 18.1006C19.0944 18.1738 19.057 18.2812 19.0819 18.3849L19.1504 18.7337C18.8959 18.9094 18.6165 19.0434 18.3248 19.1309L18.0951 18.8591C18.0268 18.7784 17.9211 18.738 17.8156 18.7517C17.6108 18.779 17.3999 18.779 17.1889 18.7517C17.0896 18.738 16.9841 18.7784 16.9158 18.8591L16.6861 19.1309C16.3882 19.0434 16.1088 18.9094 15.8605 18.7337L15.9287 18.3849C15.9473 18.2812 15.9165 18.1738 15.842 18.1006C15.6869 17.9554 15.5563 17.7909 15.4508 17.6109C15.3949 17.5203 15.2956 17.4638 15.1901 17.4613L14.8364 17.4514C14.7247 17.1665 14.6502 16.8654 14.6316 16.5588L14.9483 16.3956C15.0414 16.3472 15.1035 16.254 15.1159 16.1485C15.1345 15.94 15.184 15.7345 15.2523 15.5378C15.2895 15.4391 15.2772 15.328 15.2089 15.2436L14.9977 14.9593C15.1466 14.6918 15.3393 14.4503 15.569 14.2436L15.8917 14.3889C15.991 14.4323 16.1028 14.423 16.1897 14.3653C16.3634 14.2505 16.5557 14.1592 16.7543 14.0934C16.8536 14.0605 16.9343 13.9786 16.9592 13.8762L17.0461 13.5317C17.3503 13.4827 17.6606 13.4827 17.9647 13.5317ZM17.5053 14.7234C16.5929 14.7234 15.8545 15.4627 15.8545 16.3726C15.8545 17.2832 16.5929 18.0218 17.5053 18.0218C18.4115 18.0218 19.1564 17.2832 19.1564 16.3726C19.1564 15.4627 18.4115 14.7234 17.5053 14.7234ZM17.5053 15.3441C18.0701 15.3441 18.5357 15.8053 18.5357 16.3726C18.5357 16.9405 18.0701 17.4011 17.5053 17.4011C16.9343 17.4011 16.4751 16.9405 16.4751 16.3726C16.4751 15.8053 16.9343 15.3441 17.5053 15.3441ZM6.55654 9.91929V12.1923L7.64275 12.8198V10.5474L6.55654 9.91929ZM8.56135 10.3606L10.895 11.7087L17.8593 7.68791L15.5253 6.3404L8.56135 10.3606ZM6.85446 9.37433L7.94067 10.0025L14.9046 5.98226L13.8184 5.35412L6.85446 9.37433ZM3.93103 7.68853L6.23377 9.01619L13.1977 4.99598L10.895 3.66833L3.93103 7.68853Z" fill="black"/>
</svg>
