<svg width="24" height="24" viewBox="0 0 24 24" fill="none" xmlns="http://www.w3.org/2000/svg">
<path d="M9.93743 9.00004H4.31245C3.58873 9.00004 3 8.41131 3 7.68745V4.31245C3 3.58873 3.58873 3 4.31245 3H9.93743C10.6613 3 11.25 3.58873 11.25 4.31245V7.68745C11.25 8.41131 10.6613 9.00004 9.93743 9.00004ZM4.31245 4.125C4.20904 4.125 4.125 4.20904 4.125 4.31245V7.68745C4.125 7.79099 4.20904 7.87504 4.31245 7.87504H9.93743C10.041 7.87504 10.125 7.79099 10.125 7.68745V4.31245C10.125 4.20904 10.041 4.125 9.93743 4.125H4.31245Z" fill="#333333"/>
<path d="M9.93743 21H4.31245C3.58873 21 3 20.4113 3 19.6875V11.8126C3 11.0887 3.58873 10.5 4.31245 10.5H9.93743C10.6613 10.5 11.25 11.0887 11.25 11.8126V19.6875C11.25 20.4113 10.6613 21 9.93743 21ZM4.31245 11.625C4.20904 11.625 4.125 11.709 4.125 11.8126V19.6875C4.125 19.791 4.20904 19.875 4.31245 19.875H9.93743C10.041 19.875 10.125 19.791 10.125 19.6875V11.8126C10.125 11.709 10.041 11.625 9.93743 11.625H4.31245Z" fill="#333333"/>
<path d="M19.6881 21H14.0631C13.3392 21 12.7505 20.4112 12.7505 19.6875V16.3125C12.7505 15.5887 13.3392 14.9999 14.0631 14.9999H19.6881C20.4118 14.9999 21.0005 15.5887 21.0005 16.3125V19.6875C21.0005 20.4112 20.4118 21 19.6881 21ZM14.0631 16.1249C13.9595 16.1249 13.8755 16.209 13.8755 16.3125V19.6875C13.8755 19.7909 13.9595 19.875 14.0631 19.875H19.6881C19.7915 19.875 19.8755 19.7909 19.8755 19.6875V16.3125C19.8755 16.209 19.7915 16.1249 19.6881 16.1249H14.0631Z" fill="#333333"/>
<path d="M19.6866 13.5H14.0616C13.3378 13.5 12.749 12.9113 12.749 12.1874V4.31245C12.749 3.58873 13.3378 3 14.0616 3H19.6866C20.4103 3 20.999 3.58873 20.999 4.31245V12.1874C20.999 12.9113 20.4103 13.5 19.6866 13.5ZM14.0616 4.125C13.9581 4.125 13.874 4.20904 13.874 4.31245V12.1874C13.874 12.291 13.9581 12.375 14.0616 12.375H19.6866C19.79 12.375 19.874 12.291 19.874 12.1874V4.31245C19.874 4.20904 19.79 4.125 19.6866 4.125H14.0616Z" fill="#333333"/>
</svg>
