<svg width="24" height="24" viewBox="0 0 24 24" fill="none" xmlns="http://www.w3.org/2000/svg">
<path d="M22.6172 17.9808C22.2716 17.6352 21.8564 17.4024 21.4004 17.2824C21.5012 17.1288 21.5612 16.9416 21.5612 16.7448V12.5088C21.5612 11.9616 21.1196 11.52 20.5748 11.52H15.0812C14.534 11.52 14.0924 11.9616 14.0924 12.5088V16.7424C14.0924 16.9056 14.1356 17.0568 14.2076 17.1936H13.6412V15.5928C13.6412 15.444 13.5188 15.324 13.37 15.324H12.7724V6.24959C12.7724 6.24959 12.7748 6.24959 12.7748 6.24719L15.0668 7.4568C14.9516 7.77599 15.0764 8.1408 15.3812 8.3208L16.5428 8.99039L17.6828 10.7088C17.7332 10.7856 17.8196 10.8288 17.9108 10.8288C17.9276 10.8288 17.9444 10.8288 17.9636 10.8216L20.5052 10.3008C20.6204 10.2792 20.7068 10.1808 20.7164 10.0656L20.8076 9.2664C20.8148 9.18959 20.7932 9.11039 20.738 9.05279C20.6852 8.9976 20.6036 8.96159 20.534 8.96399L18.7364 8.99279L17.6828 7.68479L18.2612 6.6912L19.9268 6.9744L20.7956 8.57039C20.8316 8.6376 20.8964 8.688 20.9732 8.7024C20.99 8.70479 21.0116 8.70959 21.0332 8.70959C21.0908 8.70959 21.1436 8.69039 21.1916 8.65919L21.8492 8.18159C21.9428 8.1144 21.9812 7.992 21.9452 7.87919L21.1364 5.388C21.1052 5.28479 21.0116 5.21279 20.9012 5.2008L18.8324 5.04959L17.6684 4.38C17.3276 4.1808 16.8908 4.29599 16.6892 4.6368L13.862 3.1056C13.49 2.15279 12.5636 1.47839 11.4836 1.47839C10.0724 1.47839 8.92281 2.628 8.92281 4.04159C8.92281 4.9824 9.43641 5.8056 10.1924 6.24959V15.324H9.5948C9.44601 15.324 9.3236 15.444 9.3236 15.5928V17.46C9.3236 17.6064 9.44601 17.7288 9.5948 17.7288L20.7308 17.7312C21.2948 17.7312 21.83 17.9544 22.2332 18.3576C22.6316 18.7512 22.8548 19.2864 22.8548 19.8576C22.8548 21.0288 21.902 21.984 20.7308 21.984H5.78122L5.81961 21.7176C6.01401 21.6576 6.20122 21.5784 6.3836 21.4848L6.84682 21.828C6.9548 21.9072 7.10601 21.8976 7.19961 21.804L8.20761 20.796C8.30122 20.7024 8.31321 20.5512 8.23401 20.4432L7.88841 19.98C7.98201 19.8048 8.05641 19.6128 8.12122 19.416L8.6924 19.3344C8.82441 19.3152 8.92281 19.2 8.92281 19.068V17.6424C8.92281 17.5104 8.82441 17.3952 8.6924 17.376L8.12122 17.2944C8.06122 17.0976 7.98201 16.9104 7.88841 16.7304L8.23401 16.2672C8.31321 16.1592 8.30122 16.008 8.20761 15.9144L7.19961 14.9064C7.10601 14.8128 6.9548 14.8032 6.84682 14.8824L6.3836 15.2256C6.2036 15.132 6.01881 15.0528 5.81961 14.9928L5.738 14.4216C5.71881 14.2896 5.60601 14.1912 5.47161 14.1912H4.04601C3.91401 14.1912 3.79881 14.2896 3.78201 14.4216L3.698 14.9928C3.50122 15.0528 3.31401 15.132 3.13401 15.2256L2.67081 14.8824C2.56281 14.8032 2.41401 14.8128 2.32041 14.9064L1.31001 15.9144C1.21641 16.008 1.20682 16.1592 1.28601 16.2672L1.6292 16.7304C1.53562 16.9128 1.45881 17.1 1.39641 17.2944L0.830015 17.3808C0.695615 17.3976 0.599609 17.5128 0.599609 17.6472V19.0704C0.599609 19.2048 0.695615 19.32 0.830015 19.3368L1.40122 19.4208C1.46122 19.6128 1.54041 19.8 1.63401 19.9824L1.28841 20.4456C1.2092 20.5536 1.22122 20.7048 1.3148 20.7984L2.32281 21.8064C2.41641 21.9 2.56761 21.912 2.67562 21.8328L3.13881 21.4872C3.31881 21.5808 3.50841 21.66 3.70281 21.7224L3.78441 22.2912C3.80122 22.4256 3.91641 22.5216 4.05081 22.5216H20.738C22.2068 22.5216 23.3996 21.3264 23.3996 19.8576C23.3972 19.1424 23.1188 18.4752 22.6172 17.9808ZM18.9068 5.5968L20.6804 5.7264L21.374 7.8576L21.122 8.0424L20.3372 6.6024C20.2964 6.53039 20.2244 6.48 20.1428 6.4656L18.5564 6.19919L18.9068 5.5968ZM17.4044 8.19839L18.4004 9.44159C18.4556 9.5064 18.5372 9.54959 18.6164 9.5424L20.2388 9.51599L20.2052 9.81839L18.0308 10.2648L17.0588 8.79839L17.4044 8.19839ZM14.0348 3.8088L16.4204 5.10479L15.3284 6.9888L13.2524 5.88959C13.742 5.42399 14.0468 4.7712 14.0468 4.04159C14.0468 3.9624 14.042 3.8832 14.0348 3.8088ZM9.46521 4.04159C9.46521 2.9256 10.37 2.01599 11.486 2.01599C12.602 2.01599 13.5068 2.9256 13.5068 4.04159C13.5068 5.1552 12.602 6.0624 11.486 6.0624C10.37 6.0624 9.46521 5.1552 9.46521 4.04159ZM12.2324 6.48959V15.324H10.7348V6.48959C10.9724 6.56159 11.2244 6.6024 11.486 6.6024C11.7452 6.6024 11.9972 6.56159 12.2324 6.48959ZM13.1012 17.1912H9.86601V15.8616H13.1012V17.1912ZM17.0324 12.06H18.6212V12.9432L17.9132 12.7008C17.8844 12.6912 17.8556 12.6864 17.8268 12.6864C17.798 12.6864 17.7692 12.6912 17.7404 12.7008L17.0324 12.9432V12.06ZM21.0236 16.7424C21.0236 16.9896 20.822 17.1912 20.5748 17.1912H15.0812C14.8316 17.1912 14.6324 16.9896 14.6324 16.7424V12.5088C14.6324 12.2592 14.8316 12.06 15.0812 12.06H16.4948V13.32C16.4948 13.4064 16.538 13.488 16.6052 13.5384C16.6748 13.5888 16.7684 13.6032 16.85 13.5744L17.8268 13.2432L18.8036 13.5744C18.8324 13.5864 18.8612 13.5888 18.89 13.5888C18.9476 13.5888 19.0004 13.572 19.0484 13.5384C19.1204 13.488 19.1588 13.4064 19.1588 13.32V12.06H20.5748C20.822 12.06 21.0236 12.2592 21.0236 12.5088V16.7424ZM5.31081 21.4656L5.23881 21.9792H4.27881L4.2092 21.4704C4.1948 21.3624 4.11562 21.276 4.01001 21.2472C3.74601 21.18 3.48682 21.072 3.2492 20.9352C3.15562 20.8824 3.038 20.8896 2.95161 20.952L2.53401 21.2664L1.85721 20.5824L2.16441 20.1672C2.2292 20.0808 2.23641 19.9632 2.1836 19.8696C2.04682 19.632 1.9436 19.3776 1.87161 19.1112C1.84281 19.008 1.75641 18.9288 1.64841 18.9144L1.1348 18.8424V17.8824L1.64841 17.8104C1.75641 17.796 1.84281 17.7168 1.87161 17.6136C1.93881 17.352 2.04682 17.0928 2.18601 16.8552C2.24122 16.764 2.23401 16.644 2.1692 16.5576L1.85961 16.1424L2.53881 15.4632L2.95401 15.7752C3.04041 15.84 3.16041 15.8472 3.25401 15.7896C3.47961 15.6528 3.73401 15.5496 4.01001 15.4776C4.11562 15.4488 4.1948 15.3624 4.2092 15.2544L4.27881 14.7408H5.23881L5.31081 15.2544C5.32521 15.3624 5.40441 15.4488 5.50761 15.4776C5.78122 15.5496 6.03561 15.6528 6.26601 15.7896C6.35961 15.8448 6.47721 15.84 6.5636 15.7752L6.98122 15.4632L7.658 16.1424L7.35081 16.5576C7.28601 16.644 7.27881 16.764 7.33641 16.8552C7.47081 17.0856 7.57641 17.34 7.64841 17.6136C7.67721 17.7168 7.7636 17.796 7.87161 17.8104L8.38281 17.8824V18.8424L7.87161 18.9144C7.7636 18.9288 7.67721 19.008 7.64841 19.1112C7.57641 19.3848 7.47081 19.6392 7.33641 19.8696C7.27881 19.9632 7.28601 20.0808 7.35081 20.1672L7.658 20.5824L6.98122 21.2616L6.5636 20.9496C6.47721 20.8848 6.35961 20.8776 6.26601 20.9304C6.02601 21.072 5.7692 21.1752 5.50761 21.2448C5.40441 21.2736 5.32521 21.3576 5.31081 21.4656Z" fill="#212529"/>
<path d="M6.62129 18.36C6.62129 19.3872 5.78368 20.22 4.75648 20.22C3.73168 20.22 2.89648 19.3872 2.89648 18.36C2.89648 17.3328 3.73168 16.4976 4.75648 16.4976C5.78368 16.4976 6.62129 17.3328 6.62129 18.36Z" fill="#212529"/>
<path d="M11.7482 19.8624C11.7482 20.5368 11.1986 21.0888 10.5218 21.0888C9.84258 21.0888 9.29297 20.5392 9.29297 19.8624C9.29297 19.1832 9.84258 18.6336 10.5218 18.6336C11.1986 18.6336 11.7482 19.1856 11.7482 19.8624Z" fill="#212529"/>
<path d="M16.8551 19.8624C16.8551 20.5368 16.3079 21.0888 15.6311 21.0888C14.9519 21.0888 14.4023 20.5392 14.4023 19.8624C14.4023 19.1832 14.9471 18.6336 15.6263 18.6336C16.3055 18.6336 16.8551 19.1856 16.8551 19.8624Z" fill="#212529"/>
<path d="M21.9601 19.8624C21.9601 20.5368 21.4105 21.0888 20.7313 21.0888C20.0545 21.0888 19.5049 20.5392 19.5049 19.8624C19.5049 19.1832 20.0545 18.6336 20.7313 18.6336C21.4105 18.6336 21.9601 19.1856 21.9601 19.8624Z" fill="#212529"/>
<path d="M12.6148 4.04158C12.6148 4.66319 12.1084 5.17199 11.4844 5.17199C10.858 5.17199 10.3516 4.66319 10.3516 4.04158C10.3516 3.41759 10.858 2.91119 11.4844 2.91119C12.1084 2.91119 12.6148 3.41759 12.6148 4.04158Z" fill="#212529"/>
<path d="M17.1192 13.9368H15.9012C15.4251 13.9368 15.0381 14.3239 15.0381 14.7999C15.0381 15.2759 15.4251 15.663 15.9012 15.663H17.1192C17.5952 15.663 17.9822 15.2759 17.9822 14.7999C17.9822 14.3239 17.5952 13.9368 17.1192 13.9368ZM17.1192 15.1244H15.9012C15.7223 15.1244 15.5767 14.9788 15.5767 14.7999C15.5767 14.621 15.7223 14.4754 15.9012 14.4754H17.1192C17.2981 14.4754 17.4437 14.621 17.4437 14.7999C17.4437 14.9788 17.2981 15.1244 17.1192 15.1244Z" fill="#212529"/>
</svg>
