<svg width="24" height="24" viewBox="0 0 24 24" fill="none" xmlns="http://www.w3.org/2000/svg">
<path d="M17.4452 17.3046C17.2683 17.3046 17.1238 17.4482 17.1238 17.626V20.226C17.1238 20.7568 16.6923 21.1892 16.1606 21.1892L6.21021 21.1883C5.67937 21.1883 5.24695 20.7568 5.24695 20.2251H14.5553C15.44 20.2251 16.1604 19.5047 16.1604 18.62V16.6808C16.1604 16.503 16.0169 16.3595 15.839 16.3595C15.6621 16.3595 15.5176 16.503 15.5176 16.6808V18.62C15.5176 19.1508 15.0861 19.5832 14.5544 19.5832L4.60495 19.5841C4.07412 19.5841 3.64169 19.1526 3.64169 18.6209L3.6426 3.85515C3.6426 3.32432 4.07412 2.8919 4.60585 2.8919H14.5562C15.087 2.8919 15.5195 3.32342 15.5195 3.85515V9.16243C15.5195 9.34028 15.663 9.48381 15.8408 9.48381C16.0178 9.48381 16.1622 9.34027 16.1622 9.16243V4.49694C16.6931 4.49694 17.1255 4.92847 17.1255 5.4602V8.20911C17.1255 8.38696 17.269 8.53049 17.4469 8.53049C17.6238 8.53049 17.7682 8.38695 17.7682 8.20911V5.4602C17.7682 4.57549 17.0478 3.85508 16.1631 3.85508C16.1631 2.97038 15.4427 2.24997 14.558 2.24997L4.60511 2.25087C3.72041 2.25087 3 2.97128 3 3.85599V18.6217C3 19.5064 3.72041 20.2268 4.60511 20.2268C4.60511 21.1115 5.32553 21.8319 6.21023 21.8319H16.1606C17.0453 21.8319 17.7657 21.1115 17.7657 20.2268V17.6269C17.7657 17.449 17.6222 17.3055 17.4443 17.3055L17.4452 17.3046Z" fill="black"/>
<path d="M10.6539 12.1688H7.90954H5.16513C4.98819 12.1688 4.84375 12.3123 4.84375 12.4901C4.84375 12.668 4.98729 12.8115 5.16513 12.8115H10.6539C10.8309 12.8115 10.9753 12.668 10.9753 12.4901C10.9753 12.3123 10.8318 12.1688 10.6539 12.1688Z" fill="black"/>
<path d="M12.5633 14.3246C12.5633 14.1467 12.4197 14.0032 12.2419 14.0032L5.16513 14.0041C4.98819 14.0041 4.84375 14.1476 4.84375 14.3255C4.84375 14.5033 4.98729 14.6468 5.16513 14.6468H12.2428C12.4198 14.6468 12.5642 14.5033 12.5642 14.3255L12.5633 14.3246Z" fill="black"/>
<path d="M13.9833 16.1599C13.9833 15.982 13.8398 15.8385 13.6619 15.8385L5.16513 15.8394C4.98819 15.8394 4.84375 15.9829 4.84375 16.1608C4.84375 16.3386 4.98729 16.4822 5.16513 16.4822H13.6629C13.8398 16.4822 13.9842 16.3386 13.9842 16.1608L13.9833 16.1599Z" fill="black"/>
<path d="M14.088 17.6739H5.16513C4.98819 17.6739 4.84375 17.8174 4.84375 17.9952C4.84375 18.1731 4.98729 18.3166 5.16513 18.3166H14.088C14.2649 18.3166 14.4094 18.1731 14.4094 17.9952C14.4094 17.8174 14.2658 17.6739 14.088 17.6739Z" fill="black"/>
<path d="M12.5928 9.03787C12.3975 9.03787 12.2561 8.89127 12.1325 8.76107C12.0675 8.69475 11.9955 8.61668 11.9439 8.60027C11.8877 8.58142 11.7823 8.59783 11.688 8.61203C11.5173 8.63798 11.3266 8.66881 11.1738 8.55281C11.0189 8.43459 10.9875 8.23099 10.9606 8.05134C10.9448 7.95441 10.9292 7.84551 10.8955 7.79583C10.8619 7.74859 10.7699 7.69891 10.6891 7.65388C10.5341 7.57116 10.359 7.47401 10.3007 7.28238C10.2424 7.09541 10.33 6.91332 10.4062 6.75473C10.451 6.66003 10.4982 6.5631 10.4982 6.49679C10.4982 6.43047 10.451 6.33355 10.4062 6.23884C10.3298 6.07804 10.2445 5.89573 10.3007 5.70898C10.3613 5.51491 10.5341 5.42043 10.6891 5.33748C10.7699 5.29245 10.8642 5.24277 10.8955 5.19553C10.9292 5.14585 10.9471 5.03694 10.9606 4.94002C10.9875 4.76015 11.0212 4.55677 11.1738 4.43855C11.3264 4.32034 11.5196 4.35094 11.688 4.37933C11.78 4.39353 11.8856 4.41016 11.9439 4.39109C11.9955 4.37445 12.0675 4.29638 12.1325 4.23029C12.2561 4.10009 12.3975 3.95349 12.5928 3.95349C12.7881 3.95349 12.9296 4.10009 13.0531 4.23029C13.1182 4.29661 13.1902 4.37468 13.2417 4.39109C13.2979 4.40994 13.4034 4.39109 13.4977 4.37933C13.6684 4.35338 13.859 4.32255 14.0119 4.43855C14.1668 4.55677 14.1981 4.76037 14.2251 4.94002C14.2409 5.03694 14.2564 5.14585 14.2901 5.19553C14.3238 5.24277 14.4158 5.29245 14.4966 5.33748C14.6515 5.4202 14.8266 5.51735 14.8849 5.70898C14.9432 5.89595 14.8556 6.07804 14.7795 6.23663C14.7346 6.33133 14.6875 6.42826 14.6875 6.49457C14.6875 6.56089 14.7346 6.65781 14.7795 6.75252C14.8559 6.91332 14.9411 7.09563 14.8849 7.28238C14.8243 7.47645 14.6515 7.57093 14.4966 7.65388C14.4158 7.69891 14.3215 7.74859 14.2901 7.79583C14.2564 7.84551 14.2385 7.95441 14.2251 8.05134C14.1981 8.23121 14.1644 8.43459 14.0119 8.55281C13.8593 8.67102 13.666 8.64042 13.4977 8.61203C13.4057 8.59783 13.3 8.5812 13.2417 8.60027C13.1902 8.61691 13.1182 8.69498 13.0531 8.76107C12.9296 8.89127 12.7881 9.03787 12.5928 9.03787ZM11.8745 8.23587C11.9328 8.23587 11.9913 8.24296 12.0473 8.26182C12.1752 8.3044 12.2739 8.40842 12.3682 8.50778C12.4423 8.58585 12.5343 8.68278 12.5928 8.68278C12.6511 8.68278 12.7433 8.58585 12.8174 8.50778C12.914 8.40842 13.0127 8.3044 13.1384 8.26182C13.2708 8.21679 13.4122 8.23808 13.5469 8.26182C13.6479 8.27845 13.7715 8.2973 13.814 8.26647C13.8567 8.23343 13.8769 8.10079 13.8948 7.99433C13.9173 7.85239 13.9397 7.70334 14.0205 7.58734C14.1013 7.47134 14.2249 7.40281 14.3461 7.33893C14.4381 7.28925 14.5526 7.22782 14.5683 7.17325C14.5841 7.12357 14.5256 7.00292 14.4831 6.91309C14.4248 6.78778 14.3575 6.64583 14.3575 6.49679C14.3575 6.34774 14.4248 6.2058 14.4831 6.08049C14.5258 5.99066 14.5841 5.87001 14.5683 5.82033C14.5526 5.76599 14.4381 5.70433 14.3461 5.65243C14.2249 5.58611 14.1013 5.52002 14.0205 5.40402C13.9397 5.28802 13.9171 5.13898 13.8948 4.99703C13.879 4.89057 13.8567 4.75816 13.814 4.72489C13.7736 4.69406 13.6479 4.71313 13.5469 4.72955C13.4099 4.75084 13.2708 4.77457 13.1384 4.72955C13.0104 4.68696 12.9117 4.58294 12.8174 4.48358C12.7433 4.40551 12.6513 4.30859 12.5928 4.30859C12.5345 4.30859 12.4423 4.40551 12.3682 4.48358C12.2716 4.58294 12.1729 4.68696 12.0473 4.72955C11.9149 4.77457 11.7755 4.75328 11.6387 4.72955C11.5377 4.71291 11.4141 4.69406 11.3716 4.72489C11.3289 4.75794 11.3087 4.89057 11.2908 4.99703C11.2683 5.13898 11.246 5.28802 11.1652 5.40402C11.0843 5.52002 10.9608 5.58855 10.8396 5.65243C10.7476 5.70211 10.6331 5.76355 10.6173 5.81811C10.6015 5.86779 10.66 5.98845 10.7025 6.07827C10.7608 6.20358 10.8282 6.34553 10.8282 6.49457C10.8282 6.64362 10.7608 6.78557 10.7025 6.91088C10.6598 7.0007 10.6015 7.12136 10.6173 7.17104C10.6331 7.22538 10.7476 7.28704 10.8396 7.33893C10.9608 7.40525 11.0843 7.47134 11.1652 7.58734C11.246 7.70334 11.2685 7.85239 11.2908 7.99433C11.3066 8.10079 11.3289 8.2332 11.3716 8.26647C11.412 8.2973 11.5377 8.27823 11.6387 8.26182C11.7172 8.25006 11.796 8.23587 11.8745 8.23587ZM13.8614 6.75473C13.8793 6.65781 13.8186 6.56554 13.729 6.54647C13.637 6.52983 13.5494 6.59149 13.5313 6.68597C13.4438 7.15684 13.0487 7.49751 12.5951 7.49751C12.0698 7.49751 11.641 7.04572 11.641 6.49213C11.641 5.93854 12.0698 5.48675 12.5951 5.48675C12.7275 5.48675 12.8555 5.5127 12.9746 5.56726C13.0599 5.60518 13.1588 5.56482 13.1946 5.47499C13.2306 5.38517 13.1923 5.28092 13.107 5.24322C12.9454 5.16981 12.7747 5.13432 12.5975 5.13432C11.8858 5.13432 11.3066 5.74469 11.3066 6.49457C11.3066 7.24445 11.8858 7.85482 12.5975 7.85482C13.2127 7.85482 13.7469 7.39349 13.866 6.75473H13.8614ZM12.8578 6.84944L13.6526 6.01195C13.7176 5.94342 13.7176 5.82986 13.6526 5.7611C13.5875 5.69257 13.4798 5.69257 13.4145 5.7611L12.6198 6.59859C12.5905 6.62942 12.5682 6.62942 12.5413 6.59859L12.2247 6.26501C12.1597 6.19648 12.0519 6.19648 11.9866 6.26501C11.9216 6.33355 11.9216 6.4471 11.9866 6.51586L12.3032 6.84944C12.3773 6.92751 12.476 6.97009 12.5817 6.97009C12.6871 6.97009 12.786 6.92751 12.8601 6.84944H12.8578Z" fill="black"/>
<path d="M21.2544 16.9634L19.0353 14.7295C19.4477 14.2005 19.6833 13.5538 19.6833 12.8484C19.6637 11.1436 18.2891 9.77194 16.6002 9.77194C14.8917 9.77194 13.5171 11.1436 13.5171 12.8484C13.5171 14.5532 14.8917 15.9248 16.6002 15.9248C17.3072 15.9248 17.9749 15.6897 18.4854 15.2782L20.7241 17.512C20.8812 17.6688 21.1169 17.6688 21.274 17.512C21.4115 17.3553 21.4115 17.1005 21.2544 16.9634ZM14.283 12.8484C14.283 11.5747 15.3238 10.5557 16.5806 10.5557C17.857 10.5557 18.8782 11.5943 18.8782 12.8484C18.8782 14.1025 17.8374 15.141 16.5806 15.141C15.3238 15.141 14.283 14.1221 14.283 12.8484Z" fill="black"/>
<path d="M8.22237 8.3783C8.12909 8.3783 8.02677 8.36476 7.91543 8.33767C7.8056 8.31059 7.70102 8.25417 7.60172 8.1684C7.50242 8.08264 7.42117 7.954 7.35797 7.78247C7.29478 7.60944 7.26318 7.37848 7.26318 7.0896V5.72417C7.26318 5.49246 7.28425 5.29987 7.32638 5.1464C7.37001 4.99142 7.42643 4.86804 7.49565 4.77626C7.56636 4.68298 7.64385 4.61376 7.72811 4.56863C7.81387 4.52198 7.89888 4.49189 7.98314 4.47835C8.0689 4.4633 8.14789 4.45578 8.22012 4.45578C8.41872 4.45578 8.57596 4.49264 8.69181 4.56637C8.80767 4.64009 8.89042 4.7394 8.94007 4.86428C8.99123 4.98766 9.01681 5.12383 9.01681 5.27278C9.01681 5.35554 9.01004 5.43227 8.99649 5.50299C8.98446 5.5722 8.97016 5.64894 8.95361 5.73319H8.50223V5.54813C8.50223 5.12533 8.40293 4.91393 8.20432 4.91393C8.09749 4.91393 8.01549 4.96058 7.95831 5.05386C7.90264 5.14564 7.87481 5.31491 7.87481 5.56167V7.29949C7.87481 7.53873 7.90264 7.70198 7.95831 7.78924C8.01549 7.87651 8.10351 7.92014 8.22237 7.92014C8.30513 7.92014 8.37359 7.88554 8.42775 7.81633C8.48192 7.74561 8.509 7.63276 8.509 7.47779V7.11217H9.02132V7.46876C9.02132 7.77721 8.95286 8.00591 8.81594 8.15486C8.67902 8.30382 8.48117 8.3783 8.22237 8.3783Z" fill="black"/>
<path d="M6.58383 9.0396C6.51011 9.07271 6.44089 9.09527 6.37619 9.10731C6.3115 9.11935 6.24304 9.12537 6.17082 9.12537C6.12417 9.12537 6.06625 9.11935 5.99703 9.10731C5.92933 9.09678 5.86237 9.0712 5.79617 9.03058C5.73147 8.99146 5.67655 8.93052 5.63141 8.84777C5.58778 8.76501 5.56596 8.65141 5.56596 8.50697V8.35576C5.4802 8.33921 5.39444 8.30761 5.30867 8.26097C5.22442 8.21282 5.14693 8.1421 5.07621 8.04882C5.0055 7.95403 4.94907 7.82915 4.90694 7.67417C4.86481 7.51769 4.84375 7.32284 4.84375 7.08963V5.7242C4.84375 5.49249 4.86481 5.2999 4.90694 5.14643C4.95058 4.99145 5.007 4.86807 5.07621 4.77629C5.14693 4.68301 5.22442 4.61379 5.30867 4.56866C5.39444 4.52201 5.4802 4.49192 5.56596 4.47838C5.65173 4.46333 5.73072 4.45581 5.80294 4.45581C5.87215 4.45581 5.94889 4.46258 6.03314 4.47612C6.11891 4.48966 6.20392 4.519 6.28818 4.56414C6.37243 4.60778 6.44917 4.67548 6.51838 4.76726C6.5891 4.85905 6.64552 4.98242 6.68765 5.1374C6.73128 5.29237 6.7531 5.48797 6.7531 5.7242V7.08963C6.7531 7.38604 6.71774 7.62151 6.64702 7.79604C6.57631 7.96907 6.48754 8.09772 6.38071 8.18198C6.27388 8.26473 6.1663 8.31965 6.05797 8.34673V8.38058C6.05797 8.52653 6.09182 8.62057 6.15953 8.6627C6.22874 8.70483 6.32955 8.72589 6.46196 8.72589C6.48302 8.72589 6.50409 8.72589 6.52515 8.72589C6.54622 8.72589 6.56578 8.72514 6.58383 8.72364V9.0396ZM5.80294 7.92017C5.91879 7.92017 6.00456 7.87654 6.06023 7.78927C6.1159 7.70201 6.14373 7.53876 6.14373 7.29952V5.5617C6.14373 5.31494 6.1159 5.14567 6.06023 5.05389C6.00456 4.96061 5.91879 4.91396 5.80294 4.91396C5.68407 4.91396 5.59605 4.96061 5.53888 5.05389C5.48321 5.14567 5.45537 5.31494 5.45537 5.5617V7.29952C5.45537 7.53876 5.48321 7.70201 5.53888 7.78927C5.59605 7.87654 5.68407 7.92017 5.80294 7.92017Z" fill="black"/>
</svg>
