<svg width="24" height="24" viewBox="0 0 24 24" fill="none" xmlns="http://www.w3.org/2000/svg">
<path d="M19.1611 10.9262C19.279 10.7823 19.4807 10.7559 19.6357 10.8471L19.6992 10.894L19.7031 10.8969L19.7285 10.9252C19.7345 10.9328 19.7398 10.9422 19.7461 10.9525C21.6295 13.0851 22.1822 14.7664 21.9863 15.9574L21.9375 16.1889C21.6237 17.4187 20.5313 18.0277 19.4404 18.0277C18.4293 18.0277 17.3957 17.4927 17.0117 16.4125L16.9434 16.1889V16.1879C16.6434 14.9876 17.1381 13.2142 19.1611 10.9262ZM19.4404 11.7729C17.8206 13.7099 17.4653 15.1095 17.6895 16.0072L17.7354 16.1586C17.9974 16.8915 18.7067 17.2641 19.4404 17.2641C20.2237 17.2641 20.9894 16.8394 21.2031 16.0072C21.4272 15.1099 21.061 13.7104 19.4404 11.7729Z" fill="#212529" stroke="#212529" stroke-width="0.2"/>
<path d="M19.5908 13.1518C19.759 13.0449 20 13.0676 20.1201 13.2495H20.1211C20.3164 13.518 20.5004 13.8238 20.6357 14.1313H20.6348C20.7942 14.463 20.8947 14.7977 20.9199 15.1352L20.9268 15.3501C20.9221 15.5628 20.8821 15.7668 20.8047 15.9507L20.8027 15.9546C20.6856 16.2018 20.5035 16.3956 20.2617 16.5483L20.2529 16.5542V16.5532C20.1372 16.6111 20.0067 16.6757 19.8613 16.7036L19.8623 16.7046C19.7254 16.7419 19.5842 16.768 19.4404 16.768C19.2239 16.768 19.0646 16.5858 19.0645 16.3803C19.0645 16.1747 19.2237 15.9917 19.4404 15.9917C19.5247 15.9916 19.5992 15.9817 19.6797 15.9702C19.7491 15.947 19.807 15.9272 19.8643 15.8891L19.8721 15.8842L19.9473 15.8335C20.0151 15.7792 20.0649 15.7113 20.1055 15.6391C20.1566 15.5134 20.1785 15.3659 20.1572 15.2055L20.1562 15.1967C20.1451 14.9632 20.0671 14.7131 19.9502 14.4555L19.8486 14.2544C19.7434 14.0566 19.6263 13.8673 19.5029 13.6909L19.4629 13.6216C19.387 13.4554 19.4449 13.2674 19.582 13.1577L19.5898 13.1508L19.6445 13.2358L19.5908 13.1518Z" fill="#212529" stroke="#212529" stroke-width="0.2"/>
<path d="M6.70605 13.9109C6.80428 13.7898 6.9678 13.7526 7.10254 13.8211L7.15918 13.8572L7.16309 13.8602L7.17285 13.8709L7.21582 13.9168C7.30245 14.0318 7.31259 14.2036 7.2041 14.3192L7.20508 14.3201C7.14669 14.4074 7.04634 14.4499 6.95996 14.45C6.89014 14.45 6.80671 14.4226 6.74805 14.366V14.367C6.62372 14.2673 6.59674 14.0916 6.66895 13.9627L6.70605 13.9109Z" fill="#212529" stroke="#212529" stroke-width="0.1"/>
<path d="M7.46289 14.5463C7.57108 14.4137 7.75762 14.3826 7.89844 14.4936H7.91504L7.92871 14.5063C8.05524 14.6187 8.08429 14.829 7.9707 14.9711L7.9668 14.976L7.96582 14.975C7.89768 15.0429 7.80238 15.0862 7.71582 15.0863C7.64606 15.0863 7.56256 15.0589 7.50391 15.0023V15.0033C7.36165 14.8894 7.3469 14.6757 7.46191 14.5463H7.46289Z" fill="#212529" stroke="#212529" stroke-width="0.1"/>
<path d="M8.21777 15.1843C8.32695 15.0484 8.526 15.03 8.65625 15.1296H8.67188L8.68555 15.1423C8.82499 15.2678 8.84021 15.4663 8.72754 15.6072L8.72363 15.6111C8.65629 15.6784 8.57235 15.7223 8.47266 15.7224C8.39957 15.7224 8.32995 15.693 8.2666 15.655L8.25879 15.6501L8.29199 15.6121L8.25879 15.6492C8.11938 15.5236 8.10506 15.3252 8.21777 15.1843Z" fill="#212529" stroke="#212529" stroke-width="0.1"/>
<path d="M8.97363 15.8203C9.07321 15.6963 9.24813 15.6694 9.37695 15.7412L9.42969 15.7784L9.43164 15.7803L9.43945 15.7891L9.4873 15.836C9.58389 15.9529 9.58113 16.121 9.4834 16.2432L9.47949 16.2471C9.41214 16.3145 9.32823 16.3584 9.22852 16.3584C9.15541 16.3584 9.08582 16.3291 9.02246 16.291L9.01465 16.2862L9.04785 16.2481L9.01465 16.2852C8.88836 16.1726 8.86002 15.9624 8.97363 15.8203Z" fill="#212529" stroke="#212529" stroke-width="0.1"/>
<path d="M9.78809 16.4095C9.90056 16.3167 10.0596 16.3173 10.1807 16.4144H10.1953L10.209 16.4271C10.3382 16.542 10.3503 16.7518 10.2393 16.8909L10.2354 16.8958C10.1645 16.9666 10.0788 16.9944 9.98438 16.9944C9.91648 16.9944 9.84369 16.9801 9.77246 16.9232L9.76855 16.9193C9.64624 16.7969 9.61383 16.5998 9.74121 16.4564L9.78809 16.4095Z" fill="#212529" stroke="#212529" stroke-width="0.1"/>
<path d="M5.83301 14.9445C5.95693 14.8496 6.1237 14.8507 6.24707 14.9494L6.26562 14.964V14.9787C6.39046 15.0952 6.39757 15.282 6.29102 15.4152L6.28711 15.4191C6.21974 15.4865 6.13588 15.5304 6.03613 15.5304C5.96323 15.5304 5.89271 15.5012 5.83789 15.4601L5.83691 15.4591C5.69637 15.3467 5.6672 15.1349 5.78125 14.9923L5.7832 14.9904L5.83301 14.9445Z" fill="#212529" stroke="#212529" stroke-width="0.1"/>
<path d="M6.5957 15.5844C6.71073 15.4955 6.87817 15.4855 7.00293 15.5853L7.02148 15.6V15.6156C7.145 15.7327 7.15427 15.93 7.04492 16.0531L7.04395 16.0521C6.9826 16.1391 6.88283 16.1663 6.80371 16.1664C6.72664 16.1664 6.64979 16.1531 6.58789 16.0912V16.0902C6.45151 15.9767 6.42286 15.7676 6.5498 15.6263L6.5957 15.5844Z" fill="#212529" stroke="#212529" stroke-width="0.1"/>
<path d="M7.35254 16.2196C7.46273 16.1349 7.62035 16.1248 7.74316 16.2215H7.75977L7.77344 16.2342L7.81641 16.2821C7.89138 16.3844 7.8996 16.5286 7.83887 16.6444L7.80371 16.6991C7.74546 16.7719 7.6463 16.8142 7.56055 16.8143C7.47781 16.8143 7.40607 16.7861 7.34863 16.7303V16.7313C7.20519 16.6164 7.19409 16.404 7.30566 16.2645L7.30664 16.2625L7.35254 16.2196Z" fill="#212529" stroke="#212529" stroke-width="0.1"/>
<path d="M8.10742 16.8654C8.21923 16.7726 8.37731 16.7721 8.49805 16.8576H8.51562L8.5293 16.8703C8.65534 16.9824 8.68435 17.1917 8.55859 17.3342L8.55957 17.3352C8.50132 17.408 8.40216 17.4503 8.31641 17.4504C8.24667 17.4504 8.16314 17.4229 8.10449 17.3664V17.3674C7.96124 17.2528 7.94971 17.0521 8.06152 16.9123L8.10742 16.8654Z" fill="#212529" stroke="#212529" stroke-width="0.1"/>
<path d="M8.86914 17.5005C8.97487 17.4196 9.11251 17.4069 9.22168 17.4692L9.27344 17.5063L9.27539 17.5083L9.2832 17.5171L9.33105 17.564C9.4272 17.6807 9.42267 17.8478 9.31445 17.9702L9.31543 17.9712C9.25718 18.044 9.15801 18.0863 9.07227 18.0864C9.00253 18.0864 8.919 18.0589 8.86035 18.0024V18.0034C8.71806 17.8895 8.70334 17.6758 8.81836 17.5464L8.86914 17.5005Z" fill="#212529" stroke="#212529" stroke-width="0.1"/>
<path d="M4.91602 16.0375C5.02914 15.9456 5.19428 15.9429 5.30762 16.0297H5.32129L5.33496 16.0414C5.47831 16.1562 5.4904 16.3678 5.37891 16.5072L5.375 16.5111C5.30766 16.5784 5.22372 16.6224 5.12402 16.6224C5.06835 16.6224 5.01425 16.6054 4.96289 16.5746L4.91211 16.5394C4.76886 16.4248 4.75733 16.2241 4.86914 16.0844L4.91602 16.0375Z" fill="#212529" stroke="#212529" stroke-width="0.1"/>
<path d="M5.625 16.7203C5.73417 16.5844 5.93322 16.566 6.06348 16.6656H6.07715L6.09082 16.6774C6.23421 16.7922 6.24629 17.0037 6.13477 17.1432L6.13086 17.1471C6.06351 17.2144 5.9796 17.2584 5.87988 17.2584C5.80678 17.2584 5.73718 17.2291 5.67383 17.191L5.66602 17.1862L5.69922 17.1481L5.66602 17.1852C5.53972 17.0726 5.51139 16.8623 5.625 16.7203Z" fill="#212529" stroke="#212529" stroke-width="0.1"/>
<path d="M6.38281 17.3544C6.50834 17.2152 6.70587 17.2007 6.84668 17.3134L6.86523 17.328V17.3427C6.99002 17.4592 6.99714 17.646 6.89062 17.7792L6.88965 17.7802C6.8183 17.8656 6.73107 17.8944 6.63574 17.8944C6.56784 17.8944 6.49506 17.8801 6.42383 17.8231L6.42188 17.8212C6.29558 17.7086 6.26725 17.4983 6.38086 17.3563L6.38184 17.3544L6.41992 17.3876L6.38281 17.3544Z" fill="#212529" stroke="#212529" stroke-width="0.1"/>
<path d="M7.19629 17.9483C7.31131 17.8594 7.47875 17.8495 7.60352 17.9493L7.62207 17.964V17.9796C7.74525 18.0963 7.75387 18.2919 7.64551 18.4151L7.64648 18.4161C7.57834 18.4978 7.49302 18.542 7.39258 18.5421C7.31837 18.5421 7.247 18.5121 7.18066 18.4591L7.17871 18.4571C7.0522 18.3444 7.0224 18.1328 7.15039 17.9903L7.19629 17.9483Z" fill="#212529" stroke="#212529" stroke-width="0.1"/>
<path d="M7.95215 18.5836C8.06232 18.4989 8.21994 18.4888 8.34277 18.5855H8.36035L8.375 18.6002C8.50041 18.7256 8.5155 18.9226 8.40332 19.063L8.39941 19.0679L8.39844 19.067C8.33204 19.1332 8.24884 19.1782 8.16016 19.1783C8.07499 19.1783 8.00387 19.1491 7.93652 19.0953L7.93457 19.0933C7.80529 18.9783 7.79398 18.7676 7.90527 18.6285L7.90625 18.6265L7.95215 18.5836Z" fill="#212529" stroke="#212529" stroke-width="0.1"/>
<path d="M4.00391 17.1203C4.11893 17.0315 4.2864 17.0215 4.41113 17.1213L4.42969 17.136V17.1516C4.55314 17.2687 4.56242 17.466 4.45312 17.5891L4.45215 17.5881C4.39333 17.672 4.29662 17.714 4.21191 17.7141C4.12913 17.7141 4.05745 17.6859 4 17.6301V17.6311C3.85664 17.5162 3.84548 17.3037 3.95703 17.1643L3.95801 17.1623L4.00391 17.1203Z" fill="#212529" stroke="#212529" stroke-width="0.1"/>
<path d="M4.71582 17.8103C4.82401 17.6777 5.01055 17.6467 5.15137 17.7576H5.16797L5.18164 17.7703C5.30767 17.8823 5.33664 18.0916 5.21094 18.2341L5.21191 18.2351C5.15366 18.3079 5.0545 18.3503 4.96875 18.3503C4.88602 18.3503 4.81427 18.3221 4.75684 18.2664V18.2673C4.61458 18.1534 4.59983 17.9397 4.71484 17.8103H4.71582Z" fill="#212529" stroke="#212529" stroke-width="0.1"/>
<path d="M5.51562 18.4015C5.62743 18.3086 5.78551 18.3081 5.90625 18.3936H5.92383L5.9375 18.4063C6.06404 18.5188 6.09313 18.7291 5.97949 18.8712L5.97559 18.8751C5.90742 18.9433 5.81133 18.9863 5.72461 18.9864C5.6539 18.9864 5.5713 18.9585 5.51465 18.9161L5.51074 18.9132C5.37134 18.7877 5.35701 18.5892 5.46973 18.4483L5.51562 18.4015Z" fill="#212529" stroke="#212529" stroke-width="0.1"/>
<path d="M6.27246 19.0374C6.38558 18.9456 6.55073 18.9429 6.66406 19.0296H6.67969L6.69336 19.0423L6.74023 19.0931C6.83485 19.217 6.8339 19.3839 6.73535 19.5072L6.73145 19.5111C6.66411 19.5784 6.58016 19.6223 6.48047 19.6224C6.40738 19.6224 6.33776 19.593 6.27441 19.555L6.26855 19.5511C6.12518 19.4362 6.11403 19.2238 6.22559 19.0843L6.27246 19.0374Z" fill="#212529" stroke="#212529" stroke-width="0.1"/>
<path d="M6.98242 19.731C7.09047 19.5976 7.27715 19.5666 7.41797 19.6655H7.43359L7.44727 19.6772C7.59073 19.7921 7.60273 20.0036 7.49121 20.1431L7.4873 20.1479L7.48633 20.147C7.41903 20.2141 7.33587 20.2583 7.23633 20.2583C7.17125 20.2583 7.0978 20.2444 7.03711 20.186V20.187C6.91541 20.0897 6.87467 19.9146 6.94531 19.7837L6.98242 19.731Z" fill="#212529" stroke="#212529" stroke-width="0.1"/>
<path d="M13.248 3.63321C13.3433 3.62224 13.4369 3.65276 13.5039 3.71622L13.5049 3.71524L19.1201 8.44376L19.123 8.44571L19.1758 8.50333C19.2837 8.64497 19.2832 8.83737 19.1699 8.97891L19.1689 8.98087L9.12402 20.9086C8.34891 21.8191 7.21725 22.3362 6.02441 22.3363C5.06529 22.3363 4.14152 22.0038 3.41504 21.3881V21.3871C1.75927 19.9925 1.4994 17.5483 2.79395 15.8529L2.92383 15.6908L12.9795 3.76309C13.04 3.68845 13.1217 3.63892 13.2314 3.63419V3.63321C13.2352 3.63258 13.2394 3.6337 13.2432 3.63321C13.2448 3.63319 13.2464 3.63223 13.248 3.63223V3.63321ZM3.50879 16.1684C2.33223 17.5663 2.5067 19.6395 3.9043 20.8158H3.90527L4.13086 20.9926C4.67549 21.3786 5.34065 21.5844 6.02441 21.5844C7.00358 21.5843 7.92286 21.1644 8.53906 20.4203V20.4193L18.3516 8.7836L13.3076 4.53262L3.50879 16.1684Z" fill="#212529" stroke="#212529" stroke-width="0.2"/>
<path d="M8.00684 9.94492L8.00977 9.94589L16.3594 11.4449H16.3604C16.5372 11.4744 16.6574 11.6306 16.6631 11.7994L16.6582 11.8727C16.6296 12.0437 16.5 12.1535 16.3574 12.1783L16.2959 12.1842H16.2266L16.2178 12.1822L7.88086 10.6939V10.6949C7.66527 10.6617 7.53773 10.4619 7.56934 10.2564V10.2555L7.58887 10.1842C7.64235 10.0466 7.77677 9.94833 7.92969 9.94101L8.00684 9.94492Z" fill="#212529" stroke="#212529" stroke-width="0.2"/>
<path d="M13.752 1.66437C14.046 1.66445 14.3199 1.75345 14.5557 1.91339L14.6543 1.98566L14.6562 1.98761L20.6309 7.02667L20.7334 7.11945C20.9588 7.34719 21.0997 7.65471 21.123 7.98175L21.1299 8.12238C21.1301 8.44698 21.0132 8.75456 20.7988 9.00323L20.7998 9.00421C20.529 9.32648 20.1414 9.50812 19.7275 9.50812C19.3936 9.50811 19.0706 9.39245 18.8232 9.17218L12.8477 4.14484L12.8467 4.14386C12.2534 3.64057 12.1751 2.75001 12.6787 2.15558L12.7822 2.04523C13.0387 1.8017 13.3912 1.66437 13.752 1.66437ZM13.752 2.41632C13.5782 2.41632 13.4211 2.47945 13.3008 2.59308L13.252 2.64484C13.0231 2.91543 13.0552 3.33221 13.3242 3.55988L19.2988 8.59894L19.3926 8.66339C19.4932 8.72107 19.6114 8.75616 19.7275 8.75616C19.9114 8.75616 20.1005 8.66306 20.2275 8.51495C20.3319 8.3892 20.3921 8.21241 20.3721 8.05206L20.3711 8.0462V8.04523C20.3607 7.87104 20.2797 7.71632 20.1436 7.60089L14.168 2.56183L14.0771 2.49933C13.9811 2.44549 13.8699 2.41639 13.752 2.41632Z" fill="#212529" stroke="#212529" stroke-width="0.2"/>
</svg>
