<svg width="24" height="24" viewBox="0 0 24 24" fill="none" xmlns="http://www.w3.org/2000/svg">
<path fill-rule="evenodd" clip-rule="evenodd" d="M7.44574 8.59415H3.30558C2.93509 8.59415 2.93514 8.01995 3.30558 8.01995H7.4457C7.8162 8.01995 7.81624 8.59415 7.44574 8.59415ZM18.3398 17.6485H11.9285V19.3874H13.5704C13.7689 19.3874 13.9371 19.5183 13.9892 19.7132L14.3434 21.0359C14.736 21.0359 15.2598 20.9391 15.2598 21.323C15.2598 21.4816 15.1312 21.6101 14.9727 21.6101H5.15422C4.78367 21.6101 4.78372 21.0359 5.15422 21.0359H5.78351L6.13768 19.713C6.18985 19.5183 6.35815 19.3875 6.55643 19.3875H8.19848V17.6485H1.78713C1.62857 17.6485 1.5 17.5199 1.5 17.3613V5.58937C1.5 5.43082 1.62857 5.3023 1.78713 5.3023H13.0959C12.8914 5.09777 12.4385 4.78201 12.7101 4.51048L14.1124 3.10828C14.2229 2.99768 14.4078 2.99768 14.5184 3.10828L15.2702 3.86008C15.472 3.75636 15.6817 3.66931 15.8973 3.59998V2.53713C15.8973 2.37852 16.0258 2.25 16.1844 2.25H18.1675C18.3261 2.25 18.4546 2.37852 18.4546 2.53713V3.59993C18.6702 3.66931 18.8799 3.75626 19.0818 3.86003L19.8335 3.10823C19.9456 2.99613 20.1274 2.99613 20.2395 3.10823L21.6417 4.51043C21.7539 4.62253 21.7539 4.80434 21.6418 4.91644L20.89 5.66824C20.9938 5.87001 21.0808 6.07982 21.1502 6.29539H22.2129C22.3715 6.29539 22.5 6.42391 22.5 6.58252V8.56561C22.5 8.72417 22.3715 8.85274 22.2129 8.85274H21.1501C21.0807 9.06832 20.9937 9.27808 20.89 9.47984L21.6417 10.2316C21.7539 10.3437 21.7539 10.5256 21.6417 10.6376L20.2395 12.0399C20.1289 12.1505 19.9441 12.1505 19.8335 12.0399L19.0818 11.2882C18.9341 11.3641 18.7822 11.431 18.6269 11.4886V17.3613C18.627 17.5199 18.4984 17.6485 18.3398 17.6485ZM11.3543 17.6485H8.77266V19.3874H11.3543V17.6485ZM13.9919 5.38632C14.0962 5.49043 14.1426 5.63106 14.0644 5.76321C13.3197 7.02159 14.1743 6.86967 12.426 6.86967V8.27851C14.1608 8.27851 13.3267 8.1215 14.0649 9.38593C14.1307 9.49861 14.1123 9.64147 14.02 9.73371L13.3191 10.4347L14.3153 11.4309C15.5435 10.2026 14.8415 10.6834 16.2573 11.0555C16.3835 11.0886 16.4714 11.2027 16.4714 11.3331V12.3239H17.8803C17.8803 10.5691 17.7715 11.3952 18.9878 10.685C19.1003 10.6193 19.2433 10.6377 19.3356 10.73L20.0365 11.4308L21.0328 10.4346C19.805 9.20679 20.2848 9.9084 20.6573 8.49258C20.6905 8.36648 20.8045 8.27851 20.935 8.27851H21.9258V6.86962C20.191 6.86962 21.0252 7.02667 20.2869 5.76219C20.2211 5.64956 20.2396 5.5067 20.3318 5.41442L21.0328 4.71353L20.0365 3.71729C18.8083 4.94548 19.5103 4.46492 18.0945 4.09268C17.9684 4.05954 17.8804 3.94551 17.8804 3.81505L17.8804 2.82423H16.4715C16.4715 4.55914 16.6285 3.72489 15.3641 4.46318C15.2515 4.52896 15.1086 4.51056 15.0163 4.41827L14.3153 3.71729L13.3191 4.71353L13.9919 5.38632ZM13.3619 5.87647H2.07424V10.0679C3.50735 10.0679 3.34221 9.86468 3.34221 11.2226C3.50609 11.277 3.66591 11.3432 3.8204 11.4209L4.43403 10.8073C4.54613 10.6952 4.72789 10.6952 4.84004 10.8073L6.02691 11.9941C6.13756 12.1048 6.13751 12.2896 6.02686 12.4001L5.41323 13.0138C5.49093 13.1683 5.55715 13.3281 5.61151 13.4919C6.97035 13.4919 6.76626 13.3294 6.76626 14.7544H18.0526V12.8981H16.1843C16.0258 12.8981 15.8972 12.7695 15.8972 12.611V11.5481C15.6816 11.4789 15.4719 11.3919 15.27 11.2881L14.5183 12.0399C14.4077 12.1505 14.2229 12.1505 14.1123 12.0399L12.71 10.6376C12.5979 10.5255 12.5979 10.3437 12.7101 10.2316L13.4618 9.47984C13.358 9.27807 13.271 9.06831 13.2016 8.85269H12.1389C11.9803 8.85269 11.8517 8.72412 11.8517 8.56556V6.58252C11.8517 6.42391 11.9803 6.29539 12.1389 6.29539H13.2017C13.2475 6.15301 13.301 6.01318 13.3619 5.87647ZM2.07424 10.6421V12.3805C3.32598 12.5065 4.32465 13.5035 4.45322 14.7545H6.19211V14.0662C4.74499 14.0662 5.43013 14.1677 4.81088 13.1069C4.74509 12.9942 4.76355 12.8514 4.85583 12.7591L5.41793 12.1971L4.63706 11.4163C3.61287 12.4404 4.16958 12.0269 2.98208 11.7144C2.85589 11.6811 2.76801 11.5671 2.76801 11.4367V10.6421L2.07424 10.6421ZM2.07424 12.9585V14.7545H3.87494C3.75194 13.8204 3.00901 13.0791 2.07424 12.9585ZM2.07424 15.3287V17.0742L18.0526 17.0742V15.3287L2.07424 15.3287ZM13.749 21.0359L13.4613 19.9617H6.66555L6.37794 21.0359H13.749ZM10.8784 16.4885H9.24867C8.87817 16.4885 8.87812 15.9143 9.24867 15.9143H10.8784C11.2488 15.9143 11.2489 16.4885 10.8784 16.4885ZM17.1759 10.4644C15.5822 10.4644 14.2856 9.16783 14.2856 7.57408C14.2856 5.98033 15.5822 4.68374 17.1759 4.68374C18.7696 4.68374 20.0663 5.98033 20.0663 7.57408C20.0663 9.16783 18.7696 10.4644 17.1759 10.4644ZM17.1759 5.25795C15.8988 5.25795 14.8598 6.29697 14.8598 7.57409C14.8598 8.85121 15.8988 9.89019 17.1759 9.89019C18.4531 9.89019 19.4921 8.85121 19.4921 7.57409C19.4921 6.29697 18.453 5.25795 17.1759 5.25795ZM5.09685 7.40144H3.30559C2.93514 7.40144 2.9351 6.82723 3.30559 6.82723H5.0968C5.4673 6.82723 5.46735 7.40144 5.09685 7.40144ZM10.6205 7.40144H6.48039C6.10994 7.40144 6.10989 6.82723 6.48039 6.82723H10.6205C10.9909 6.82723 10.991 7.40144 10.6205 7.40144ZM10.6205 8.59412H8.82929C8.45875 8.59412 8.45879 8.01992 8.82929 8.01992H10.6205C10.9909 8.01992 10.991 8.59412 10.6205 8.59412Z" fill="#212529" stroke="#212529" stroke-width="0.2"/>
</svg>
