<svg width="24" height="24" viewBox="0 0 24 24" fill="none" xmlns="http://www.w3.org/2000/svg">
<g clip-path="url(#clip0_9325_33693)">
<path d="M11.6036 22.4337H2.12242C1.89479 22.4337 1.71057 22.2495 1.71057 22.0218V4.68551C1.71057 4.45788 1.8948 4.27366 2.12242 4.27366H4.69207V4.95444C4.69207 5.47748 5.11769 5.89993 5.63756 5.89993H13.2301C13.7531 5.89993 14.1756 5.47431 14.1756 4.95444V4.27366H16.7452C16.9728 4.27366 17.1571 4.45788 17.1571 4.68551V9.28786C17.1571 9.51232 17.3392 9.69443 17.5636 9.69443C17.7881 9.69443 17.9702 9.51232 17.9702 9.28786V4.68551C17.9702 4.01107 17.4197 3.46052 16.7452 3.46052H14.1787V3.32182C14.1787 2.79878 13.7531 2.37633 13.2333 2.37633H11.428C11.2385 1.44884 10.4169 0.750061 9.43542 0.750061C8.45394 0.750061 7.6334 1.44884 7.4428 2.37633H5.63758C5.11455 2.37633 4.6921 2.80196 4.6921 3.32182V3.46052H2.12245C1.44801 3.46052 0.897461 4.01107 0.897461 4.68551V22.024C0.897461 22.6985 1.44801 23.249 2.12245 23.249L11.6036 23.2501C11.8281 23.2501 12.0102 23.0679 12.0102 22.8435C12.0102 22.618 11.828 22.4337 11.6036 22.4337ZM5.50507 3.32175C5.50507 3.24869 5.56436 3.1894 5.63742 3.1894H7.80895C8.03341 3.1894 8.21552 3.00729 8.21552 2.78283C8.21552 2.1105 8.7629 1.56313 9.43522 1.56313C10.1076 1.56313 10.6549 2.1105 10.6549 2.78283C10.6549 3.00729 10.837 3.1894 11.0615 3.1894H13.233C13.3061 3.1894 13.3654 3.24869 13.3654 3.32175V4.95119C13.3654 5.02424 13.3061 5.08353 13.233 5.08353H5.63752C5.56447 5.08353 5.50518 5.02424 5.50518 4.95119L5.50507 3.32175ZM14.8561 9.69456H8.89314C8.66868 9.69456 8.48657 9.51245 8.48657 9.288C8.48657 9.06354 8.66868 8.88143 8.89314 8.88143H14.8561C15.0806 8.88143 15.2627 9.06354 15.2627 9.288C15.2627 9.51245 15.0806 9.69456 14.8561 9.69456ZM17.5666 14.8444C16.1468 14.8444 14.9917 15.9995 14.9917 17.4194C14.9917 18.8392 16.1468 19.9943 17.5666 19.9943C18.9864 19.9943 20.1415 18.8392 20.1415 17.4194C20.1415 15.9995 18.9864 14.8444 17.5666 14.8444ZM17.5666 19.1812C16.5968 19.1812 15.8048 18.3892 15.8048 17.4194C15.8048 16.4495 16.5968 15.6576 17.5666 15.6576C18.5364 15.6576 19.3284 16.4495 19.3284 17.4194C19.3284 18.3892 18.5364 19.1812 17.5666 19.1812ZM7.5539 8.49085L5.38554 10.6592C5.30719 10.7376 5.20131 10.7789 5.09861 10.7789C4.99591 10.7789 4.89003 10.7386 4.81168 10.6592L3.7275 9.57503C3.56763 9.41516 3.56763 9.15787 3.7275 9.00012C3.88737 8.84024 4.14467 8.84024 4.30241 9.00012L5.09861 9.79737L6.98004 7.91594C7.13992 7.75606 7.39721 7.75606 7.55496 7.91594C7.71378 8.07369 7.71378 8.33416 7.5539 8.49085ZM10.5194 14.5734H8.89314C8.66868 14.5734 8.48657 14.3913 8.48657 14.1668C8.48657 13.9424 8.66868 13.7602 8.89314 13.7602H10.5194C10.7439 13.7602 10.926 13.9424 10.926 14.1668C10.926 14.3913 10.7439 14.5734 10.5194 14.5734ZM7.5539 13.3696L5.38554 15.5379C5.30719 15.6163 5.20131 15.6576 5.09861 15.6576C4.99591 15.6576 4.89003 15.6173 4.81168 15.5379L3.7275 14.4537C3.56763 14.2939 3.56763 14.0366 3.7275 13.8788C3.88737 13.719 4.14467 13.719 4.30241 13.8788L5.09861 14.6761L6.98004 12.7946C7.13992 12.6348 7.39721 12.6348 7.55496 12.7946C7.71378 12.9524 7.71378 13.2129 7.5539 13.3696ZM9.97743 18.639C10.2019 18.639 10.384 18.8211 10.384 19.0455C10.384 19.27 10.2019 19.4521 9.97743 19.4521H8.89325C8.66879 19.4521 8.48668 19.27 8.48668 19.0455C8.48668 18.8211 8.66879 18.639 8.89325 18.639H9.97743ZM7.5539 17.6744C7.71378 17.8343 7.71378 18.0916 7.5539 18.2493L5.38554 20.4177C5.30719 20.496 5.20131 20.5373 5.09861 20.5373C4.99591 20.5373 4.89003 20.4971 4.81168 20.4177L3.7275 19.3335C3.56763 19.1736 3.56763 18.9163 3.7275 18.7586C3.88737 18.5987 4.14467 18.5987 4.30241 18.7586L5.09861 19.5548L6.98004 17.6734C7.13992 17.5145 7.39401 17.5145 7.5539 17.6744ZM22.2454 18.1561L22.2507 18.1593C22.2888 17.9126 22.3078 17.6638 22.3078 17.4171C22.3078 17.1704 22.2888 16.9216 22.2433 16.6802L22.8288 16.1656C23.1136 15.9158 23.1813 15.4965 22.9939 15.1683L22.2327 13.8459C22.0432 13.5177 21.644 13.3663 21.2872 13.488L20.5556 13.7347C20.1628 13.4171 19.7287 13.1651 19.2681 12.9999L19.1135 12.2355C19.0405 11.8639 18.7101 11.5928 18.3301 11.5928H16.8044C16.4253 11.5928 16.0971 11.8639 16.0209 12.2355L15.8695 12.9915C15.4058 13.1672 14.9727 13.4192 14.5873 13.74L13.8472 13.4901C13.4872 13.3684 13.0912 13.5198 12.9017 13.848L12.1405 15.1704C11.9509 15.4986 12.0208 15.919 12.3056 16.1678L12.8858 16.677C12.8477 16.9206 12.8265 17.1704 12.8265 17.4192C12.8265 17.6691 12.8456 17.9179 12.8911 18.1593L12.3056 18.6739C12.0208 18.9238 11.9509 19.343 12.1405 19.6713L12.9017 20.9937C13.0912 21.3219 13.4904 21.4733 13.8472 21.3515L14.5788 21.1048C14.9695 21.4225 15.4025 21.6713 15.8694 21.8396L16.024 22.604C16.0971 22.9757 16.4274 23.2467 16.8075 23.2467H18.3332C18.7122 23.2467 19.0405 22.9757 19.1167 22.604L19.2681 21.8481C19.7339 21.6723 20.168 21.4203 20.5503 21.0995L21.2903 21.3494C21.6503 21.4711 22.0463 21.3197 22.2358 20.9915L22.9971 19.6691C23.1866 19.3409 23.1167 18.9206 22.8319 18.6718L22.2454 18.1561ZM21.5487 20.5797L20.8086 20.3298C20.5482 20.243 20.2634 20.2949 20.0442 20.4738C19.7213 20.7364 19.3634 20.9428 18.9791 21.0889C18.7165 21.1895 18.5259 21.4118 18.4719 21.6797L18.3332 22.4336L16.8213 22.4441L16.6667 21.6797C16.6127 21.4087 16.4232 21.1895 16.1596 21.0889C15.7742 20.9428 15.4174 20.7363 15.0944 20.4738C14.9451 20.352 14.7641 20.2895 14.582 20.2895C14.4984 20.2895 14.4115 20.3033 14.33 20.3298L13.6058 20.5849L12.8414 19.2816L13.4269 18.767C13.6355 18.5849 13.7329 18.3086 13.6873 18.0301C13.6545 17.83 13.6386 17.6236 13.6386 17.4171C13.6386 17.2106 13.6545 17.0053 13.6873 16.8041C13.7339 16.5246 13.6355 16.2482 13.4269 16.0672L12.8446 15.5717L13.5868 14.2567L14.3269 14.5065C14.5873 14.5934 14.8721 14.5415 15.0913 14.3657C15.4163 14.1031 15.7742 13.8946 16.1596 13.7506C16.4222 13.65 16.6127 13.4277 16.6667 13.1598L16.8054 12.4059L18.3174 12.3954L18.4719 13.1598C18.5259 13.4308 18.7155 13.65 18.9791 13.7506C19.3613 13.8967 19.7213 14.1032 20.0474 14.3657C20.2644 14.5415 20.5514 14.5965 20.8118 14.5065L21.536 14.2493L22.3005 15.5526L21.7149 16.0672C21.5085 16.2493 21.4111 16.5203 21.4545 16.7988C21.4873 17.0052 21.5032 17.2138 21.5032 17.4171C21.5032 17.6204 21.4873 17.8289 21.4545 18.0354C21.4111 18.3117 21.5085 18.5859 21.7149 18.767L22.2973 19.2625L21.5487 20.5797Z" fill="black"/>
</g>
<defs>
<clipPath id="clip0_9325_33693">
<rect width="24" height="24" fill="white"/>
</clipPath>
</defs>
</svg>
