<svg width="21" height="22" viewBox="0 0 21 22" fill="none" xmlns="http://www.w3.org/2000/svg">
<path fill-rule="evenodd" clip-rule="evenodd" d="M11.0853 21.4999H0.496092C0.360249 21.4999 0.25 21.3895 0.25 21.2538V0.746096C0.25 0.610251 0.360249 0.5 0.496092 0.5H15.3036C15.4394 0.5 15.5497 0.610251 15.5497 0.746096V4.66104C15.5497 4.9849 15.0575 4.9849 15.0575 4.66104V1.49219C15.0575 1.21605 14.8336 0.992193 14.5575 0.992193H1.24219C0.966043 0.992193 0.742185 1.21605 0.742185 1.49219V20.5077C0.742185 20.7838 0.966042 21.0077 1.24218 21.0077H11.0853C11.4093 21.0077 11.4093 21.4999 11.0853 21.4999ZM15.3037 13.5397C15.1679 13.5397 15.0576 13.4293 15.0576 13.2936V9.69276C15.0576 9.3689 15.5498 9.3689 15.5498 9.69276V13.2936C15.5498 13.4294 15.4396 13.5397 15.3037 13.5397Z" fill="#212529" stroke="#212529" stroke-width="0.2"/>
<path fill-rule="evenodd" clip-rule="evenodd" d="M18.7514 21.5H11.8545C11.7186 21.5 11.6084 21.3896 11.6084 21.2539V20.4344C11.6084 19.0422 12.6038 17.8547 13.9757 17.6108C14.0787 17.5929 14.1814 17.6415 14.233 17.7318C14.7042 18.5625 15.902 18.5626 16.3735 17.7318C16.4249 17.6413 16.5277 17.5929 16.6307 17.6108C18.0022 17.8548 18.9979 19.0422 18.9979 20.4344V21.2539C18.9976 21.3898 18.8873 21.5 18.7515 21.5H18.7514ZM12.1008 21.0078H18.5053V20.4347C18.5053 19.3356 17.7564 18.3907 16.7026 18.1293C16.0155 19.0869 14.5903 19.087 13.9036 18.1293C12.8499 18.3906 12.101 19.3357 12.101 20.4347L12.1007 21.0078H12.1008Z" fill="#212529" stroke="#212529" stroke-width="0.2"/>
<path fill-rule="evenodd" clip-rule="evenodd" d="M15.2942 17.3865C14.3452 17.3865 13.5732 16.6144 13.5732 15.6655C13.5732 14.7167 14.3454 13.9446 15.2942 13.9446C16.243 13.9446 17.0151 14.7167 17.0151 15.6655C17.0151 16.6144 16.2431 17.3865 15.2942 17.3865ZM15.2942 14.4368C14.6166 14.4368 14.0655 14.988 14.0655 15.6654C14.0655 16.3429 14.6167 16.894 15.2942 16.894C15.9717 16.894 16.5228 16.3429 16.5228 15.6654C16.5228 14.988 15.9718 14.4368 15.2942 14.4368Z" fill="#212529" stroke="#212529" stroke-width="0.2"/>
<path fill-rule="evenodd" clip-rule="evenodd" d="M9.83477 8.88318H6.75763C6.43365 8.88318 6.43365 8.39099 6.75763 8.39099H9.83477C10.1586 8.39099 10.1589 8.88318 9.83477 8.88318Z" fill="#212529" stroke="#212529" stroke-width="0.2"/>
<path fill-rule="evenodd" clip-rule="evenodd" d="M12.9969 11.9191H6.75763C6.43365 11.9191 6.43365 11.4269 6.75763 11.4269H12.9968C13.3207 11.4269 13.3208 11.9191 12.9969 11.9191Z" fill="#212529" stroke="#212529" stroke-width="0.2"/>
<path fill-rule="evenodd" clip-rule="evenodd" d="M12.9969 14.955H6.75763C6.43365 14.955 6.43365 14.4628 6.75763 14.4628H12.9968C13.3207 14.4628 13.3208 14.955 12.9969 14.955Z" fill="#212529" stroke="#212529" stroke-width="0.2"/>
<path fill-rule="evenodd" clip-rule="evenodd" d="M3.52548 8.88313C3.34387 8.88313 2.94618 8.40546 2.72248 8.18201C2.49325 7.95301 2.84135 7.60479 3.07046 7.83403L3.5256 8.28893L4.9618 6.85284C5.19103 6.6236 5.53889 6.97183 5.30977 7.20082L3.69959 8.81103C3.6516 8.85889 3.5886 8.88301 3.52548 8.88301V8.88313Z" fill="#212529" stroke="#212529" stroke-width="0.2"/>
<path fill-rule="evenodd" clip-rule="evenodd" d="M3.43161 11.9191C3.25 11.9191 2.85207 11.4413 2.62874 11.2178C2.39938 10.9885 2.74797 10.6405 2.97671 10.8697L3.43161 11.3248L4.86806 9.88855C5.09729 9.65931 5.44514 10.0075 5.21603 10.2365L3.60572 11.8469C3.55958 11.8931 3.49683 11.9191 3.43174 11.9191H3.43161Z" fill="#212529" stroke="#212529" stroke-width="0.2"/>
<path fill-rule="evenodd" clip-rule="evenodd" d="M3.43664 14.9556C3.25514 14.9556 2.85672 14.4774 2.63364 14.2543C2.40428 14.025 2.75274 13.6771 2.98161 13.9062L3.43664 14.3613L4.87283 12.925C5.10231 12.6956 5.44979 13.0444 5.2208 13.2731L3.61062 14.8833C3.56251 14.9315 3.49963 14.9555 3.43651 14.9555L3.43664 14.9556Z" fill="#212529" stroke="#212529" stroke-width="0.2"/>
<path fill-rule="evenodd" clip-rule="evenodd" d="M12.9969 5.44971H6.75763C6.43365 5.44971 6.43365 4.95752 6.75763 4.95752H12.9968C13.3208 4.95752 13.3208 5.44971 12.9969 5.44971Z" fill="#212529" stroke="#212529" stroke-width="0.2"/>
<path fill-rule="evenodd" clip-rule="evenodd" d="M3.52548 5.44973C3.34362 5.44973 2.94643 4.97218 2.72248 4.7486C2.49325 4.5196 2.84135 4.17138 3.07046 4.40062L3.5256 4.85553L4.9618 3.41931C5.19079 3.19007 5.53901 3.5383 5.30977 3.76729L3.69959 5.3775C3.65333 5.42401 3.59082 5.44985 3.52548 5.44985V5.44973Z" fill="#212529" stroke="#212529" stroke-width="0.2"/>
<path fill-rule="evenodd" clip-rule="evenodd" d="M13.6551 10.3061C13.5898 10.3061 13.5273 10.2801 13.481 10.2339L12.247 8.99989C12.1507 8.90379 12.1507 8.74801 12.247 8.65191L18.5055 2.39307C18.9414 1.95723 19.6519 1.95748 20.0877 2.39307C20.5238 2.82915 20.524 3.53889 20.088 3.9751L13.8292 10.2339C13.783 10.2802 13.7204 10.3062 13.6551 10.3062V10.3061ZM12.7692 8.8259L13.6554 9.7121L19.74 3.62749C20.3322 3.03513 19.425 2.17048 18.8538 2.7413L12.7692 8.8259Z" fill="#212529" stroke="#212529" stroke-width="0.2"/>
<path fill-rule="evenodd" clip-rule="evenodd" d="M11.7346 10.9921C11.5664 10.9921 11.4454 10.8245 11.5027 10.6633L12.1886 8.74325C12.2978 8.43833 12.7612 8.60371 12.6522 8.90862L12.1412 10.3394L13.5717 9.82828C13.8769 9.71988 14.0427 10.1828 13.7373 10.2917C13.4981 10.377 11.835 10.9922 11.7346 10.9922V10.9921Z" fill="#212529" stroke="#212529" stroke-width="0.2"/>
<path fill-rule="evenodd" clip-rule="evenodd" d="M19.7177 4.24289C19.6548 4.24289 19.5917 4.21878 19.5436 4.17079L18.3094 2.93661C18.08 2.7075 18.4286 2.3594 18.6576 2.58863L19.8918 3.82268C20.0474 3.97822 19.9348 4.24277 19.7178 4.24277L19.7177 4.24289Z" fill="#212529"/>
<path fill-rule="evenodd" clip-rule="evenodd" d="M19.1073 4.8533C19.0444 4.8533 18.9813 4.82919 18.9332 4.7812L17.699 3.54715C17.4697 3.31803 17.8183 2.96993 18.0471 3.19917L19.2813 4.43322C19.437 4.58875 19.3244 4.8533 19.1073 4.8533Z" fill="#212529"/>
</svg>
