<svg width="16" height="21" viewBox="0 0 16 21" fill="none" xmlns="http://www.w3.org/2000/svg">
<path fill-rule="evenodd" clip-rule="evenodd" d="M10.51 8.46511H3.99265C3.80515 8.46511 3.6543 8.31426 3.6543 8.12676V6.70858C3.6543 6.52278 3.80515 6.37277 3.99265 6.37277H10.51C10.6975 6.37277 10.8483 6.52363 10.8483 6.70858V8.12676C10.8483 8.31426 10.6975 8.46511 10.51 8.46511ZM4.32931 7.79098H10.1724V7.04693H4.32931V7.79098Z" fill="black"/>
<path fill-rule="evenodd" clip-rule="evenodd" d="M11.9563 10.0469H2.54636C2.35886 10.0469 2.20801 9.89608 2.20801 9.70858C2.20801 9.52108 2.35886 9.37277 2.54636 9.37277H11.9563C12.1438 9.37277 12.2947 9.52363 12.2947 9.70858C12.2947 9.89437 12.1438 10.0469 11.9563 10.0469Z" fill="black"/>
<path fill-rule="evenodd" clip-rule="evenodd" d="M11.9563 11.7507H2.54636C2.35886 11.7507 2.20801 11.5999 2.20801 11.4124C2.20801 11.2249 2.35886 11.074 2.54636 11.074H11.9563C12.1438 11.074 12.2947 11.2249 12.2947 11.4124C12.2947 11.5999 12.1438 11.7507 11.9563 11.7507Z" fill="black"/>
<path fill-rule="evenodd" clip-rule="evenodd" d="M11.9563 13.4501H2.54636C2.35886 13.4501 2.20801 13.2993 2.20801 13.1118C2.20801 12.9243 2.35886 12.7734 2.54636 12.7734H11.9563C12.1438 12.776 12.2947 12.9285 12.2947 13.1118C12.2947 13.295 12.1438 13.4501 11.9563 13.4501Z" fill="black"/>
<path fill-rule="evenodd" clip-rule="evenodd" d="M11.9563 15.1522H2.54636C2.35886 15.1522 2.20801 15.0013 2.20801 14.8164C2.20801 14.6306 2.35886 14.478 2.54636 14.478H11.9563C12.1438 14.478 12.2947 14.6289 12.2947 14.8164C12.2947 15.0039 12.1438 15.1522 11.9563 15.1522Z" fill="black"/>
<path fill-rule="evenodd" clip-rule="evenodd" d="M11.9563 16.8557H2.54636C2.35886 16.8557 2.20801 16.7049 2.20801 16.5174C2.20801 16.3299 2.35886 16.179 2.54636 16.179H11.9563C12.1438 16.179 12.2947 16.3299 12.2947 16.5174C12.2947 16.7049 12.1438 16.8557 11.9563 16.8557Z" fill="black"/>
<path fill-rule="evenodd" clip-rule="evenodd" d="M4.33329 4.422H0.835614C0.700104 4.422 0.578225 4.33933 0.525382 4.21234C0.473393 4.0862 0.503223 3.94216 0.596972 3.84586L4.09552 0.349059C4.19353 0.251048 4.33587 0.222924 4.46455 0.277469C4.59069 0.327754 4.67165 0.452185 4.67165 0.587702V4.08538C4.67165 4.27288 4.5208 4.42373 4.3333 4.42373L4.33329 4.422ZM1.6538 3.74529H3.99925V1.4042L1.6538 3.74529Z" fill="black"/>
<path fill-rule="evenodd" clip-rule="evenodd" d="M13.6625 18.5689H0.835804C0.650009 18.5689 0.5 18.418 0.5 18.2305V4.0836C0.5 3.8961 0.650853 3.74525 0.835804 3.74525H3.99682V0.586628C3.99682 0.400833 4.14768 0.250824 4.33263 0.250824H13.6625C13.85 0.250824 14.0009 0.401677 14.0009 0.586628V18.2312C14.0009 18.4187 13.85 18.5696 13.6625 18.5696L13.6625 18.5689ZM1.17595 17.8947H13.3285L13.3293 0.924329H4.6736V4.0836C4.6736 4.2711 4.52275 4.42196 4.33525 4.42196H1.17597L1.17595 17.8947Z" fill="black"/>
<path fill-rule="evenodd" clip-rule="evenodd" d="M15.2334 20.1379H2.40672C2.21921 20.1379 2.06836 19.987 2.06836 19.7995V18.2305C2.06836 18.0447 2.21921 17.8947 2.40672 17.8947H13.3269V2.15482C13.3269 1.96732 13.4778 1.81647 13.6627 1.81647H15.2318C15.4193 1.81647 15.5701 1.96732 15.5701 2.15482V19.7994C15.5701 19.9869 15.4193 20.1378 15.2318 20.1378L15.2334 20.1379ZM2.74512 19.4612H14.8935V2.49316H14.0012V18.2304C14.0012 18.4179 13.8503 18.5688 13.6628 18.5688H2.7452L2.74512 19.4612Z" fill="black"/>
</svg>
