<svg width="24" height="24" viewBox="0 0 24 24" fill="none" xmlns="http://www.w3.org/2000/svg">
<g clip-path="url(#clip0_6868_4648)">
<path d="M19.468 7.29634L20.3216 6.44279H19.1145H17.0001C13.0421 6.44279 9.83341 9.65145 9.83341 13.6095C9.83341 14.0697 9.46032 14.4428 9.00008 14.4428C8.53984 14.4428 8.16675 14.0697 8.16675 13.6095C8.16675 8.73093 12.1216 4.77612 17.0001 4.77612H19.1145H20.3216L19.468 3.92256L18.0203 2.47486C17.6949 2.14942 17.6949 1.62179 18.0203 1.29636C18.3457 0.970925 18.8734 0.970923 19.1988 1.29636L22.9227 5.02021L23.1584 5.2559C23.3536 5.45116 23.3536 5.76774 23.1584 5.96301L22.9227 6.1987L19.1988 9.92257C18.8734 10.248 18.3457 10.248 18.0203 9.92257C17.6949 9.59714 17.6949 9.06951 18.0203 8.74407L19.468 7.29634Z" fill="#6B54C8" stroke="#6B54C8"/>
<path d="M20.0888 19.0755V13.2901C20.0888 12.9758 20.3437 12.7209 20.658 12.7209C20.9724 12.7209 21.2272 12.9758 21.2272 13.2901L21.2273 20.235C21.2273 21.0635 20.5557 21.7351 19.7273 21.7351H3C2.17157 21.7351 1.5 21.0635 1.5 20.2351V7.22095C1.5 6.39252 2.17157 5.72095 3 5.72095H5.92472C6.31885 5.72095 6.63836 6.04045 6.63836 6.43458C6.63836 6.82871 6.31885 7.14822 5.92472 7.14822H4.13836C3.30993 7.14822 2.63836 7.81979 2.63836 8.64822V19.0755C2.63836 19.9039 3.30993 20.5755 4.13836 20.5755H18.5888C19.4173 20.5755 20.0888 19.9039 20.0888 19.0755Z" fill="#6B54C8" stroke="#6B54C8"/>
</g>
<defs>
<clipPath id="clip0_6868_4648">
<rect width="24" height="24" fill="white"/>
</clipPath>
</defs>
</svg>
