<svg width="24" height="24" viewBox="0 0 24 24" fill="none" xmlns="http://www.w3.org/2000/svg">
<path d="M21.658 13.1116C21.9724 13.1116 22.2272 13.3664 22.2272 13.6808L22.2273 20.6257C22.2273 21.4541 21.5557 22.1257 20.7273 22.1257H4C3.17157 22.1257 2.5 21.4541 2.5 20.6257V13.6808C2.5 13.3664 2.75483 13.1116 3.06918 13.1116C3.38353 13.1116 3.63836 13.3664 3.63836 13.6807V19.4661C3.63836 20.2945 4.30993 20.9661 5.13836 20.9661H19.5888C20.4173 20.9661 21.0888 20.2945 21.0888 19.4661V13.6808C21.0888 13.3664 21.3437 13.1116 21.658 13.1116Z" fill="#6B54C8" stroke="#6B54C8"/>
<path d="M11.8368 12.3742V13.5813L10.9832 12.7277L9.67128 11.4158C9.39468 11.1392 8.94622 11.1392 8.66961 11.4158C8.39301 11.6924 8.39301 12.1408 8.66961 12.4174L12.0442 15.7921L12.1915 15.9393C12.3868 16.1346 12.7034 16.1346 12.8986 15.9393L13.0459 15.7921L16.4205 12.4174C16.6971 12.1408 16.6971 11.6924 16.4205 11.4158C16.1439 11.1392 15.6955 11.1392 15.4189 11.4158L14.1069 12.7277L13.2534 13.5813V12.3742V10.4581C13.2534 6.84533 16.1821 3.91659 19.7948 3.91659C20.186 3.91659 20.5031 3.59947 20.5031 3.20829C20.5031 2.81711 20.186 2.5 19.7948 2.5C15.3997 2.5 11.8368 6.06293 11.8368 10.4581V12.3742Z" fill="#6B54C8" stroke="#6B54C8"/>
</svg>
