<svg width="30" height="40" viewBox="0 0 30 40" fill="none" xmlns="http://www.w3.org/2000/svg">
<path d="M9.15878 8.22995V8.47995H9.40878H19.4617H19.7117V8.22995V6.64265C19.7117 6.51617 19.7982 6.42969 19.9247 6.42969H24.6866C24.813 6.42969 24.8995 6.51617 24.8995 6.64265V34.222C24.8995 34.3485 24.813 34.435 24.6866 34.435H4.18391C4.05743 34.435 3.97095 34.3485 3.97095 34.222V6.64265C3.97095 6.51617 4.05743 6.42969 4.18391 6.42969H8.94582C9.07229 6.42969 9.15878 6.51617 9.15878 6.64265V8.22995Z" fill="#FFDFC4" stroke="#828282" strokeWidth="0.5"/>
<path d="M11.7898 4.37914H12.1366L12.027 4.05009C11.9756 3.89608 11.9737 3.73796 11.9737 3.53391C11.9737 2.15081 13.0522 1.07227 14.4353 1.07227C15.8184 1.07227 16.8969 2.15081 16.8969 3.53391C16.8969 3.73796 16.895 3.89608 16.8436 4.05009L16.7339 4.37914H17.0808H19.9247C19.9405 4.37914 19.9756 4.38859 20.0117 4.42866C20.0459 4.46662 20.0715 4.52318 20.0715 4.59211V8.6265C20.0715 8.69542 20.0459 8.75198 20.0117 8.78994C19.9756 8.83002 19.9405 8.83946 19.9247 8.83946H8.94587C8.81939 8.83946 8.73291 8.75298 8.73291 8.6265V4.59211C8.73291 4.46563 8.81939 4.37914 8.94587 4.37914H11.7898Z" fill="#F8CEAA" stroke="#828282" strokeWidth="0.5"/>
<path d="M6.04449 13.929H7.8259C8.06724 13.929 8.25663 13.7396 8.25663 13.4983V11.7169C8.25663 11.4755 8.06724 11.2861 7.8259 11.2861H6.04449C5.80315 11.2861 5.61377 11.4755 5.61377 11.7169V13.4983C5.61377 13.7396 5.80315 13.929 6.04449 13.929Z" fill="white" stroke="#4F4F4F" strokeWidth="0.5"/>
<path d="M9.07812 11.5361H23.3638" stroke="#4F4F4F" strokeWidth="0.7"/>
<path d="M9.07812 12.6074H21.9353" stroke="#4F4F4F" strokeWidth="0.7"/>
<path d="M9.07812 13.6787H20.5067" stroke="#4F4F4F" strokeWidth="0.7"/>
<path d="M6.04449 19.6438H7.8259C8.06724 19.6438 8.25663 19.4545 8.25663 19.2131V17.4317C8.25663 17.1904 8.06724 17.001 7.8259 17.001H6.04449C5.80315 17.001 5.61377 17.1904 5.61377 17.4317V19.2131C5.61377 19.4545 5.80315 19.6438 6.04449 19.6438Z" fill="white" stroke="#4F4F4F" strokeWidth="0.5"/>
<path d="M9.07812 17.251H23.3638" stroke="#4F4F4F" strokeWidth="0.7"/>
<path d="M9.07812 18.3223H21.9353" stroke="#4F4F4F" strokeWidth="0.7"/>
<path d="M9.07812 19.3936H20.5067" stroke="#4F4F4F" strokeWidth="0.7"/>
<path d="M6.04449 25.3577H7.8259C8.06724 25.3577 8.25663 25.1683 8.25663 24.927V23.1456C8.25663 22.9042 8.06724 22.7148 7.8259 22.7148H6.04449C5.80315 22.7148 5.61377 22.9042 5.61377 23.1456V24.927C5.61377 25.1683 5.80315 25.3577 6.04449 25.3577Z" fill="white" stroke="#4F4F4F" strokeWidth="0.5"/>
<path d="M9.07812 22.9648H23.3638" stroke="#4F4F4F" strokeWidth="0.7"/>
<path d="M9.07812 24.0361H21.9353" stroke="#4F4F4F" strokeWidth="0.7"/>
<path d="M9.07812 25.1074H20.5067" stroke="#4F4F4F" strokeWidth="0.7"/>
<path d="M6.04449 31.0725H7.8259C8.06724 31.0725 8.25663 30.8832 8.25663 30.6418V28.8604C8.25663 28.6191 8.06724 28.4297 7.8259 28.4297H6.04449C5.80315 28.4297 5.61377 28.6191 5.61377 28.8604V30.6418C5.61377 30.8832 5.80315 31.0725 6.04449 31.0725Z" fill="white" stroke="#4F4F4F" strokeWidth="0.5"/>
<path d="M9.07812 28.6797H23.3638" stroke="#4F4F4F" strokeWidth="0.7"/>
<path d="M9.07812 29.751H21.9353" stroke="#4F4F4F" strokeWidth="0.7"/>
<path d="M9.07812 30.8223H20.5067" stroke="#4F4F4F" strokeWidth="0.7"/>
<path d="M29.011 12.918H28.386V12.293C28.386 12.2515 28.3695 12.2118 28.3402 12.1825C28.3109 12.1532 28.2712 12.1367 28.2297 12.1367C28.1883 12.1367 28.1486 12.1532 28.1193 12.1825C28.0899 12.2118 28.0735 12.2515 28.0735 12.293V12.918H27.4485C27.407 12.918 27.3673 12.9344 27.338 12.9637C27.3087 12.993 27.2922 13.0328 27.2922 13.0742C27.2922 13.1157 27.3087 13.1554 27.338 13.1847C27.3673 13.214 27.407 13.2305 27.4485 13.2305H28.0735V13.8555C28.0735 13.8969 28.0899 13.9367 28.1193 13.966C28.1486 13.9953 28.1883 14.0117 28.2297 14.0117C28.2712 14.0117 28.3109 13.9953 28.3402 13.966C28.3695 13.9367 28.386 13.8969 28.386 13.8555V13.2305H29.011C29.0524 13.2305 29.0922 13.214 29.1215 13.1847C29.1508 13.1554 29.1672 13.1157 29.1672 13.0742C29.1672 13.0328 29.1508 12.993 29.1215 12.9637C29.0922 12.9344 29.0524 12.918 29.011 12.918Z" fill="#40BDFF"/>
<path d="M25.1326 5.52637C24.9471 5.52637 24.7659 5.47138 24.6117 5.36837C24.4575 5.26536 24.3374 5.11894 24.2664 4.94763C24.1955 4.77633 24.1769 4.58783 24.2131 4.40597C24.2493 4.22411 24.3385 4.05707 24.4697 3.92595C24.6008 3.79484 24.7678 3.70556 24.9497 3.66938C25.1315 3.63321 25.32 3.65177 25.4913 3.72273C25.6626 3.79369 25.8091 3.91385 25.9121 4.06802C26.0151 4.22219 26.0701 4.40345 26.0701 4.58887C26.0701 4.83751 25.9713 5.07596 25.7955 5.25178C25.6197 5.4276 25.3812 5.52637 25.1326 5.52637ZM25.1326 3.96387C25.009 3.96387 24.8881 4.00052 24.7853 4.0692C24.6826 4.13788 24.6024 4.23549 24.5551 4.34969C24.5078 4.46389 24.4955 4.58956 24.5196 4.7108C24.5437 4.83204 24.6032 4.9434 24.6906 5.03081C24.778 5.11822 24.8894 5.17774 25.0106 5.20186C25.1319 5.22597 25.2575 5.2136 25.3717 5.16629C25.4859 5.11899 25.5836 5.03888 25.6522 4.9361C25.7209 4.83332 25.7576 4.71248 25.7576 4.58887C25.7576 4.42311 25.6917 4.26414 25.5745 4.14693C25.4573 4.02972 25.2983 3.96387 25.1326 3.96387Z" fill="#40BDFF"/>
<path d="M1.08691 14.0801C0.901494 14.0801 0.720238 14.0251 0.566067 13.9221C0.411896 13.8191 0.291734 13.6727 0.220777 13.5013C0.14982 13.33 0.131255 13.1415 0.167428 12.9597C0.203602 12.7778 0.292888 12.6108 0.424 12.4797C0.555112 12.3486 0.722158 12.2593 0.904016 12.2231C1.08587 12.1869 1.27437 12.2055 1.44568 12.2764C1.61698 12.3474 1.7634 12.4676 1.86642 12.6217C1.96943 12.7759 2.02441 12.9572 2.02441 13.1426C2.02441 13.3912 1.92564 13.6297 1.74983 13.8055C1.57401 13.9813 1.33555 14.0801 1.08691 14.0801ZM1.08691 12.5176C0.9633 12.5176 0.842464 12.5542 0.739683 12.6229C0.636902 12.6916 0.556795 12.7892 0.50949 12.9034C0.462185 13.0176 0.449807 13.1433 0.473923 13.2645C0.498038 13.3857 0.557564 13.4971 0.644971 13.5845C0.732379 13.6719 0.843743 13.7315 0.964982 13.7556C1.08622 13.7797 1.21189 13.7673 1.32609 13.72C1.44029 13.6727 1.53791 13.5926 1.60658 13.4898C1.67526 13.387 1.71191 13.2662 1.71191 13.1426C1.71191 12.9768 1.64607 12.8178 1.52886 12.7006C1.41165 12.5834 1.25267 12.5176 1.08691 12.5176Z" fill="#FFDD00"/>
<path d="M2.67163 24.2256H2.26694L2.55288 23.9396C2.57848 23.9098 2.59185 23.8713 2.59034 23.832C2.58882 23.7927 2.57252 23.7554 2.54469 23.7275C2.51686 23.6997 2.47956 23.6834 2.44023 23.6819C2.40091 23.6804 2.36246 23.6937 2.33257 23.7193L2.04663 24.0053V23.6006C2.04663 23.5591 2.03017 23.5194 2.00087 23.4901C1.97156 23.4608 1.93182 23.4443 1.89038 23.4443C1.84894 23.4443 1.8092 23.4608 1.7799 23.4901C1.75059 23.5194 1.73413 23.5591 1.73413 23.6006V24.0053L1.44819 23.7193C1.4183 23.6937 1.37985 23.6804 1.34053 23.6819C1.3012 23.6834 1.2639 23.6997 1.23607 23.7275C1.20825 23.7554 1.19194 23.7927 1.19043 23.832C1.18891 23.8713 1.20228 23.9098 1.22788 23.9396L1.51382 24.2256H1.10913C1.06769 24.2256 1.02795 24.242 0.998645 24.2714C0.969343 24.3007 0.952881 24.3404 0.952881 24.3818C0.952881 24.4233 0.969343 24.463 0.998645 24.4923C1.02795 24.5216 1.06769 24.5381 1.10913 24.5381H1.51382L1.22788 24.824C1.20228 24.8539 1.18891 24.8924 1.19043 24.9317C1.19194 24.971 1.20825 25.0083 1.23607 25.0361C1.2639 25.064 1.3012 25.0803 1.34053 25.0818C1.37985 25.0833 1.4183 25.0699 1.44819 25.0443L1.73413 24.76V25.1646C1.73413 25.2061 1.75059 25.2458 1.7799 25.2751C1.8092 25.3044 1.84894 25.3209 1.89038 25.3209C1.93182 25.3209 1.97156 25.3044 2.00087 25.2751C2.03017 25.2458 2.04663 25.2061 2.04663 25.1646V24.76L2.33257 25.0459C2.36246 25.0715 2.40091 25.0849 2.44023 25.0834C2.47956 25.0818 2.51686 25.0655 2.54469 25.0377C2.57252 25.0099 2.58882 24.9726 2.59034 24.9333C2.59185 24.8939 2.57848 24.8555 2.55288 24.8256L2.26694 24.5396H2.67163C2.71307 24.5396 2.75281 24.5232 2.78212 24.4939C2.81142 24.4646 2.82788 24.4248 2.82788 24.3834C2.82788 24.342 2.81142 24.3022 2.78212 24.2729C2.75281 24.2436 2.71307 24.2271 2.67163 24.2271V24.2256Z" fill="#40BDFF"/>
<path fillRule="evenodd" clipRule="evenodd" d="M24.4394 28.5713C27.3984 28.5713 29.7968 30.9697 29.7968 33.9287C29.7968 36.8872 27.3984 39.2856 24.4394 39.2856C21.4809 39.2856 19.0825 36.8872 19.0825 33.9287C19.0825 30.9697 21.4809 28.5713 24.4394 28.5713Z" fill="#FD7E14"/>
<path d="M23.9913 31.4456L21.6519 35.3511C21.6037 35.4346 21.5782 35.5293 21.5779 35.6258C21.5776 35.7222 21.6026 35.8171 21.6504 35.9009C21.6981 35.9847 21.767 36.0545 21.8501 36.1034C21.9333 36.1523 22.0278 36.1786 22.1242 36.1797H26.8031C26.8995 36.1786 26.994 36.1523 27.0771 36.1034C27.1603 36.0545 27.2291 35.9847 27.2769 35.9009C27.3247 35.8171 27.3497 35.7222 27.3494 35.6258C27.3491 35.5293 27.3236 35.4346 27.2754 35.3511L24.9359 31.4456C24.8867 31.3644 24.8174 31.2973 24.7346 31.2507C24.6519 31.2042 24.5586 31.1797 24.4636 31.1797C24.3687 31.1797 24.2754 31.2042 24.1926 31.2507C24.1099 31.2973 24.0406 31.3644 23.9913 31.4456V31.4456Z" stroke="white" strokeLinecap="round" strokeLinejoin="round"/>
<path d="M24.4636 32.8652V33.97" stroke="white" strokeLinecap="round" strokeLinejoin="round"/>
<path d="M24.4636 35.0752H24.4657" stroke="white" strokeLinecap="round" strokeLinejoin="round"/>
</svg>
