<svg width="33" height="37" viewBox="0 0 33 37" fill="none" xmlns="http://www.w3.org/2000/svg">
<path d="M8.37289 8.22995V8.47995H8.62289H18.6758H18.9258V8.22995V6.64265C18.9258 6.51617 19.0123 6.42969 19.1388 6.42969H23.9007C24.0271 6.42969 24.1136 6.51617 24.1136 6.64265V34.222C24.1136 34.3485 24.0271 34.435 23.9007 34.435H3.39802C3.27154 34.435 3.18506 34.3485 3.18506 34.222V6.64265C3.18506 6.51617 3.27154 6.42969 3.39802 6.42969H8.15993C8.2864 6.42969 8.37289 6.51617 8.37289 6.64265V8.22995Z" fill="#FFE5E5" stroke="#828282" strokeWidth="0.5"/>
<path d="M11.0041 4.37914H11.351L11.2413 4.05009C11.19 3.89608 11.188 3.73796 11.188 3.53391C11.188 2.15081 12.2666 1.07227 13.6496 1.07227C15.0327 1.07227 16.1113 2.15081 16.1113 3.53391C16.1113 3.73796 16.1093 3.89608 16.058 4.05009L15.9483 4.37914H16.2951H19.1391C19.1549 4.37914 19.19 4.38859 19.2261 4.42866C19.2602 4.46662 19.2859 4.52318 19.2859 4.59211V8.6265C19.2859 8.69542 19.2602 8.75198 19.2261 8.78994C19.19 8.83002 19.1549 8.83946 19.1391 8.83946H8.16023C8.03375 8.83946 7.94727 8.75298 7.94727 8.6265V4.59211C7.94727 4.46563 8.03375 4.37914 8.16023 4.37914H11.0041Z" fill="#F5B5B5" stroke="#828282" strokeWidth="0.5"/>
<path d="M5.25885 13.929H7.04026C7.2816 13.929 7.47098 13.7396 7.47098 13.4983V11.7169C7.47098 11.4755 7.2816 11.2861 7.04026 11.2861H5.25885C5.01751 11.2861 4.82812 11.4755 4.82812 11.7169V13.4983C4.82812 13.7396 5.01751 13.929 5.25885 13.929Z" fill="white" stroke="#4F4F4F" strokeWidth="0.5"/>
<path d="M6.50677 12.25L5.79248 12.9643" stroke="#EC1414" strokeWidth="0.5" strokeLinecap="round" strokeLinejoin="round"/>
<path d="M5.79248 12.25L6.50677 12.9643" stroke="#EC1414" strokeWidth="0.5" strokeLinecap="round" strokeLinejoin="round"/>
<path d="M8.29248 11.5361H22.5782" stroke="#4F4F4F" strokeWidth="0.7"/>
<path d="M8.29248 12.6074H21.1496" stroke="#4F4F4F" strokeWidth="0.7"/>
<path d="M8.29248 13.6787H19.7211" stroke="#4F4F4F" strokeWidth="0.7"/>
<path d="M5.25885 19.6438H7.04026C7.2816 19.6438 7.47098 19.4545 7.47098 19.2131V17.4317C7.47098 17.1904 7.2816 17.001 7.04026 17.001H5.25885C5.01751 17.001 4.82812 17.1904 4.82812 17.4317V19.2131C4.82812 19.4545 5.01751 19.6438 5.25885 19.6438Z" fill="white" stroke="#4F4F4F" strokeWidth="0.5"/>
<path d="M6.50677 17.9648L5.79248 18.6791" stroke="#EC1414" strokeWidth="0.5" strokeLinecap="round" strokeLinejoin="round"/>
<path d="M5.79248 17.9648L6.50677 18.6791" stroke="#EC1414" strokeWidth="0.5" strokeLinecap="round" strokeLinejoin="round"/>
<path d="M8.29248 17.251H22.5782" stroke="#4F4F4F" strokeWidth="0.7"/>
<path d="M8.29248 18.3223H21.1496" stroke="#4F4F4F" strokeWidth="0.7"/>
<path d="M8.29248 19.3936H19.7211" stroke="#4F4F4F" strokeWidth="0.7"/>
<path d="M5.25885 25.3577H7.04026C7.2816 25.3577 7.47098 25.1683 7.47098 24.927V23.1456C7.47098 22.9042 7.2816 22.7148 7.04026 22.7148H5.25885C5.01751 22.7148 4.82812 22.9042 4.82812 23.1456V24.927C4.82812 25.1683 5.01751 25.3577 5.25885 25.3577Z" fill="white" stroke="#4F4F4F" strokeWidth="0.5"/>
<path d="M6.50677 23.6787L5.79248 24.393" stroke="#EC1414" strokeWidth="0.5" strokeLinecap="round" strokeLinejoin="round"/>
<path d="M5.79248 23.6787L6.50677 24.393" stroke="#EC1414" strokeWidth="0.5" strokeLinecap="round" strokeLinejoin="round"/>
<path d="M8.29248 22.9648H22.5782" stroke="#4F4F4F" strokeWidth="0.7"/>
<path d="M8.29248 24.0361H21.1496" stroke="#4F4F4F" strokeWidth="0.7"/>
<path d="M8.29248 25.1074H19.7211" stroke="#4F4F4F" strokeWidth="0.7"/>
<path d="M5.25885 31.0725H7.04026C7.2816 31.0725 7.47098 30.8832 7.47098 30.6418V28.8604C7.47098 28.6191 7.2816 28.4297 7.04026 28.4297H5.25885C5.01751 28.4297 4.82812 28.6191 4.82812 28.8604V30.6418C4.82812 30.8832 5.01751 31.0725 5.25885 31.0725Z" fill="white" stroke="#4F4F4F" strokeWidth="0.5"/>
<path d="M6.50677 29.3936L5.79248 30.1078" stroke="#EC1414" strokeWidth="0.5" strokeLinecap="round" strokeLinejoin="round"/>
<path d="M5.79248 29.3936L6.50677 30.1078" stroke="#EC1414" strokeWidth="0.5" strokeLinecap="round" strokeLinejoin="round"/>
<path d="M8.29248 28.6797H22.5782" stroke="#4F4F4F" strokeWidth="0.7"/>
<path d="M8.29248 29.751H21.1496" stroke="#4F4F4F" strokeWidth="0.7"/>
<path d="M8.29248 30.8223H19.7211" stroke="#4F4F4F" strokeWidth="0.7"/>
<path fillRule="evenodd" clipRule="evenodd" d="M25.9628 36.18C25.6113 36.18 25.3301 35.8989 25.3301 35.5708V23.6434C25.3301 23.3154 25.6113 23.0342 25.9628 23.0342C26.3143 23.0342 26.5955 23.3154 26.5955 23.6434V35.5708C26.5955 35.8989 26.3143 36.18 25.9628 36.18Z" fill="#1F4188"/>
<path d="M32.7188 31.3809H32.0938V30.7559C32.0938 30.7144 32.0773 30.6747 32.048 30.6454C32.0187 30.6161 31.9789 30.5996 31.9375 30.5996C31.8961 30.5996 31.8563 30.6161 31.827 30.6454C31.7977 30.6747 31.7812 30.7144 31.7812 30.7559V31.3809H31.1562C31.1148 31.3809 31.0751 31.3973 31.0458 31.4266C31.0165 31.4559 31 31.4957 31 31.5371C31 31.5785 31.0165 31.6183 31.0458 31.6476C31.0751 31.6769 31.1148 31.6934 31.1562 31.6934H31.7812V32.3184C31.7812 32.3598 31.7977 32.3995 31.827 32.4288C31.8563 32.4581 31.8961 32.4746 31.9375 32.4746C31.9789 32.4746 32.0187 32.4581 32.048 32.4288C32.0773 32.3995 32.0938 32.3598 32.0938 32.3184V31.6934H32.7188C32.7602 31.6934 32.7999 31.6769 32.8292 31.6476C32.8585 31.6183 32.875 31.5785 32.875 31.5371C32.875 31.4957 32.8585 31.4559 32.8292 31.4266C32.7999 31.3973 32.7602 31.3809 32.7188 31.3809Z" fill="#40BDFF"/>
<path d="M24.5547 5.41797C24.3693 5.41797 24.188 5.36299 24.0338 5.25997C23.8797 5.15696 23.7595 5.01054 23.6886 4.83924C23.6176 4.66793 23.599 4.47943 23.6352 4.29757C23.6714 4.11571 23.7607 3.94867 23.8918 3.81756C24.0229 3.68644 24.1899 3.59716 24.3718 3.56098C24.5536 3.52481 24.7421 3.54337 24.9135 3.61433C25.0848 3.68529 25.2312 3.80545 25.3342 3.95962C25.4372 4.11379 25.4922 4.29505 25.4922 4.48047C25.4922 4.72911 25.3934 4.96757 25.2176 5.14338C25.0418 5.3192 24.8033 5.41797 24.5547 5.41797ZM24.5547 3.85547C24.4311 3.85547 24.3102 3.89212 24.2075 3.9608C24.1047 4.02948 24.0246 4.12709 23.9773 4.24129C23.93 4.3555 23.9176 4.48116 23.9417 4.6024C23.9658 4.72364 24.0253 4.835 24.1127 4.92241C24.2002 5.00982 24.3115 5.06934 24.4328 5.09346C24.554 5.11758 24.6797 5.1052 24.7939 5.05789C24.9081 5.01059 25.0057 4.93048 25.0744 4.8277C25.143 4.72492 25.1797 4.60408 25.1797 4.48047C25.1797 4.31471 25.1138 4.15574 24.9966 4.03853C24.8794 3.92132 24.7204 3.85547 24.5547 3.85547Z" fill="#40BDFF"/>
<path d="M26.2231 19.6855C26.0377 19.6855 25.8565 19.6306 25.7023 19.5276C25.5481 19.4245 25.428 19.2781 25.357 19.1068C25.2861 18.9355 25.2675 18.747 25.3037 18.5652C25.3398 18.3833 25.4291 18.2162 25.5602 18.0851C25.6913 17.954 25.8584 17.8647 26.0402 17.8286C26.2221 17.7924 26.4106 17.811 26.5819 17.8819C26.7532 17.9529 26.8996 18.073 27.0026 18.2272C27.1057 18.3814 27.1606 18.5626 27.1606 18.748C27.1606 18.9967 27.0619 19.2351 26.8861 19.411C26.7102 19.5868 26.4718 19.6855 26.2231 19.6855ZM26.2231 18.123C26.0995 18.123 25.9787 18.1597 25.8759 18.2284C25.7731 18.2971 25.693 18.3947 25.6457 18.5089C25.5984 18.6231 25.586 18.7487 25.6102 18.87C25.6343 18.9912 25.6938 19.1026 25.7812 19.19C25.8686 19.2774 25.98 19.3369 26.1012 19.361C26.2225 19.3852 26.3481 19.3728 26.4623 19.3255C26.5765 19.2782 26.6741 19.1981 26.7428 19.0953C26.8115 18.9925 26.8481 18.8717 26.8481 18.748C26.8481 18.5823 26.7823 18.4233 26.6651 18.3061C26.5479 18.1889 26.3889 18.123 26.2231 18.123Z" fill="#FFDD00"/>
<path d="M2.09375 24.1172H1.68906L1.975 23.8312C2.0006 23.8014 2.01397 23.7629 2.01245 23.7236C2.01094 23.6843 1.99463 23.647 1.96681 23.6191C1.93898 23.5913 1.90168 23.575 1.86235 23.5735C1.82303 23.572 1.78458 23.5853 1.75469 23.6109L1.46875 23.8969V23.4922C1.46875 23.4507 1.45229 23.411 1.42299 23.3817C1.39368 23.3524 1.35394 23.3359 1.3125 23.3359C1.27106 23.3359 1.23132 23.3524 1.20201 23.3817C1.17271 23.411 1.15625 23.4507 1.15625 23.4922V23.8969L0.870313 23.6109C0.840422 23.5853 0.801972 23.572 0.762648 23.5735C0.723324 23.575 0.686021 23.5913 0.658193 23.6191C0.630366 23.647 0.614064 23.6843 0.612545 23.7236C0.611026 23.7629 0.624402 23.8014 0.65 23.8312L0.935938 24.1172H0.53125C0.48981 24.1172 0.450067 24.1336 0.420764 24.163C0.391462 24.1923 0.375 24.232 0.375 24.2734C0.375 24.3149 0.391462 24.3546 0.420764 24.3839C0.450067 24.4132 0.48981 24.4297 0.53125 24.4297H0.935938L0.65 24.7156C0.624402 24.7455 0.611026 24.784 0.612545 24.8233C0.614064 24.8626 0.630366 24.8999 0.658193 24.9277C0.686021 24.9556 0.723324 24.9719 0.762648 24.9734C0.801972 24.9749 0.840422 24.9615 0.870313 24.9359L1.15625 24.6516V25.0562C1.15625 25.0977 1.17271 25.1374 1.20201 25.1667C1.23132 25.196 1.27106 25.2125 1.3125 25.2125C1.35394 25.2125 1.39368 25.196 1.42299 25.1667C1.45229 25.1374 1.46875 25.0977 1.46875 25.0562V24.6516L1.75469 24.9375C1.78458 24.9631 1.82303 24.9765 1.86235 24.975C1.90168 24.9734 1.93898 24.9571 1.96681 24.9293C1.99463 24.9015 2.01094 24.8642 2.01245 24.8249C2.01397 24.7855 2.0006 24.7471 1.975 24.7172L1.68906 24.4312H2.09375C2.13519 24.4312 2.17493 24.4148 2.20424 24.3855C2.23354 24.3562 2.25 24.3164 2.25 24.275C2.25 24.2336 2.23354 24.1938 2.20424 24.1645C2.17493 24.1352 2.13519 24.1187 2.09375 24.1187V24.1172Z" fill="#40BDFF"/>
<path fillRule="evenodd" clipRule="evenodd" d="M1.75134 21.6283C1.39985 21.6283 1.11865 21.3705 1.11865 21.019V9.11511C1.11865 8.76362 1.39985 8.48242 1.75134 8.48242C2.0794 8.48242 2.3606 8.76362 2.3606 9.11511V21.019C2.3606 21.3705 2.0794 21.6283 1.75134 21.6283Z" fill="#1F4188"/>
</svg>
