<svg width="30" height="40" viewBox="0 0 30 40" fill="none" xmlns="http://www.w3.org/2000/svg">
<path d="M9.15853 8.22995V8.47995H9.40853H19.4614H19.7114V8.22995V6.64265C19.7114 6.51617 19.7979 6.42969 19.9244 6.42969H24.6863C24.8128 6.42969 24.8993 6.51617 24.8993 6.64265V34.222C24.8993 34.3485 24.8128 34.435 24.6863 34.435H4.18367C4.05719 34.435 3.9707 34.3485 3.9707 34.222V6.64265C3.9707 6.51617 4.05719 6.42969 4.18367 6.42969H8.94557C9.07205 6.42969 9.15853 6.51617 9.15853 6.64265V8.22995Z" fill="#EBECFF" stroke="#828282" strokeWidth="0.5"/>
<path d="M11.7893 4.37914H12.1362L12.0265 4.05009C11.9751 3.89608 11.9732 3.73796 11.9732 3.53391C11.9732 2.15081 13.0517 1.07227 14.4348 1.07227C15.8179 1.07227 16.8964 2.15081 16.8964 3.53391C16.8964 3.73796 16.8945 3.89608 16.8431 4.05009L16.7334 4.37914H17.0803H19.9242C19.94 4.37914 19.9752 4.38859 20.0112 4.42866C20.0454 4.46662 20.071 4.52318 20.071 4.59211V8.6265C20.071 8.69542 20.0454 8.75198 20.0112 8.78994C19.9752 8.83002 19.94 8.83946 19.9242 8.83946H8.94538C8.81891 8.83946 8.73242 8.75298 8.73242 8.6265V4.59211C8.73242 4.46563 8.81891 4.37914 8.94538 4.37914H11.7893Z" fill="#40BDFF" stroke="#828282" strokeWidth="0.5"/>
<path d="M6.04449 13.929H7.8259C8.06724 13.929 8.25663 13.7396 8.25663 13.4983V11.7169C8.25663 11.4755 8.06724 11.2861 7.8259 11.2861H6.04449C5.80315 11.2861 5.61377 11.4755 5.61377 11.7169V13.4983C5.61377 13.7396 5.80315 13.929 6.04449 13.929Z" fill="white" stroke="#4F4F4F" strokeWidth="0.5"/>
<path d="M9.07812 11.5361H23.3638" stroke="#4F4F4F" strokeWidth="0.7"/>
<path d="M9.07812 12.6074H21.9353" stroke="#4F4F4F" strokeWidth="0.7"/>
<path d="M9.07812 13.6787H20.5067" stroke="#4F4F4F" strokeWidth="0.7"/>
<path d="M6.04449 19.6438H7.8259C8.06724 19.6438 8.25663 19.4545 8.25663 19.2131V17.4317C8.25663 17.1904 8.06724 17.001 7.8259 17.001H6.04449C5.80315 17.001 5.61377 17.1904 5.61377 17.4317V19.2131C5.61377 19.4545 5.80315 19.6438 6.04449 19.6438Z" fill="white" stroke="#4F4F4F" strokeWidth="0.5"/>
<path d="M9.07812 17.251H23.3638" stroke="#4F4F4F" strokeWidth="0.7"/>
<path d="M9.07812 18.3223H21.9353" stroke="#4F4F4F" strokeWidth="0.7"/>
<path d="M9.07812 19.3936H20.5067" stroke="#4F4F4F" strokeWidth="0.7"/>
<path d="M6.04449 25.3577H7.8259C8.06724 25.3577 8.25663 25.1683 8.25663 24.927V23.1456C8.25663 22.9042 8.06724 22.7148 7.8259 22.7148H6.04449C5.80315 22.7148 5.61377 22.9042 5.61377 23.1456V24.927C5.61377 25.1683 5.80315 25.3577 6.04449 25.3577Z" fill="white" stroke="#4F4F4F" strokeWidth="0.5"/>
<path d="M9.07812 22.9648H23.3638" stroke="#4F4F4F" strokeWidth="0.7"/>
<path d="M9.07812 24.0361H21.9353" stroke="#4F4F4F" strokeWidth="0.7"/>
<path d="M9.07812 25.1074H20.5067" stroke="#4F4F4F" strokeWidth="0.7"/>
<path d="M6.04449 31.0725H7.8259C8.06724 31.0725 8.25663 30.8832 8.25663 30.6418V28.8604C8.25663 28.6191 8.06724 28.4297 7.8259 28.4297H6.04449C5.80315 28.4297 5.61377 28.6191 5.61377 28.8604V30.6418C5.61377 30.8832 5.80315 31.0725 6.04449 31.0725Z" fill="white" stroke="#4F4F4F" strokeWidth="0.5"/>
<path d="M9.07812 28.6797H23.3638" stroke="#4F4F4F" strokeWidth="0.7"/>
<path d="M9.07812 29.751H21.9353" stroke="#4F4F4F" strokeWidth="0.7"/>
<path d="M9.07812 30.8223H20.5067" stroke="#4F4F4F" strokeWidth="0.7"/>
<path fillRule="evenodd" clipRule="evenodd" d="M24.4663 28.5713C27.4402 28.5713 29.8506 30.9817 29.8506 33.9556C29.8506 36.929 27.4402 39.3394 24.4663 39.3394C21.4929 39.3394 19.0825 36.929 19.0825 33.9556C19.0825 30.9817 21.4929 28.5713 24.4663 28.5713Z" fill="#6B54C8"/>
<path d="M24.6489 31.4287V36.4287" stroke="white" strokeWidth="2" strokeLinecap="round" strokeLinejoin="round"/>
<path d="M22.1489 33.9287H27.1489" stroke="white" strokeWidth="2" strokeLinecap="round" strokeLinejoin="round"/>
<path d="M29.0112 12.918H28.3862V12.293C28.3862 12.2515 28.3698 12.2118 28.3405 12.1825C28.3112 12.1532 28.2714 12.1367 28.23 12.1367C28.1885 12.1367 28.1488 12.1532 28.1195 12.1825C28.0902 12.2118 28.0737 12.2515 28.0737 12.293V12.918H27.4487C27.4073 12.918 27.3675 12.9344 27.3382 12.9637C27.3089 12.993 27.2925 13.0328 27.2925 13.0742C27.2925 13.1157 27.3089 13.1554 27.3382 13.1847C27.3675 13.214 27.4073 13.2305 27.4487 13.2305H28.0737V13.8555C28.0737 13.8969 28.0902 13.9367 28.1195 13.966C28.1488 13.9953 28.1885 14.0117 28.23 14.0117C28.2714 14.0117 28.3112 13.9953 28.3405 13.966C28.3698 13.9367 28.3862 13.8969 28.3862 13.8555V13.2305H29.0112C29.0527 13.2305 29.0924 13.214 29.1217 13.1847C29.151 13.1554 29.1675 13.1157 29.1675 13.0742C29.1675 13.0328 29.151 12.993 29.1217 12.9637C29.0924 12.9344 29.0527 12.918 29.0112 12.918Z" fill="#40BDFF"/>
<path d="M25.1328 5.52637C24.9474 5.52637 24.7661 5.47138 24.612 5.36837C24.4578 5.26536 24.3376 5.11894 24.2667 4.94763C24.1957 4.77633 24.1772 4.58783 24.2133 4.40597C24.2495 4.22411 24.3388 4.05707 24.4699 3.92595C24.601 3.79484 24.7681 3.70556 24.9499 3.66938C25.1318 3.63321 25.3203 3.65177 25.4916 3.72273C25.6629 3.79369 25.8093 3.91385 25.9123 4.06802C26.0153 4.22219 26.0703 4.40345 26.0703 4.58887C26.0703 4.83751 25.9715 5.07596 25.7957 5.25178C25.6199 5.4276 25.3815 5.52637 25.1328 5.52637ZM25.1328 3.96387C25.0092 3.96387 24.8884 4.00052 24.7856 4.0692C24.6828 4.13788 24.6027 4.23549 24.5554 4.34969C24.5081 4.46389 24.4957 4.58956 24.5198 4.7108C24.5439 4.83204 24.6035 4.9434 24.6909 5.03081C24.7783 5.11822 24.8896 5.17774 25.0109 5.20186C25.1321 5.22597 25.2578 5.2136 25.372 5.16629C25.4862 5.11899 25.5838 5.03888 25.6525 4.9361C25.7212 4.83332 25.7578 4.71248 25.7578 4.58887C25.7578 4.42311 25.692 4.26414 25.5748 4.14693C25.4575 4.02972 25.2986 3.96387 25.1328 3.96387Z" fill="#40BDFF"/>
<path d="M1.08691 14.0801C0.901494 14.0801 0.720238 14.0251 0.566067 13.9221C0.411896 13.8191 0.291734 13.6727 0.220777 13.5013C0.14982 13.33 0.131255 13.1415 0.167428 12.9597C0.203602 12.7778 0.292888 12.6108 0.424 12.4797C0.555112 12.3486 0.722158 12.2593 0.904016 12.2231C1.08587 12.1869 1.27437 12.2055 1.44568 12.2764C1.61698 12.3474 1.7634 12.4676 1.86642 12.6217C1.96943 12.7759 2.02441 12.9572 2.02441 13.1426C2.02441 13.3912 1.92564 13.6297 1.74983 13.8055C1.57401 13.9813 1.33555 14.0801 1.08691 14.0801ZM1.08691 12.5176C0.9633 12.5176 0.842464 12.5542 0.739683 12.6229C0.636902 12.6916 0.556795 12.7892 0.50949 12.9034C0.462185 13.0176 0.449807 13.1433 0.473923 13.2645C0.498038 13.3857 0.557564 13.4971 0.644971 13.5845C0.732379 13.6719 0.843743 13.7315 0.964982 13.7556C1.08622 13.7797 1.21189 13.7673 1.32609 13.72C1.44029 13.6727 1.53791 13.5926 1.60658 13.4898C1.67526 13.387 1.71191 13.2662 1.71191 13.1426C1.71191 12.9768 1.64607 12.8178 1.52886 12.7006C1.41165 12.5834 1.25267 12.5176 1.08691 12.5176Z" fill="#FFDD00"/>
<path d="M2.67188 24.2256H2.26719L2.55313 23.9396C2.57872 23.9098 2.5921 23.8713 2.59058 23.832C2.58906 23.7927 2.57276 23.7554 2.54493 23.7275C2.5171 23.6997 2.4798 23.6834 2.44048 23.6819C2.40115 23.6804 2.3627 23.6937 2.33281 23.7193L2.04688 24.0053V23.6006C2.04688 23.5591 2.03041 23.5194 2.00111 23.4901C1.97181 23.4608 1.93207 23.4443 1.89062 23.4443C1.84918 23.4443 1.80944 23.4608 1.78014 23.4901C1.75084 23.5194 1.73438 23.5591 1.73438 23.6006V24.0053L1.44844 23.7193C1.41855 23.6937 1.3801 23.6804 1.34077 23.6819C1.30145 23.6834 1.26415 23.6997 1.23632 23.7275C1.20849 23.7554 1.19219 23.7927 1.19067 23.832C1.18915 23.8713 1.20253 23.9098 1.22813 23.9396L1.51406 24.2256H1.10938C1.06793 24.2256 1.02819 24.242 0.998889 24.2714C0.969587 24.3007 0.953125 24.3404 0.953125 24.3818C0.953125 24.4233 0.969587 24.463 0.998889 24.4923C1.02819 24.5216 1.06793 24.5381 1.10938 24.5381H1.51406L1.22813 24.824C1.20253 24.8539 1.18915 24.8924 1.19067 24.9317C1.19219 24.971 1.20849 25.0083 1.23632 25.0361C1.26415 25.064 1.30145 25.0803 1.34077 25.0818C1.3801 25.0833 1.41855 25.0699 1.44844 25.0443L1.73438 24.76V25.1646C1.73438 25.2061 1.75084 25.2458 1.78014 25.2751C1.80944 25.3044 1.84918 25.3209 1.89062 25.3209C1.93207 25.3209 1.97181 25.3044 2.00111 25.2751C2.03041 25.2458 2.04688 25.2061 2.04688 25.1646V24.76L2.33281 25.0459C2.3627 25.0715 2.40115 25.0849 2.44048 25.0834C2.4798 25.0818 2.5171 25.0655 2.54493 25.0377C2.57276 25.0099 2.58906 24.9726 2.59058 24.9333C2.5921 24.8939 2.57872 24.8555 2.55313 24.8256L2.26719 24.5396H2.67188C2.71332 24.5396 2.75306 24.5232 2.78236 24.4939C2.81166 24.4646 2.82812 24.4248 2.82812 24.3834C2.82812 24.342 2.81166 24.3022 2.78236 24.2729C2.75306 24.2436 2.71332 24.2271 2.67188 24.2271V24.2256Z" fill="#40BDFF"/>
</svg>
