<svg width="30" height="38" viewBox="0 0 30 38" fill="none" xmlns="http://www.w3.org/2000/svg">
<path d="M9.00912 8.38425V8.63425H9.25912H19.312H19.562V8.38425V6.79695C19.562 6.67047 19.6485 6.58398 19.775 6.58398H24.5369C24.6634 6.58398 24.7499 6.67047 24.7499 6.79695V34.3763C24.7499 34.5028 24.6634 34.5893 24.5369 34.5893H4.03425C3.90777 34.5893 3.82129 34.5028 3.82129 34.3763V6.79695C3.82129 6.67047 3.90777 6.58398 4.03425 6.58398H8.79616C8.92264 6.58398 9.00912 6.67047 9.00912 6.79695V8.38425Z" fill="#EFFAFE" stroke="#828282" strokeWidth="0.5"/>
<path d="M11.6404 4.53344H11.9872L11.8775 4.20438C11.8262 4.05038 11.8242 3.89225 11.8242 3.6882C11.8242 2.30511 12.9028 1.22656 14.2859 1.22656C15.669 1.22656 16.7475 2.30511 16.7475 3.6882C16.7475 3.89225 16.7455 4.05038 16.6942 4.20438L16.5845 4.53344H16.9314H19.7753C19.7911 4.53344 19.8262 4.54289 19.8623 4.58296C19.8965 4.62092 19.9221 4.67748 19.9221 4.7464V8.7808C19.9221 8.84972 19.8965 8.90628 19.8623 8.94424C19.8262 8.98431 19.7911 8.99376 19.7753 8.99376H8.79646C8.66998 8.99376 8.5835 8.90727 8.5835 8.7808V4.7464C8.5835 4.61992 8.66998 4.53344 8.79646 4.53344H11.6404Z" fill="#BEE6F5" stroke="#828282" strokeWidth="0.5"/>
<path d="M25.29 35.9297H24.665V35.3047C24.665 35.2632 24.6486 35.2235 24.6193 35.1942C24.59 35.1649 24.5502 35.1484 24.5088 35.1484C24.4673 35.1484 24.4276 35.1649 24.3983 35.1942C24.369 35.2235 24.3525 35.2632 24.3525 35.3047V35.9297H23.7275C23.6861 35.9297 23.6464 35.9461 23.6171 35.9755C23.5878 36.0048 23.5713 36.0445 23.5713 36.0859C23.5713 36.1274 23.5878 36.1671 23.6171 36.1964C23.6464 36.2257 23.6861 36.2422 23.7275 36.2422H24.3525V36.8672C24.3525 36.9086 24.369 36.9484 24.3983 36.9777C24.4276 37.007 24.4673 37.0234 24.5088 37.0234C24.5502 37.0234 24.59 37.007 24.6193 36.9777C24.6486 36.9484 24.665 36.9086 24.665 36.8672V36.2422H25.29C25.3315 36.2422 25.3712 36.2257 25.4005 36.1964C25.4298 36.1671 25.4463 36.1274 25.4463 36.0859C25.4463 36.0445 25.4298 36.0048 25.4005 35.9755C25.3712 35.9461 25.3315 35.9297 25.29 35.9297Z" fill="#40BDFF"/>
<path d="M24.9834 5.68066C24.798 5.68066 24.6167 5.62568 24.4626 5.52267C24.3084 5.41965 24.1882 5.27324 24.1173 5.10193C24.0463 4.93062 24.0277 4.74212 24.0639 4.56027C24.1001 4.37841 24.1894 4.21136 24.3205 4.08025C24.4516 3.94914 24.6186 3.85985 24.8005 3.82368C24.9824 3.7875 25.1709 3.80607 25.3422 3.87703C25.5135 3.94798 25.6599 4.06815 25.7629 4.22232C25.8659 4.37649 25.9209 4.55774 25.9209 4.74316C25.9209 4.99181 25.8221 5.23026 25.6463 5.40608C25.4705 5.58189 25.232 5.68066 24.9834 5.68066ZM24.9834 4.11816C24.8598 4.11816 24.7389 4.15482 24.6362 4.2235C24.5334 4.29217 24.4533 4.38978 24.406 4.50399C24.3587 4.61819 24.3463 4.74386 24.3704 4.8651C24.3945 4.98633 24.454 5.0977 24.5415 5.18511C24.6289 5.27251 24.7402 5.33204 24.8615 5.35616C24.9827 5.38027 25.1084 5.36789 25.2226 5.32059C25.3368 5.27328 25.4344 5.19318 25.5031 5.0904C25.5717 4.98762 25.6084 4.86678 25.6084 4.74316C25.6084 4.5774 25.5425 4.41843 25.4253 4.30122C25.3081 4.18401 25.1492 4.11816 24.9834 4.11816Z" fill="#40BDFF"/>
<path d="M0.9375 14.2344C0.75208 14.2344 0.570824 14.1794 0.416653 14.0764C0.262482 13.9734 0.14232 13.8269 0.0713629 13.6556C0.000405763 13.4843 -0.0181593 13.2958 0.0180144 13.114C0.054188 12.9321 0.143474 12.7651 0.274586 12.634C0.405698 12.5029 0.572744 12.4136 0.754601 12.3774C0.936459 12.3412 1.12496 12.3598 1.29626 12.4307C1.46757 12.5017 1.61399 12.6219 1.717 12.776C1.82002 12.9302 1.875 13.1115 1.875 13.2969C1.875 13.5455 1.77623 13.784 1.60041 13.9598C1.4246 14.1356 1.18614 14.2344 0.9375 14.2344ZM0.9375 12.6719C0.813886 12.6719 0.69305 12.7085 0.590269 12.7772C0.487488 12.8459 0.407381 12.9435 0.360076 13.0577C0.312771 13.1719 0.300393 13.2976 0.324509 13.4188C0.348624 13.54 0.408149 13.6514 0.495557 13.7388C0.582965 13.8262 0.694329 13.8858 0.815568 13.9099C0.936806 13.934 1.06247 13.9216 1.17668 13.8743C1.29088 13.827 1.38849 13.7469 1.45717 13.6441C1.52584 13.5413 1.5625 13.4205 1.5625 13.2969C1.5625 13.1311 1.49665 12.9721 1.37944 12.8549C1.26223 12.7377 1.10326 12.6719 0.9375 12.6719Z" fill="#FFDD00"/>
<path d="M2.52246 24.3799H2.11777L2.40371 24.0939C2.42931 24.0641 2.44268 24.0256 2.44117 23.9863C2.43965 23.947 2.42335 23.9097 2.39552 23.8818C2.36769 23.854 2.33039 23.8377 2.29106 23.8362C2.25174 23.8347 2.21329 23.848 2.1834 23.8736L1.89746 24.1596V23.7549C1.89746 23.7134 1.881 23.6737 1.8517 23.6444C1.82239 23.6151 1.78265 23.5986 1.74121 23.5986C1.69977 23.5986 1.66003 23.6151 1.63073 23.6444C1.60142 23.6737 1.58496 23.7134 1.58496 23.7549V24.1596L1.29902 23.8736C1.26913 23.848 1.23068 23.8347 1.19136 23.8362C1.15203 23.8377 1.11473 23.854 1.0869 23.8818C1.05908 23.9097 1.04277 23.947 1.04126 23.9863C1.03974 24.0256 1.05311 24.0641 1.07871 24.0939L1.36465 24.3799H0.959961C0.918521 24.3799 0.878778 24.3963 0.849475 24.4256C0.820173 24.4549 0.803711 24.4947 0.803711 24.5361C0.803711 24.5776 0.820173 24.6173 0.849475 24.6466C0.878778 24.6759 0.918521 24.6924 0.959961 24.6924H1.36465L1.07871 24.9783C1.05311 25.0082 1.03974 25.0467 1.04126 25.086C1.04277 25.1253 1.05908 25.1626 1.0869 25.1904C1.11473 25.2183 1.15203 25.2346 1.19136 25.2361C1.23068 25.2376 1.26913 25.2242 1.29902 25.1986L1.58496 24.9143V25.3189C1.58496 25.3604 1.60142 25.4001 1.63073 25.4294C1.66003 25.4587 1.69977 25.4752 1.74121 25.4752C1.78265 25.4752 1.82239 25.4587 1.8517 25.4294C1.881 25.4001 1.89746 25.3604 1.89746 25.3189V24.9143L2.1834 25.2002C2.21329 25.2258 2.25174 25.2392 2.29106 25.2376C2.33039 25.2361 2.36769 25.2198 2.39552 25.192C2.42335 25.1642 2.43965 25.1269 2.44117 25.0875C2.44268 25.0482 2.42931 25.0098 2.40371 24.9799L2.11777 24.6939H2.52246C2.5639 24.6939 2.60364 24.6775 2.63295 24.6482C2.66225 24.6189 2.67871 24.5791 2.67871 24.5377C2.67871 24.4963 2.66225 24.4565 2.63295 24.4272C2.60364 24.3979 2.5639 24.3814 2.52246 24.3814V24.3799Z" fill="#40BDFF"/>
<path d="M5.89508 14.0833H7.67649C7.91783 14.0833 8.10721 13.8939 8.10721 13.6526V11.8712C8.10721 11.6298 7.91783 11.4404 7.67649 11.4404H5.89508C5.65374 11.4404 5.46436 11.6298 5.46436 11.8712V13.6526C5.46436 13.8939 5.65374 14.0833 5.89508 14.0833Z" fill="white" stroke="#4F4F4F" strokeWidth="0.5"/>
<path d="M8.92871 11.6904H23.2144" stroke="#4F4F4F" strokeWidth="0.7"/>
<path d="M8.92871 12.7617H21.7859" stroke="#4F4F4F" strokeWidth="0.7"/>
<path d="M8.92871 13.833H20.3573" stroke="#4F4F4F" strokeWidth="0.7"/>
<path d="M5.89508 19.7981H7.67649C7.91783 19.7981 8.10721 19.6087 8.10721 19.3674V17.586C8.10721 17.3447 7.91783 17.1553 7.67649 17.1553H5.89508C5.65374 17.1553 5.46436 17.3447 5.46436 17.586V19.3674C5.46436 19.6087 5.65374 19.7981 5.89508 19.7981Z" fill="white" stroke="#4F4F4F" strokeWidth="0.5"/>
<path d="M8.92871 17.4053H23.2144" stroke="#4F4F4F" strokeWidth="0.7"/>
<path d="M8.92871 18.4766H21.7859" stroke="#4F4F4F" strokeWidth="0.7"/>
<path d="M8.92871 19.5479H20.3573" stroke="#4F4F4F" strokeWidth="0.7"/>
<path d="M5.89508 25.512H7.67649C7.91783 25.512 8.10721 25.3226 8.10721 25.0813V23.2999C8.10721 23.0585 7.91783 22.8691 7.67649 22.8691H5.89508C5.65374 22.8691 5.46436 23.0585 5.46436 23.2999V25.0813C5.46436 25.3226 5.65374 25.512 5.89508 25.512Z" fill="white" stroke="#4F4F4F" strokeWidth="0.5"/>
<path d="M8.92871 23.1191H23.2144" stroke="#4F4F4F" strokeWidth="0.7"/>
<path d="M8.92871 24.1904H21.7859" stroke="#4F4F4F" strokeWidth="0.7"/>
<path d="M8.92871 25.2617H20.3573" stroke="#4F4F4F" strokeWidth="0.7"/>
<path d="M5.89508 31.2268H7.67649C7.91783 31.2268 8.10721 31.0375 8.10721 30.7961V29.0147C8.10721 28.7734 7.91783 28.584 7.67649 28.584H5.89508C5.65374 28.584 5.46436 28.7734 5.46436 29.0147V30.7961C5.46436 31.0375 5.65374 31.2268 5.89508 31.2268Z" fill="white" stroke="#4F4F4F" strokeWidth="0.5"/>
<path d="M8.92871 28.834H23.2144" stroke="#4F4F4F" strokeWidth="0.7"/>
<path d="M8.92871 29.9053H21.7859" stroke="#4F4F4F" strokeWidth="0.7"/>
<path d="M8.92871 30.9766H20.3573" stroke="#4F4F4F" strokeWidth="0.7"/>
<path fillRule="evenodd" clipRule="evenodd" d="M28.2144 33.1191C28.0947 33.1191 28.0149 33.0221 27.975 32.925L26.4586 28.556C26.4187 28.4589 26.4187 28.3619 26.4586 28.2648C26.5384 28.1677 26.6183 28.1191 26.6981 28.1191H29.7308C29.8106 28.1191 29.8904 28.1677 29.9702 28.2648C30.0101 28.3619 30.0101 28.4589 29.9702 28.556L28.4539 32.925C28.4139 33.0221 28.3341 33.1191 28.2144 33.1191Z" fill="#FFE4AF"/>
<path fillRule="evenodd" clipRule="evenodd" d="M28.2143 33.1194C28.1169 33.1194 28.021 33.0458 27.9885 32.9413L27.3057 30.9766H29.1398L28.4586 32.9104C28.4262 33.0149 28.3117 33.1194 28.2143 33.1194Z" fill="#58535A"/>
<path fillRule="evenodd" clipRule="evenodd" d="M26.4287 28.8333V17.0446C26.4287 16.8422 26.5478 16.6904 26.7065 16.6904H29.7224C29.8811 16.6904 30.0001 16.8422 30.0001 17.0446V28.8333H26.4287Z" fill="#1AA1FF"/>
<path fillRule="evenodd" clipRule="evenodd" d="M26.4287 17.4051V16.2721C26.4287 16.1243 26.5478 15.9766 26.7065 15.9766H29.7224C29.8811 15.9766 30.0001 16.1243 30.0001 16.2721V17.4051H26.4287Z" fill="#DEDEDE"/>
<path fillRule="evenodd" clipRule="evenodd" d="M27.8765 28.5347V17.2822H28.5526V28.5347H27.8765Z" fill="#58535A"/>
<path fillRule="evenodd" clipRule="evenodd" d="M26.4287 16.6906V13.4397C26.4287 13.2565 26.5478 13.1191 26.7065 13.1191H29.7224C29.8811 13.1191 30.0001 13.2565 30.0001 13.4397V16.6906H26.4287Z" fill="#E93459"/>
</svg>
