<svg width="20" height="20" viewBox="0 0 20 20" fill="none" xmlns="http://www.w3.org/2000/svg">
<path d="M10.6616 10.8334V7.02826C10.6616 6.622 10.3326 6.29297 9.92634 6.29297C9.52008 6.29297 9.19105 6.622 9.19105 7.02826V10.8334C8.33535 11.1368 7.72046 11.952 7.72046 12.9106C7.72046 14.1276 8.70942 15.1165 9.92634 15.1165C11.1433 15.1165 12.1322 14.1276 12.1322 12.9106C12.1322 11.952 11.5173 11.1367 10.6616 10.8334ZM9.92634 13.6459C9.521 13.6459 9.19105 13.316 9.19105 12.9106C9.19105 12.5053 9.521 12.1753 9.92634 12.1753C10.3317 12.1753 10.6616 12.5053 10.6616 12.9106C10.6616 13.316 10.3317 13.6459 9.92634 13.6459Z" fill="white"/>
<path d="M19.8492 11.777C19.8492 11.5794 19.8455 11.3818 19.8326 11.1833C19.5266 6.2007 15.5385 2.21082 10.5559 1.90211C10.3501 1.88925 10.1442 1.88465 9.94013 1.88465C9.93553 1.88465 9.93094 1.88281 9.92634 1.88281C9.91991 1.88281 9.91439 1.88465 9.90796 1.88465C7.37478 1.88833 4.98702 2.82766 3.12867 4.57406C2.43012 5.23124 1.83822 5.98399 1.36121 6.80202C1.3511 6.81672 1.33915 6.82959 1.32996 6.84613C1.3226 6.859 1.31893 6.87279 1.31249 6.88565C0.463223 8.3737 0 10.0722 0 11.8094C0 13.4675 0.417271 15.1082 1.20588 16.5558C1.71139 17.4832 2.69668 18.0594 3.77482 18.0594H16.0772C17.1645 18.0594 18.1617 17.4593 18.6793 16.4933C19.4477 15.0613 19.8466 13.4601 19.8503 11.8279C19.8503 11.8214 19.8521 11.8159 19.8521 11.8095C19.8521 11.7985 19.8493 11.7883 19.8484 11.7773L19.8492 11.777ZM17.384 15.7982C17.123 16.2853 16.6221 16.5887 16.0779 16.5887H3.77559C3.23514 16.5887 2.74618 16.3056 2.49801 15.8506C1.94286 14.8341 1.60832 13.7026 1.50721 12.5445H2.20667C2.61293 12.5445 2.94197 12.2155 2.94197 11.8092C2.94197 11.4029 2.61293 11.0739 2.20667 11.0739H1.50446C1.58902 10.0767 1.84545 9.11894 2.25997 8.23202L2.87303 8.58588C2.98884 8.65298 3.11566 8.68422 3.23976 8.68422C3.49343 8.68422 3.74159 8.55279 3.87761 8.31658C4.08074 7.96455 3.96033 7.51512 3.60832 7.31199L2.99618 6.95813C3.32613 6.48938 3.70757 6.05004 4.13681 5.64655C4.4346 5.36622 4.75354 5.11898 5.08166 4.88735L5.43001 5.4903C5.56604 5.72651 5.81328 5.85794 6.06787 5.85794C6.19287 5.85794 6.31879 5.82669 6.4346 5.7596C6.78663 5.55647 6.90703 5.10703 6.7039 4.75501L6.35371 4.1484C7.2434 3.73204 8.19837 3.47101 9.19183 3.38644V4.08774C9.19183 4.494 9.52086 4.82303 9.92712 4.82303C10.3334 4.82303 10.6624 4.494 10.6624 4.08774V3.39106C11.6698 3.47745 12.6275 3.73571 13.5034 4.14473L13.1504 4.75503C12.9473 5.10614 13.0677 5.55649 13.4197 5.75962C13.5355 5.82672 13.6623 5.85797 13.7864 5.85797C14.0401 5.85797 14.2883 5.72653 14.4243 5.49032L14.7772 4.8791C15.5861 5.44526 16.2901 6.15022 16.8563 6.95905L16.246 7.31199C15.8939 7.51511 15.7735 7.96455 15.9767 8.31658C16.1127 8.55279 16.3599 8.68422 16.6145 8.68422C16.7395 8.68422 16.8654 8.65298 16.9813 8.58588L17.5916 8.23386C18.0006 9.10887 18.2588 10.0675 18.3443 11.0748H17.6476C17.2414 11.0748 16.9123 11.4038 16.9123 11.8101C16.9123 12.2163 17.2414 12.5454 17.6476 12.5454H18.3471C18.2478 13.6851 17.9243 14.7917 17.3839 15.799L17.384 15.7982Z" fill="white"/>
</svg>
