<svg width="42" height="42" viewBox="0 0 42 42" fill="none" xmlns="http://www.w3.org/2000/svg">
<path d="M26.5865 27.024L22.8173 23.2548V35.7875H20.9327V23.2548L17.1635 27.024L15.8442 25.7048L21.2625 20.2865C21.6394 19.9096 22.2048 19.9096 22.5817 20.2865L28 25.7048L26.5865 27.024ZM31.1567 14.5856C30.2615 10.2038 26.3981 7 21.875 7C17.3519 7 13.4885 10.2038 12.5933 14.5856C12.4519 15.1981 12.4048 15.8106 12.4048 16.4702C12.4048 17.5538 12.5933 18.6375 12.9702 19.674L14.7606 19.0144C14.4779 18.1663 14.2894 17.3183 14.2894 16.4231C14.2894 16.1404 14.2894 15.8577 14.3365 15.6221C14.7606 11.7587 17.9644 8.88462 21.875 8.88462C25.4087 8.88462 28.424 11.3346 29.225 14.6798C28.1885 14.8683 27.199 15.1981 26.3038 15.6692L27.199 17.3183C28.2827 16.7058 29.5548 16.4231 30.8269 16.4231C35.0202 16.4231 38.4125 19.8154 38.4125 24.0087C38.4125 28.2019 35.0202 31.5942 30.8269 31.5942H24.7019V33.4788H30.7798C36.0096 33.4788 40.25 29.2385 40.25 24.0087C40.25 18.9202 36.1981 14.7269 31.1567 14.5856ZM5.38462 24.0087C5.38462 20.6635 7.55192 17.8365 10.5673 16.8471C10.5673 16.7058 10.5673 16.5644 10.5673 16.4702C10.5673 15.9519 10.6144 15.3865 10.7087 14.8683C6.5625 15.8577 3.5 19.5798 3.5 24.0087C3.5 29.2385 7.74038 33.4788 12.9702 33.4788H19.0481V31.5942H12.9702C8.77692 31.5942 5.38462 28.2019 5.38462 24.0087Z" fill="#BDBDBD"/>
</svg>
