<svg width="24" height="24" viewBox="0 0 24 24" fill="none" xmlns="http://www.w3.org/2000/svg">
<path d="M7.3999 8.95V3H17.5999V8.95" stroke="white" stroke-width="2" stroke-linecap="round" stroke-linejoin="round"/>
<path d="M7.4 16.6002H5.7C5.24913 16.6002 4.81673 16.4211 4.49792 16.1023C4.17911 15.7835 4 15.3511 4 14.9002V10.6502C4 10.1993 4.17911 9.76693 4.49792 9.44811C4.81673 9.1293 5.24913 8.9502 5.7 8.9502H19.3C19.7509 8.9502 20.1833 9.1293 20.5021 9.44811C20.8209 9.76693 21 10.1993 21 10.6502V14.9002C21 15.3511 20.8209 15.7835 20.5021 16.1023C20.1833 16.4211 19.7509 16.6002 19.3 16.6002H17.6" stroke="white" stroke-width="2" stroke-linecap="round" stroke-linejoin="round"/>
<path d="M17.5999 13.2002H7.3999V20.0002H17.5999V13.2002Z" stroke="white" stroke-width="2" stroke-linecap="round" stroke-linejoin="round"/>
</svg>