<svg width="40" height="40" viewBox="0 0 40 40" fill="none" xmlns="http://www.w3.org/2000/svg">
<path d="M24.9994 25.0003C24.1207 25.0019 23.2621 24.738 22.5361 24.243C21.8101 23.748 21.2507 23.0451 20.9313 22.2266L19.6875 22.5041L21.5619 33.7503H24.9994V25.0003Z" fill="#EBBF00"/>
<path d="M33.125 32.5V33.75H21.5625L21.875 35.625H27.5V36.875C27.5 37.2065 27.3683 37.5244 27.1339 37.7589C26.8994 37.9933 26.5815 38.125 26.25 38.125H35.625C36.2881 38.125 36.9239 37.8616 37.3927 37.3927C37.8616 36.9239 38.125 36.2881 38.125 35.625V32.5H33.125Z" fill="#FFAC96"/>
<path d="M33.3937 23.1941L29.0681 22.2266C28.7487 23.0451 28.1893 23.748 27.4633 24.243C26.7373 24.738 25.8787 25.0019 25 25.0003V33.7503H33.125V32.5003H38.125V29.2566C38.1258 27.8631 37.6606 26.5093 36.8032 25.4107C35.9459 24.3121 34.7457 23.5318 33.3937 23.1941Z" fill="#FFCD00"/>
<path d="M24.9998 25.0001C25.8785 25.0017 26.7371 24.7378 27.4631 24.2428C28.1891 23.7478 28.7485 23.0449 29.0679 22.2263L28.4748 22.0938C28.1981 22.0315 27.9508 21.8768 27.7737 21.6553C27.5965 21.4338 27.4999 21.1587 27.4998 20.8751V19.4082C26.7239 19.7974 25.8678 20.0001 24.9998 20.0001C24.1317 20.0001 23.2756 19.7974 22.4998 19.4082V20.8751C22.4996 21.1587 22.403 21.4338 22.2258 21.6553C22.0486 21.8768 21.8015 22.0315 21.5248 22.0938L20.9316 22.2263C21.2511 23.0449 21.8105 23.7478 22.5365 24.2428C23.2625 24.7378 24.1211 25.0017 24.9998 25.0001Z" fill="#FFAC96"/>
<path d="M22.7006 6.25H27.2994C28.4501 6.25012 29.5717 6.61237 30.5051 7.28538C31.4385 7.95844 32.1364 8.90819 32.5 10V9.375C32.5 7.38587 31.7098 5.47822 30.3033 4.0717C28.8967 2.66518 26.9891 1.875 25 1.875C23.0109 1.875 21.1033 2.66518 19.6967 4.0717C18.2902 5.47822 17.5 7.38587 17.5 9.375V10C17.8636 8.90819 18.5615 7.95844 19.4949 7.28538C20.4283 6.61237 21.5499 6.25012 22.7006 6.25Z" fill="#FF9811"/>
<path d="M17.5 10C17.1688 10.001 16.8514 10.133 16.6172 10.3672C16.383 10.6014 16.251 10.9188 16.25 11.25V13.125C16.251 13.4562 16.383 13.7736 16.6172 14.0078C16.8514 14.242 17.1688 14.374 17.5 14.375H19.375V10H17.5Z" fill="#2488FF"/>
<path fill-rule="evenodd" clip-rule="evenodd" d="M8.7849 4.13867C12.2371 4.13867 15.0352 6.93676 15.0352 10.3889C15.0352 13.8406 12.2371 16.6387 8.7849 16.6387C5.33325 16.6387 2.53516 13.8406 2.53516 10.3889C2.53516 6.93676 5.33325 4.13867 8.7849 4.13867Z" fill="#34C759"/>
<path fill-rule="evenodd" clip-rule="evenodd" d="M12.4621 7.69638C12.7656 7.99989 12.7656 8.49197 12.4621 8.79548L8.18765 13.07C7.88414 13.3735 7.39206 13.3735 7.08855 13.07L5.1456 11.127C4.84209 10.8235 4.84209 10.3314 5.1456 10.0279C5.44911 9.72441 5.94119 9.72441 6.2447 10.0279L7.6381 11.4213L11.363 7.69638C11.6665 7.39287 12.1586 7.39287 12.4621 7.69638Z" fill="white"/>
<path d="M30.625 10V14.375C30.625 15.8668 30.0324 17.2976 28.9775 18.3525C27.9226 19.4074 26.4918 20 25 20C23.5082 20 22.0774 19.4074 21.0225 18.3525C19.9676 17.2976 19.375 15.8668 19.375 14.375V10H30.625Z" fill="#FFB8A5"/>
<path d="M30.625 10H32.5C32.1365 8.90825 31.4386 7.95863 30.5054 7.28556C29.5721 6.61256 28.4506 6.25025 27.3 6.25H22.7006C21.5499 6.25012 20.4283 6.61238 19.4949 7.28537C18.5615 7.95844 17.8636 8.90819 17.5 10H30.625Z" fill="#FF6243"/>
<path d="M27.5 36.875V35.625H4.375V36.875C4.375 37.2065 4.50669 37.5244 4.74112 37.7589C4.97554 37.9933 5.29348 38.125 5.625 38.125H26.25C26.5815 38.125 26.8994 37.9933 27.1339 37.7589C27.3683 37.5244 27.5 37.2065 27.5 36.875Z" fill="#58595B"/>
<path d="M21.875 35.625H4.37495L2.1187 22.0813C2.08875 21.9023 2.09814 21.7189 2.1462 21.5439C2.19427 21.3689 2.27986 21.2065 2.39702 21.0679C2.51418 20.9294 2.66012 20.8179 2.82468 20.7415C2.98924 20.665 3.16848 20.6252 3.34995 20.625H18.3187C18.614 20.6261 18.8994 20.7314 19.1246 20.9224C19.3499 21.1133 19.5005 21.3776 19.55 21.6687L19.6875 22.5062L21.875 35.625Z" fill="#939598"/>
<path d="M19.6866 22.5062L19.5498 21.6706C19.5014 21.3788 19.351 21.1135 19.1255 20.922C18.8999 20.7306 18.6138 20.6253 18.3179 20.625H17.7079L17.8116 21.2562L18.5429 25.6413C18.7221 26.7158 18.6651 27.8164 18.3758 28.8666C18.0865 29.9168 17.572 30.8914 16.8679 31.7226C16.1638 32.5538 15.2871 33.2217 14.2987 33.6798C13.3104 34.1378 12.2341 34.3751 11.1448 34.375H4.16602L4.37414 35.625H21.8741L19.6866 22.5062Z" fill="#808285"/>
<path d="M11.875 30C12.9106 30 13.75 29.1606 13.75 28.125C13.75 27.0894 12.9106 26.25 11.875 26.25C10.8394 26.25 10 27.0894 10 28.125C10 29.1606 10.8394 30 11.875 30Z" fill="#F1F2F2"/>
<path d="M26.875 13.125C27.0407 13.125 27.1997 13.0591 27.3169 12.9419C27.4341 12.8247 27.5 12.6658 27.5 12.5V11.875C27.5 11.7093 27.4341 11.5503 27.3169 11.4331C27.1997 11.3159 27.0407 11.25 26.875 11.25C26.7093 11.25 26.5503 11.3159 26.4331 11.4331C26.3159 11.5503 26.25 11.7093 26.25 11.875V12.5C26.25 12.6658 26.3159 12.8247 26.4331 12.9419C26.5503 13.0591 26.7093 13.125 26.875 13.125Z" fill="#58595B"/>
<path d="M23.125 13.125C23.2907 13.125 23.4497 13.0591 23.5669 12.9419C23.6841 12.8247 23.75 12.6658 23.75 12.5V11.875C23.75 11.7093 23.6841 11.5503 23.5669 11.4331C23.4497 11.3159 23.2907 11.25 23.125 11.25C22.9593 11.25 22.8003 11.3159 22.6831 11.4331C22.5659 11.5503 22.5 11.7093 22.5 11.875V12.5C22.5 12.6658 22.5659 12.8247 22.6831 12.9419C22.8003 13.0591 22.9593 13.125 23.125 13.125Z" fill="#58595B"/>
<path d="M32.5 13.75V16.25C32.5 16.5815 32.3683 16.8994 32.1339 17.1339C31.8994 17.3683 31.5815 17.5 31.25 17.5H25.625V16.25H31.25V13.75H32.5Z" fill="#939598"/>
<path d="M30.625 14.375H32.5C32.8312 14.374 33.1486 14.242 33.3828 14.0078C33.617 13.7736 33.749 13.4562 33.75 13.125V11.25C33.749 10.9188 33.617 10.6014 33.3828 10.3672C33.1486 10.133 32.8312 10.001 32.5 10H30.625V14.375Z" fill="#2488FF"/>
<path d="M25.625 15.625H24.375C24.0435 15.625 23.7256 15.7567 23.4911 15.9911C23.2567 16.2256 23.125 16.5435 23.125 16.875C23.125 17.2065 23.2567 17.5244 23.4911 17.7589C23.7256 17.9933 24.0435 18.125 24.375 18.125H25.625C25.9565 18.125 26.2744 17.9933 26.5089 17.7589C26.7433 17.5244 26.875 17.2065 26.875 16.875C26.875 16.5435 26.7433 16.2256 26.5089 15.9911C26.2744 15.7567 25.9565 15.625 25.625 15.625Z" fill="#2488FF"/>
</svg>
