<svg width="40" height="44" viewBox="0 0 40 44" fill="none" xmlns="http://www.w3.org/2000/svg">
<rect width="40" height="44" rx="8" fill="#6B54C8"/>
<path d="M26 18C27.6569 18 29 16.6569 29 15C29 13.3431 27.6569 12 26 12C24.3431 12 23 13.3431 23 15C23 16.6569 24.3431 18 26 18Z" stroke="white" stroke-width="2" stroke-linecap="round" stroke-linejoin="round"/>
<path d="M14 25C15.6569 25 17 23.6569 17 22C17 20.3431 15.6569 19 14 19C12.3431 19 11 20.3431 11 22C11 23.6569 12.3431 25 14 25Z" stroke="white" stroke-width="2" stroke-linecap="round" stroke-linejoin="round"/>
<path d="M26 32C27.6569 32 29 30.6569 29 29C29 27.3431 27.6569 26 26 26C24.3431 26 23 27.3431 23 29C23 30.6569 24.3431 32 26 32Z" stroke="white" stroke-width="2" stroke-linecap="round" stroke-linejoin="round"/>
<path d="M16.5898 23.5098L23.4198 27.4898" stroke="white" stroke-width="2" stroke-linecap="round" stroke-linejoin="round"/>
<path d="M23.4098 16.5098L16.5898 20.4898" stroke="white" stroke-width="2" stroke-linecap="round" stroke-linejoin="round"/>
</svg>
