<svg width="31" height="28" viewBox="0 0 31 28" fill="none" xmlns="http://www.w3.org/2000/svg">
<path d="M1.26013 18.672C1.06813 18.48 0.972128 18.192 1.00413 17.904C1.13213 16.368 1.48413 14.864 2.02813 13.424C2.73213 11.568 4.36413 10.224 6.28413 9.80799C6.95613 10.16 7.75613 10.352 8.55613 10.352C9.38813 10.352 10.1561 10.16 10.8281 9.80799C12.2361 10.096 13.4841 10.896 14.3161 12.048L15.0201 11.344C14.2201 10.32 13.1321 9.51999 11.8841 9.07199C12.9401 8.14399 13.5801 6.79999 13.5801 5.29599C13.6441 2.51199 11.3721 0.23999 8.58813 0.23999C5.80413 0.23999 3.53213 2.51199 3.53213 5.29599C3.53213 6.79999 4.20413 8.14399 5.22813 9.07199C3.37213 9.74399 1.83613 11.184 1.13213 13.072C0.556128 14.608 0.172128 16.208 0.012128 17.84C-0.051872 18.384 0.140128 18.96 0.524128 19.344C0.908128 19.76 1.42013 19.984 1.96413 19.984H11.6281V18.992H1.96413C1.70813 18.992 1.45213 18.896 1.26013 18.672ZM4.52413 5.29599C4.52413 3.05599 6.34813 1.23199 8.58813 1.23199C10.8281 1.23199 12.6521 3.05599 12.6521 5.29599C12.6521 7.53599 10.8281 9.35999 8.58813 9.35999C6.34813 9.35999 4.52413 7.53599 4.52413 5.29599Z" fill="black"/>
<path d="M21.5161 15.152C19.4681 15.152 17.8041 16.816 17.8041 18.864C17.8041 20.912 19.4681 22.576 21.5161 22.576C23.5641 22.576 25.2281 20.912 25.2281 18.864C25.2601 16.816 23.5961 15.152 21.5161 15.152ZM21.5161 21.616C20.0121 21.616 18.7641 20.4 18.7641 18.864C18.7641 17.328 19.9801 16.112 21.5161 16.112C23.0201 16.112 24.2361 17.328 24.2361 18.864C24.2361 20.4 23.0201 21.616 21.5161 21.616Z" fill="black"/>
<path d="M29.9641 16.816L28.2681 16.624C28.1721 16.304 28.0441 15.984 27.8841 15.664L28.9401 14.352C29.1001 14.16 29.0681 13.872 28.9081 13.68L26.7001 11.472C26.5081 11.28 26.2521 11.28 26.0281 11.44L24.7161 12.496C24.4281 12.336 24.1081 12.208 23.7561 12.112L23.5641 10.416C23.5321 10.16 23.3401 9.96799 23.0841 9.96799H19.9481C19.6921 9.96799 19.4681 10.16 19.4681 10.416L19.2761 12.112C18.9561 12.208 18.6361 12.336 18.3161 12.496L17.0041 11.44C16.8121 11.28 16.5241 11.312 16.3321 11.472L14.1241 13.68C13.9321 13.872 13.9321 14.128 14.0921 14.352L15.1481 15.664C14.9881 15.952 14.8601 16.272 14.7641 16.624L13.0681 16.816C12.8121 16.848 12.6201 17.04 12.6201 17.296V20.432C12.6201 20.688 12.8121 20.912 13.0681 20.912L14.7641 21.104C14.8601 21.424 14.9881 21.744 15.1481 22.064L14.0921 23.376C13.9321 23.568 13.9641 23.856 14.1241 24.048L16.3321 26.256C16.5241 26.448 16.7801 26.448 17.0041 26.288L18.3161 25.232C18.6041 25.392 18.9241 25.52 19.2761 25.616L19.4681 27.312C19.5001 27.568 19.6921 27.76 19.9481 27.76H23.0841C23.3401 27.76 23.5641 27.568 23.5641 27.312L23.7561 25.616C24.0761 25.52 24.3961 25.392 24.7161 25.232L26.0281 26.288C26.2201 26.448 26.5081 26.416 26.7001 26.256L28.9081 24.048C29.1001 23.856 29.1001 23.6 28.9401 23.376L27.8841 22.064C28.0441 21.776 28.1721 21.456 28.2681 21.104L29.9641 20.912C30.2201 20.88 30.4121 20.688 30.4121 20.432V17.296C30.4121 17.04 30.2201 16.816 29.9641 16.816ZM29.4201 19.984L27.8521 20.144C27.6601 20.176 27.4681 20.304 27.4361 20.496C27.3081 20.976 27.1161 21.424 26.8921 21.84C26.7961 22.032 26.7961 22.224 26.9241 22.384L27.9161 23.632L26.3161 25.232L25.0681 24.24C24.9081 24.112 24.6841 24.112 24.5241 24.208C24.1081 24.432 23.6601 24.624 23.1801 24.752C22.9881 24.816 22.8281 24.976 22.8281 25.168L22.6681 26.736H20.4281L20.2361 25.2C20.2041 25.008 20.0761 24.816 19.8841 24.784C19.4041 24.656 18.9561 24.464 18.5401 24.24C18.3481 24.144 18.1561 24.144 17.9961 24.272L16.7801 25.264L15.1801 23.664L16.1721 22.448C16.3001 22.288 16.3321 22.064 16.2041 21.904C15.9801 21.488 15.7881 21.04 15.6601 20.56C15.5961 20.368 15.4361 20.208 15.2441 20.208L13.6761 20.048V17.808L15.2441 17.648C15.4361 17.616 15.6281 17.488 15.6601 17.296C15.7881 16.816 15.9801 16.368 16.2041 15.952C16.3001 15.76 16.3001 15.568 16.1721 15.408L15.1801 14.192L16.7801 12.592L18.0281 13.584C18.1881 13.712 18.4121 13.744 18.5721 13.616C18.9881 13.392 19.4361 13.2 19.9161 13.072C20.1081 13.008 20.2681 12.848 20.2681 12.656L20.4281 11.088H22.6681L22.8281 12.656C22.8601 12.848 22.9881 13.04 23.1801 13.072C23.6601 13.2 24.1081 13.392 24.5241 13.616C24.6841 13.712 24.9081 13.712 25.0681 13.584L26.3161 12.592L27.9161 14.192L26.9241 15.408C26.7961 15.568 26.7641 15.792 26.8921 15.952C27.1161 16.368 27.3081 16.816 27.4361 17.296C27.5001 17.488 27.6601 17.648 27.8521 17.648L29.4201 17.808V19.984Z" fill="black"/>
</svg>
