<svg width="60" height="61" viewBox="0 0 60 61" fill="none" xmlns="http://www.w3.org/2000/svg">
<rect y="0.5" width="60" height="60" rx="30" fill="#FEEBEB"/>
<path d="M27.72 19.6465L16.4267 38.4998C16.1939 38.903 16.0707 39.3602 16.0693 39.8258C16.068 40.2914 16.1887 40.7493 16.4193 41.1538C16.6498 41.5583 16.9823 41.8954 17.3836 42.1316C17.7849 42.3677 18.2411 42.4947 18.7067 42.4998H41.2934C41.759 42.4947 42.2151 42.3677 42.6164 42.1316C43.0177 41.8954 43.3502 41.5583 43.5808 41.1538C43.8114 40.7493 43.932 40.2914 43.9307 39.8258C43.9294 39.3602 43.8062 38.903 43.5734 38.4998L32.28 19.6465C32.0423 19.2546 31.7077 18.9306 31.3083 18.7058C30.9089 18.4809 30.4583 18.3628 30 18.3628C29.5417 18.3628 29.0911 18.4809 28.6918 18.7058C28.2924 18.9306 27.9577 19.2546 27.72 19.6465V19.6465Z" stroke="#EC1414" stroke-width="2" stroke-linecap="round" stroke-linejoin="round"/>
<path d="M30 26.5V31.8333" stroke="#EC1414" stroke-width="2" stroke-linecap="round" stroke-linejoin="round"/>
<path d="M30 37.1665H30.0133" stroke="#EC1414" stroke-width="2" stroke-linecap="round" stroke-linejoin="round"/>
</svg>
