<svg width="300" height="225" viewBox="0 0 300 225" fill="none" xmlns="http://www.w3.org/2000/svg">
<path d="M300 197.521H0V197.672H300V197.521Z" fill="#EBEBEB"/>
<path d="M269.941 207.23H256.933V207.381H269.941V207.23Z" fill="#EBEBEB"/>
<path d="M206.8 204.102H186.335V204.252H206.8V204.102Z" fill="#EBEBEB"/>
<path d="M264.667 201.629H237.952V201.78H264.667V201.629Z" fill="#EBEBEB"/>
<path d="M103.809 204.67H97.1262V204.821H103.809V204.67Z" fill="#EBEBEB"/>
<path d="M91.7844 204.67H68.751V204.821H91.7844V204.67Z" fill="#EBEBEB"/>
<path d="M56.4012 202.123H39.7842V202.274H56.4012V202.123Z" fill="#EBEBEB"/>
<path d="M142.208 170.619H26.349C24.4608 170.619 22.9242 169.074 22.9242 167.176V3.44316C22.9242 1.54484 24.4608 0 26.349 0H142.208C144.096 0 145.633 1.54484 145.633 3.44316V167.176C145.633 169.074 144.096 170.619 142.208 170.619ZM26.349 0.151407C24.543 0.151407 23.0742 1.62808 23.0742 3.44377V167.176C23.0742 168.992 24.543 170.469 26.349 170.469H142.208C144.014 170.469 145.483 168.992 145.483 167.176V3.44316C145.483 1.62808 144.014 0.150804 142.208 0.150804L26.349 0.151407Z" fill="#EBEBEB"/>
<path d="M271.986 170.619H156.127C154.239 170.619 152.703 169.074 152.703 167.176V3.44316C152.703 1.54484 154.24 0 156.127 0H271.986C273.875 0 275.411 1.54484 275.411 3.44316V167.176C275.411 169.074 273.875 170.619 271.986 170.619ZM156.127 0.151407C154.322 0.151407 152.853 1.62808 152.853 3.44377V167.176C152.853 168.992 154.322 170.469 156.127 170.469H271.986C273.792 170.469 275.261 168.992 275.261 167.176V3.44316C275.261 1.62808 273.792 0.150804 271.986 0.150804L156.127 0.151407Z" fill="#EBEBEB"/>
<path d="M129.643 88.0233L129.913 80.0964L125.072 78.5063C124.873 75.7979 124.423 73.1232 123.782 70.5463L127.885 67.5048L125.098 60.0593L120.023 60.4701C118.813 58.0627 117.392 55.7723 115.799 53.6236L118.427 49.2123L113.023 43.4148L108.485 45.7504C106.442 44.0041 104.288 42.4231 101.982 41.0248L102.717 35.9614L95.5181 32.6769L92.2199 36.5628C89.7071 35.743 87.1037 35.1302 84.4103 34.7236L83.1839 29.7603L75.2783 29.4883L73.7171 34.3556C71.0021 34.5758 68.3627 35.0083 65.8001 35.6532L62.7533 31.5483L55.3481 34.3297L55.7573 39.4323C53.3621 40.6689 51.0845 42.0973 48.9473 43.6995L44.5805 41.0574L38.7929 46.4694L41.1155 51.0515C39.3797 53.0855 37.8059 55.2728 36.4349 57.5916L31.3997 56.8321L28.1123 64.0683L31.9979 67.3848C31.1831 69.9117 30.5513 72.5495 30.1685 75.2375L25.2101 76.4898L24.9401 84.4166L29.8013 86.0085C29.9999 88.7369 30.4511 91.3916 31.0925 93.9674L26.9903 97.0088L29.7773 104.455L34.8521 104.043C36.0617 106.45 37.4831 108.741 39.0761 110.889L36.4469 115.301L41.8523 121.099L46.3889 118.763C48.4121 120.508 50.5871 122.091 52.8929 123.489L52.1369 128.551L59.3357 131.836L62.6549 127.95C65.1677 128.77 67.7711 129.383 70.4651 129.789L71.6915 134.753L79.5971 135.025L81.1589 130.157C83.8733 129.937 86.5127 129.505 89.0753 128.86L92.1011 132.964L99.5063 130.182L99.1175 125.081C101.513 123.845 103.77 122.414 105.928 120.813L110.295 123.456L116.082 118.044L113.76 113.462C115.496 111.427 117.07 109.24 118.441 106.921L123.476 107.682L126.763 100.445L122.877 97.1282C123.692 94.602 124.323 91.9852 124.706 89.2767L129.643 88.0233ZM76.3655 113.703C59.0987 113.108 45.5777 98.55 46.1693 81.19C46.7615 63.8095 61.2419 50.2172 78.5087 50.812C95.7755 51.4068 109.297 65.9636 108.704 83.3441C108.113 100.704 93.6323 114.298 76.3655 113.703Z" fill="#EBEBEB"/>
<path d="M264.574 61.8111L266.563 59.9441L265.768 58.3697C266.377 57.6603 266.915 56.8979 267.384 56.1125L269.122 56.3767L270.248 53.8782L268.911 52.7345C269.2 51.8508 269.409 50.9441 269.542 50.0296L271.253 49.5983L271.341 46.8597L269.668 46.3168C269.593 45.3903 269.452 44.4764 269.228 43.5704L270.636 42.516L269.677 39.9505L267.931 40.0892C267.517 39.2731 267.031 38.4853 266.473 37.7264L267.377 36.2154L265.516 34.2109L263.954 35.0144C263.238 34.4021 262.49 33.861 261.709 33.3899L261.961 31.6418L259.481 30.5047L258.343 31.8493C257.459 31.5634 256.558 31.3534 255.647 31.2201L255.223 29.5052L252.499 29.4062L251.954 31.0928C251.038 31.1634 250.124 31.3106 249.227 31.5404L248.183 30.1211L245.627 31.0796L245.77 32.841C244.958 33.2572 244.164 33.7458 243.419 34.3074L241.906 33.3971L239.918 35.2641L240.717 36.8439C240.104 37.5581 239.57 38.3158 239.101 39.1012L237.363 38.8369L236.236 41.3361L237.574 42.4798C237.284 43.3635 237.076 44.2701 236.943 45.1846L235.232 45.6159L235.144 48.3551L236.816 48.8974C236.887 49.8191 237.033 50.7384 237.256 51.6445L235.844 52.6934L236.803 55.2589L238.555 55.125C238.969 55.9412 239.455 56.7284 240.013 57.4884L239.108 58.9995L240.97 61.004L242.531 60.1999C243.247 60.8115 243.995 61.3532 244.777 61.8244L244.519 63.567L247 64.7041L248.142 63.365C249.026 63.6509 249.923 63.8554 250.838 63.9935L251.262 65.7085L253.986 65.8074L254.531 64.1208C255.448 64.0502 256.361 63.903 257.258 63.6732L258.302 65.0932L260.859 64.1347L260.716 62.3733C261.527 61.9571 262.316 61.4739 263.066 60.9075L264.574 61.8111ZM250.405 50.2709C248.942 48.6959 249.026 46.2257 250.592 44.7551C252.161 43.2827 254.618 43.3671 256.081 44.9427C257.543 46.5177 257.459 48.9879 255.891 50.4603C254.324 51.931 251.867 51.8459 250.405 50.2709Z" fill="#EBEBEB"/>
<path d="M191.993 143.193L185.789 138.885C185.787 138.88 185.787 138.875 185.785 138.87C185.171 136.604 184.325 134.422 183.29 132.372L184.879 126.1L175.879 116.409L169.544 117.575C167.582 116.398 165.476 115.401 163.271 114.63C163.267 114.629 163.261 114.628 163.256 114.625L159.404 108.105L146.225 107.65L141.94 113.888C141.932 113.89 141.923 113.892 141.915 113.894C139.663 114.511 137.495 115.361 135.459 116.4L129.223 114.802L119.585 123.851L120.742 130.208C120.741 130.21 120.74 130.211 120.739 130.213C119.543 132.208 118.574 134.325 117.808 136.543L111.323 140.414L110.871 153.664L117.081 157.976C117.694 160.258 118.514 162.435 119.569 164.502C119.57 164.503 119.57 164.503 119.57 164.504L117.985 170.757L126.985 180.447L133.281 179.288C135.268 180.47 137.377 181.468 139.609 182.24C139.61 182.241 139.612 182.241 139.614 182.241L143.459 188.752L156.638 189.207L160.921 182.973C163.199 182.357 165.37 181.506 167.431 180.465C167.431 180.465 167.432 180.465 167.433 180.464L173.641 182.054L183.279 173.006L182.122 166.648C183.317 164.653 184.286 162.535 185.053 160.317L185.053 160.315L191.54 156.442L191.993 143.193ZM150.922 163.335C142.73 163.052 136.33 156.138 136.61 147.925C136.891 139.688 143.745 133.254 151.937 133.536C160.13 133.818 166.53 140.709 166.25 148.945C165.97 157.158 159.115 163.617 150.922 163.335Z" fill="#EBEBEB"/>
<path d="M206.129 105.562C206.114 105.562 206.1 105.562 206.085 105.562L195.695 105.204C195.264 105.19 194.87 104.954 194.649 104.582L191.852 99.8451C190.364 99.3028 188.898 98.6188 187.482 97.8075L182.978 98.6357C182.553 98.7165 182.118 98.5699 181.824 98.252L174.728 90.6135C174.434 90.2962 174.32 89.8498 174.426 89.4294L175.559 84.9595C174.871 83.5438 174.295 82.0315 173.844 80.4535L169.325 77.3162C168.97 77.0701 168.764 76.6581 168.779 76.225L169.134 65.7791C169.149 65.3453 169.383 64.949 169.754 64.7276L174.473 61.91C175.033 60.3694 175.712 58.903 176.495 57.5379L175.668 52.9939C175.59 52.5674 175.734 52.1295 176.049 51.8339L183.648 44.6996C183.964 44.4029 184.408 44.2894 184.826 44.3962L189.287 45.5393C190.73 44.8336 192.23 44.252 193.757 43.8075L196.875 39.2683C197.12 38.9112 197.522 38.6904 197.961 38.7193L208.351 39.0776C208.782 39.0921 209.177 39.3268 209.397 39.7002L212.2 44.4451C213.689 44.9934 215.144 45.6756 216.536 46.4791L221.069 45.6443C221.494 45.5665 221.928 45.7106 222.223 46.0279L229.319 53.6683C229.613 53.9856 229.727 54.4319 229.62 54.8524L228.483 59.3391C229.185 60.7905 229.763 62.2973 230.206 63.8307L234.721 66.965C235.076 67.2111 235.282 67.6231 235.268 68.0568L234.912 78.5033C234.897 78.937 234.663 79.3333 234.293 79.5547L229.571 82.3736C229.011 83.9136 228.334 85.3794 227.552 86.7427L228.379 91.2885C228.456 91.715 228.313 92.1529 227.997 92.4485L220.398 99.5809C220.083 99.8777 219.64 99.9923 219.221 99.8843L214.781 98.7467C213.317 99.4573 211.809 100.038 210.288 100.478L207.173 105.014C206.934 105.357 206.544 105.562 206.129 105.562ZM196.474 102.682L205.479 102.993L208.462 98.6508C208.632 98.4028 208.886 98.2231 209.175 98.1447C210.834 97.6965 212.48 97.0619 214.068 96.259C214.071 96.2578 214.074 96.2566 214.077 96.2548C214.341 96.1239 214.65 96.0835 214.952 96.1625L219.174 97.2441L225.761 91.0617L224.973 86.7342C224.917 86.429 224.975 86.1141 225.134 85.8475C226.002 84.398 226.739 82.8079 227.324 81.1219C227.42 80.8227 227.623 80.5712 227.888 80.4143L232.402 77.7191L232.71 68.6648L228.389 65.6638C228.162 65.507 227.993 65.2802 227.906 65.019C227.895 64.9864 227.886 64.952 227.877 64.9171C227.426 63.2534 226.797 61.6187 226.009 60.0581C225.87 59.7825 225.836 59.4658 225.911 59.1666L226.993 54.897L220.843 48.2743L216.53 49.0681C216.227 49.1242 215.916 49.0669 215.652 48.9089C214.152 48.0089 212.568 47.2651 210.945 46.6975C210.853 46.6655 210.76 46.6227 210.68 46.5738C210.505 46.4653 210.359 46.3163 210.255 46.1389L207.572 41.5973L198.566 41.2866L195.581 45.6322C195.404 45.891 195.138 46.0732 194.835 46.1461C193.169 46.6052 191.549 47.235 190.003 48.0234C189.729 48.1633 189.413 48.1983 189.117 48.1217L184.872 47.0335L178.286 53.2171L179.073 57.5439C179.123 57.8154 179.083 58.0959 178.961 58.3426C178.943 58.3776 178.924 58.4114 178.904 58.4451C178.033 59.9001 177.295 61.495 176.711 63.1858C176.613 63.4693 176.418 63.7094 176.162 63.8626L171.645 66.5596L171.336 75.6133L175.662 78.6173C175.909 78.788 176.087 79.042 176.166 79.3327C176.632 81.0676 177.26 82.715 178.032 84.2291C178.076 84.3159 178.111 84.4076 178.134 84.5029C178.185 84.7074 178.185 84.9215 178.133 85.126L177.054 89.3811L183.204 96.002L187.487 95.2142C187.788 95.1593 188.097 95.2155 188.36 95.3711C189.887 96.2789 191.478 97.0221 193.092 97.5819C193.384 97.6748 193.637 97.8732 193.797 98.1453L196.474 102.682ZM202.037 91.2421C201.815 91.2421 201.593 91.2378 201.37 91.23C190.902 90.8693 182.678 82.0146 183.037 71.4909C183.396 60.9678 192.218 52.7019 202.671 53.059C213.138 53.4197 221.363 62.2744 221.004 72.7987C220.83 77.8899 218.694 82.6124 214.988 86.0948C211.442 89.4282 206.864 91.2421 202.037 91.2421ZM202.014 55.5955C193.195 55.5955 185.874 62.6502 185.57 71.5784C185.259 80.6978 192.386 88.3713 201.457 88.6838C205.853 88.8316 210.044 87.2554 213.258 84.2339C216.47 81.2154 218.322 77.1232 218.472 72.7112C218.783 63.5918 211.655 55.9177 202.584 55.6052C202.394 55.5992 202.203 55.5955 202.014 55.5955Z" fill="#EBEBEB"/>
<path d="M230.063 30.3843L225.759 29.2225L224.603 24.8956L226.289 23.2012L228.066 26.9025L231.748 28.6904L230.063 30.3843Z" fill="#E0E0E0"/>
<path d="M230.33 27.487C231.115 26.6986 231.115 25.4137 230.33 24.6253C229.546 23.8369 228.274 23.843 227.49 24.6314L229.631 21.4023L232.502 22.8615L233.132 25.8951L230.33 27.487Z" fill="#E0E0E0"/>
<path d="M225.949 23.5422L229.103 20.3711L233.407 21.5329L234.563 25.8604L231.409 29.0315L227.105 27.8691L225.949 23.5422ZM231.676 26.1348C232.46 25.3464 232.46 24.0616 231.676 23.2732C230.892 22.4848 229.62 22.4908 228.836 23.2792C228.051 24.0676 228.051 25.341 228.836 26.1288C229.62 26.9172 230.892 26.9232 231.676 26.1348Z" fill="#F0F0F0"/>
<path d="M54.1325 145.831L56.4419 145.207L57.0623 142.886L56.1581 141.977L55.2041 143.963L53.2283 144.922L54.1325 145.831Z" fill="#E0E0E0"/>
<path d="M53.9891 144.276C53.5685 143.853 53.5685 143.163 53.9891 142.74C54.4097 142.317 55.0925 142.32 55.5131 142.743L54.3641 141.01L52.8233 141.793L52.4855 143.42L53.9891 144.276Z" fill="#E0E0E0"/>
<path d="M56.3405 142.159L54.6479 140.457L52.3385 141.081L51.7181 143.403L53.4107 145.105L55.7201 144.481L56.3405 142.159ZM53.2667 143.55C52.8461 143.127 52.8461 142.437 53.2667 142.014C53.6873 141.591 54.3701 141.594 54.7907 142.017C55.2113 142.44 55.2113 143.123 54.7907 143.546C54.3707 143.97 53.6879 143.973 53.2667 143.55Z" fill="#F0F0F0"/>
<path d="M45.8178 18.5234L47.7348 20.4507C48.234 20.9526 49.0506 20.9526 49.5498 20.4507C50.049 19.9488 50.049 19.1278 49.5498 18.626L47.6328 16.6987C47.1336 16.1968 46.317 16.1968 45.8178 16.6987C45.3186 17.2005 45.3186 18.0221 45.8178 18.5234Z" fill="#F0F0F0"/>
<path d="M44.4671 13.7241C45.9443 13.1908 47.5457 13.8882 48.0437 15.2822C48.5417 16.6762 47.7479 18.2386 46.2707 18.7724C44.7935 19.3056 43.1921 18.6083 42.6941 17.2143C42.1961 15.8203 42.9899 14.2579 44.4671 13.7241Z" fill="#E0E0E0"/>
<path d="M42.3783 16.8922L42.6561 17.6699L48.3603 15.6103L48.0825 14.8325L42.3783 16.8922Z" fill="#F0F0F0"/>
<path d="M150 224.764C214.249 224.764 266.333 221.706 266.333 217.934C266.333 214.162 214.249 211.104 150 211.104C85.7509 211.104 33.6666 214.162 33.6666 217.934C33.6666 221.706 85.7509 224.764 150 224.764Z" fill="#F5F5F5"/>
<path d="M52.0296 39.6273C51.429 36.9713 51.6972 34.7352 52.8348 32.9177C53.9724 31.1014 55.8552 29.8932 58.4826 29.2924C61.1766 28.6765 63.4164 28.9292 65.2026 30.0506C66.9888 31.1714 68.178 33.0413 68.7702 35.6611C69.2004 37.5631 69.2346 39.1954 68.8734 40.558C68.5116 41.9213 67.806 43.0789 66.756 44.0308C65.7054 44.9832 64.2822 45.6637 62.4864 46.0745C60.6612 46.4919 59.0844 46.545 57.756 46.2343C56.4276 45.923 55.2486 45.2197 54.219 44.1237C53.1894 43.0282 52.4592 41.5298 52.0296 39.6273ZM57.036 38.5071C57.4074 40.1503 57.978 41.2608 58.7478 41.8393C59.517 42.419 60.4242 42.5879 61.47 42.349C62.5446 42.1041 63.297 41.5624 63.7266 40.7251C64.1562 39.8879 64.1658 38.5584 63.7536 36.7385C63.4074 35.2069 62.847 34.1579 62.0724 33.5909C61.2978 33.0251 60.3846 32.8622 59.3322 33.1029C58.3236 33.3333 57.5952 33.8774 57.1464 34.7346C56.6976 35.5924 56.661 36.8495 57.036 38.5071Z" fill="#263238"/>
<path d="M71.1558 37.6369C70.749 35.8393 71.0178 34.2191 71.9616 32.7774C72.9048 31.3357 74.4036 30.3802 76.4574 29.9115C78.8052 29.3746 80.7336 29.6533 82.2432 30.7488C83.4564 31.6313 84.246 32.8787 84.6108 34.4917C85.0206 36.3056 84.759 37.927 83.8242 39.3585C82.89 40.7899 81.3666 41.7472 79.254 42.2298C77.37 42.6605 75.7374 42.5284 74.3568 41.8317C72.6594 40.9673 71.5926 39.569 71.1558 37.6369ZM75.6582 36.597C75.8958 37.6472 76.2828 38.3758 76.8204 38.783C77.3574 39.1896 77.946 39.3193 78.5862 39.1727C79.2336 39.0243 79.7094 38.6551 80.013 38.064C80.3166 37.4734 80.3448 36.6301 80.0976 35.5359C79.8666 34.5146 79.485 33.8016 78.9522 33.3981C78.4194 32.9945 77.844 32.863 77.226 33.0048C76.5708 33.1544 76.0872 33.532 75.7752 34.1364C75.4626 34.7402 75.4236 35.5606 75.6582 36.597Z" fill="#263238"/>
<path d="M89.1509 44.4065L85.4711 28.1335L89.6777 27.1714L90.0719 28.9141C90.4877 28.0491 90.9089 27.432 91.3361 27.0616C91.9127 26.5645 92.5985 26.2243 93.3935 26.0434C94.9613 25.6845 96.3101 26.0108 97.4405 27.0206C98.5709 28.031 99.3371 29.4238 99.7385 31.2003C100.182 33.1613 100.053 34.7647 99.3515 36.0109C98.6501 37.2566 97.5857 38.0432 96.1577 38.3695C95.4659 38.5275 94.8083 38.5535 94.1837 38.4467C93.5597 38.3399 92.9705 38.1059 92.4161 37.7422L93.6887 43.3696L89.1509 44.4065ZM91.3163 33.0316C91.5269 33.9642 91.8785 34.6115 92.3705 34.974C92.8625 35.3365 93.4067 35.4487 94.0031 35.313C94.5257 35.1936 94.9151 34.8769 95.1701 34.3635C95.4251 33.8496 95.4359 33.0751 95.2019 32.0387C94.9859 31.0839 94.6433 30.4251 94.1741 30.062C93.7049 29.6977 93.2051 29.577 92.6753 29.6977C92.1017 29.8292 91.6739 30.1645 91.3931 30.7026C91.1123 31.2419 91.0865 32.0176 91.3163 33.0316Z" fill="#263238"/>
<path d="M101.661 33.3863L106.026 31.9446C106.33 32.435 106.675 32.7577 107.057 32.9122C107.44 33.0654 107.908 33.0792 108.46 32.9532C109.063 32.815 109.502 32.5792 109.775 32.2444C109.989 31.9935 110.063 31.7244 109.998 31.4355C109.925 31.1103 109.699 30.8974 109.32 30.7979C109.049 30.7279 108.37 30.7201 107.283 30.7738C105.661 30.8576 104.52 30.8516 103.859 30.7581C103.199 30.6634 102.599 30.3871 102.058 29.9274C101.516 29.4684 101.165 28.8833 101.005 28.1739C100.83 27.3975 100.903 26.6779 101.225 26.0132C101.547 25.3484 102.07 24.7874 102.795 24.3302C103.52 23.8729 104.545 23.4929 105.869 23.1901C107.268 22.8704 108.325 22.7425 109.039 22.804C109.754 22.8668 110.385 23.0725 110.932 23.4217C111.48 23.7716 111.988 24.297 112.456 24.9998L108.289 26.3956C108.094 26.0427 107.847 25.8075 107.549 25.6892C107.142 25.5324 106.688 25.5113 106.188 25.6265C105.68 25.7423 105.331 25.9172 105.14 26.1513C104.949 26.3853 104.882 26.6321 104.941 26.8908C105.006 27.1792 105.203 27.3632 105.53 27.4434C105.858 27.5248 106.529 27.5103 107.542 27.4036C109.074 27.2329 110.239 27.2148 111.037 27.3517C111.834 27.488 112.489 27.7933 113.003 28.2668C113.516 28.7403 113.849 29.3134 114.001 29.9866C114.155 30.667 114.1 31.3752 113.837 32.1111C113.574 32.8476 113.046 33.5063 112.252 34.0884C111.459 34.6693 110.304 35.1338 108.788 35.4813C106.646 35.9711 105.05 36.0115 104.003 35.6055C102.955 35.1989 102.175 34.4594 101.661 33.3863Z" fill="#263238"/>
<path d="M116.309 18.4672L121.234 18.4395L121.256 22.2415L120.347 29.8849L117.302 29.9018L116.33 22.2693L116.309 18.4672ZM116.55 31.0672L121.147 31.0413L121.17 35.1275L116.573 35.1534L116.55 31.0672Z" fill="#263238"/>
<path d="M77.2079 70.3531C77.1719 70.3531 77.1353 70.3464 77.0993 70.3325C74.3987 69.2811 72.7829 68.2539 71.9441 67.0197C71.3345 67.1427 70.6523 67.0613 70.0049 66.7518C69.3761 66.4514 68.7707 65.926 68.3363 65.1702C67.9313 65.4845 67.4309 65.5702 66.8813 65.3964C66.2717 65.204 65.6375 64.6876 65.1101 63.9421C64.7747 64.1858 64.4309 64.2226 64.1789 64.2014C62.3951 64.0555 59.9783 60.4856 59.8049 56.6811C59.7971 56.5153 59.9255 56.3735 60.0911 56.3669C60.2531 56.353 60.3971 56.4875 60.4043 56.6546C60.5687 60.2649 62.8697 63.4897 64.2281 63.6006C64.4483 63.6224 64.6325 63.553 64.7873 63.4324C63.9725 61.9949 63.5495 59.9452 64.1735 57.7549C64.6895 55.9422 65.1455 55.2334 65.6927 55.3649C66.7265 55.6237 66.5909 59.5706 66.0431 62.174C65.9189 62.7646 65.7401 63.188 65.5361 63.4909C66.0095 64.1936 66.5705 64.6665 67.0619 64.8222C67.5011 64.9609 67.8263 64.8433 68.0663 64.6134C67.5947 63.4456 67.4969 61.8543 68.1371 59.8245C68.9795 57.1529 69.3185 57.0805 69.5213 57.0376C69.6641 57.0069 69.8069 57.0545 69.9083 57.1704C70.4627 57.7995 69.8003 61.949 69.1019 64.0012C69.0113 64.2678 68.8985 64.5012 68.7677 64.6991C69.1403 65.4332 69.6893 65.9333 70.2635 66.2078C70.7243 66.4279 71.1971 66.5082 71.6273 66.4677C71.5733 66.3537 71.5247 66.2379 71.4809 66.1203C71.0051 64.8252 71.2379 63.3298 72.1919 61.5491C72.8249 60.368 73.3409 59.8173 73.8161 59.8167C73.9571 59.8167 74.2217 59.8691 74.4083 60.216C74.9315 61.1866 74.5529 64.3897 73.5185 65.9791C73.2749 66.3537 72.9383 66.6378 72.5477 66.8224C73.3517 67.8853 74.8781 68.8215 77.3171 69.7722C77.4713 69.8325 77.5481 70.0068 77.4887 70.1618C77.4419 70.2801 77.3279 70.3531 77.2079 70.3531ZM73.8155 60.4181C73.8137 60.4181 73.4765 60.4205 72.7193 61.8338C71.8517 63.4535 71.6303 64.7866 72.0431 65.9098C72.0935 66.0473 72.1535 66.1812 72.2231 66.3139C72.5435 66.1758 72.8177 65.9514 73.0157 65.648C73.8557 64.3565 74.2583 61.7041 73.9457 60.6672C73.8815 60.4549 73.8161 60.4181 73.8155 60.4181ZM69.5123 57.8767C69.3575 58.1693 69.0971 58.7719 68.7083 60.0055C68.1935 61.639 68.1905 62.9516 68.4773 63.9553C68.4971 63.9047 68.5157 63.854 68.5331 63.8039C69.2387 61.7301 69.5825 58.8732 69.5123 57.8767ZM65.5607 55.9766C65.4593 56.0701 65.1677 56.4501 64.7495 57.9195C64.1981 59.8577 64.5377 61.6257 65.1857 62.8937C65.3099 62.6319 65.3963 62.3303 65.4557 62.048C66.0779 59.0856 65.8967 56.4055 65.5607 55.9766Z" fill="#263238"/>
<path d="M100.019 101.971C99.1037 101.971 98.1413 101.761 97.2821 101.253C97.1393 101.168 97.0913 100.984 97.1753 100.84C97.2587 100.696 97.4429 100.65 97.5857 100.732C99.7259 101.996 102.492 101.114 103.062 100.194C103.128 100.086 103.188 99.9487 103.15 99.7888C102.303 99.8787 101.262 99.6531 100.071 98.9045C98.5445 97.9448 98.4269 97.6595 98.4365 97.4314C98.4425 97.2963 98.5187 97.1787 98.6411 97.116C99.2387 96.8113 101.944 98.0654 103.072 98.811C103.22 98.9087 103.344 99.0143 103.445 99.1259C103.944 99.004 104.33 98.7447 104.587 98.4352C104.763 98.2223 104.881 97.9906 104.939 97.7584C104.9 97.7644 104.859 97.7692 104.819 97.7729C103.86 97.87 102.897 97.4562 101.873 96.5037C101.168 95.8492 100.895 95.398 100.986 95.0403C101.015 94.9263 101.109 94.7236 101.417 94.6464C102.247 94.4389 104.295 95.3166 105.133 96.2401C105.321 96.4476 105.45 96.6919 105.518 96.9543C106.301 96.5845 107.129 95.7551 108.11 94.378C108.206 94.2422 108.393 94.2115 108.528 94.3086C108.663 94.4051 108.694 94.5939 108.598 94.729C107.465 96.3215 106.52 97.2239 105.57 97.5919C105.533 98.0166 105.359 98.4485 105.049 98.8225C104.745 99.1886 104.301 99.5035 103.74 99.6736C103.8 99.9451 103.746 100.232 103.572 100.513C103.065 101.332 101.615 101.971 100.019 101.971ZM99.4859 97.7867C99.6875 97.9363 99.9767 98.1342 100.389 98.3942C101.204 98.9063 101.929 99.1422 102.549 99.1916C101.555 98.5721 100.255 98.0238 99.4859 97.7867ZM101.58 95.2243C101.613 95.3184 101.747 95.5663 102.279 96.0615C103.171 96.8904 103.982 97.2589 104.758 97.1739C104.822 97.1672 104.886 97.1582 104.95 97.1449C104.907 96.9615 104.82 96.792 104.69 96.6473C103.845 95.7165 101.99 95.1272 101.58 95.2243Z" fill="#263238"/>
<path d="M107.965 101.144L98.6159 102.851L90.1277 56.2754L72.0893 59.5696L42.6959 112.049L45.8519 129.366L83.5541 122.481L86.1353 136.645L104.174 133.351L101.593 119.187L110.942 117.48L107.965 101.144ZM60.6563 109.784L76.2317 82.297L80.5781 106.146L60.6563 109.784Z" fill="#212529"/>
<path d="M183.258 53.1084C182.909 49.8909 182.27 47.0322 181.34 44.5319C180.41 42.0316 179.012 39.5807 177.146 37.1793C175.28 34.7779 172.739 32.6932 169.523 30.9263C166.307 29.1601 162.063 27.9302 156.79 27.2395C145.814 25.802 137.259 27.7613 131.12 33.1148C124.981 38.4696 120.943 48.7267 119.002 63.8855C118.212 70.051 118.016 75.7502 118.415 80.9837C118.813 86.2166 119.768 90.4259 121.282 93.6109C123.353 98.0861 126.283 101.66 130.072 104.331C133.859 107.003 139.049 108.771 145.642 109.634C157.4 111.174 166.113 108.905 171.783 102.826C177.452 96.747 181.213 86.4712 183.066 72.0006C183.893 65.5444 183.957 59.2474 183.258 53.1084Z" fill="#407BFF"/>
<path d="M151.06 103.442C149.617 103.392 148.081 103.261 146.495 103.053C141.003 102.334 136.753 100.936 133.864 98.8982C131.012 96.8883 128.855 94.2438 127.268 90.8115L127.239 90.7493C126.085 88.3226 125.332 84.8661 124.998 80.4777C124.635 75.7196 124.82 70.4227 125.549 64.7326C127.69 48.0108 132.113 41.034 135.447 38.1265C139.334 34.7364 144.58 33.2042 151.485 33.4419C152.9 33.4907 154.398 33.618 155.938 33.8195C160.369 34.3998 163.876 35.3854 166.36 36.7493C168.765 38.071 170.645 39.5905 171.946 41.2644C173.388 43.1199 174.469 45.0013 175.158 46.8556C175.892 48.8281 176.41 51.1741 176.698 53.8276C177.337 59.443 177.276 65.2604 176.522 71.1532C174.858 84.1459 171.644 93.275 166.97 98.2865C163.502 102.005 158.299 103.692 151.061 103.442L151.06 103.442Z" fill="#263238"/>
<path d="M162.802 53.2859L162.88 51.0009L161.485 50.5425C161.427 49.7619 161.297 48.991 161.113 48.2478L162.295 47.3714L161.492 45.2251L160.029 45.3433C159.68 44.6496 159.271 43.9891 158.812 43.3696L159.569 42.098L158.011 40.4271L156.703 41.1003C156.114 40.5972 155.493 40.1412 154.828 39.7382L155.04 38.2785L152.965 37.3314L152.015 38.4516C151.291 38.2151 150.54 38.0384 149.764 37.9214L149.41 36.4905L147.131 36.4121L146.681 37.8152C145.898 37.8785 145.138 38.0034 144.4 38.1892L143.521 37.0063L141.386 37.808L141.505 39.2786C140.814 39.6351 140.158 40.0465 139.541 40.5086L138.283 39.7473L136.615 41.3072L137.284 42.6277C136.784 43.214 136.33 43.8443 135.935 44.5127L134.483 44.2937L133.536 46.3797L134.656 47.3358C134.421 48.0645 134.239 48.8245 134.129 49.599L132.7 49.9598L132.622 52.2448L134.023 52.7038C134.08 53.4904 134.21 54.2553 134.395 54.9978L133.212 55.8743L134.015 58.0206L135.478 57.9017C135.827 58.5954 136.237 59.2559 136.696 59.8754L135.938 61.147L137.496 62.8185L138.803 62.1454C139.387 62.6484 140.014 63.1045 140.678 63.508L140.46 64.9672L142.535 65.9143L143.492 64.7941C144.216 65.0305 144.967 65.2073 145.743 65.3243L146.096 66.7551L148.375 66.8336L148.825 65.4305C149.608 65.3671 150.368 65.2423 151.107 65.0565L151.979 66.2394L154.114 65.4377L154.002 63.9671C154.693 63.6106 155.343 63.1986 155.965 62.7365L157.224 63.4984L158.892 61.9378L158.222 60.6174C158.723 60.0311 159.176 59.4007 159.571 58.7323L161.023 58.9513L161.97 56.8654L160.85 55.9093C161.085 55.1812 161.267 54.4266 161.377 53.646L162.802 53.2859ZM147.445 60.688C142.468 60.5167 138.57 56.3201 138.74 51.3164C138.911 46.3067 143.085 42.3888 148.062 42.5601C153.039 42.7314 156.937 46.9274 156.766 51.9371C156.596 56.9408 152.422 60.8593 147.445 60.688Z" fill="#407BFF"/>
<path opacity="0.3" d="M172.273 95.2571L172.438 93.7171L171.517 93.3395C171.514 92.8099 171.468 92.2857 171.381 91.7747L172.221 91.2385L171.794 89.7485L170.797 89.7564C170.596 89.2696 170.359 88.8021 170.079 88.3623L170.648 87.542L169.685 86.3367L168.767 86.7216C168.4 86.356 168.004 86.0176 167.572 85.7136L167.795 84.7328L166.445 83.9878L165.739 84.7044C165.255 84.4969 164.754 84.3455 164.253 84.2297L164.083 83.2428L162.551 83.0703L162.176 83.9963C161.649 83.9993 161.135 84.0524 160.619 84.1404L160.086 83.2887L158.604 83.7248L158.612 84.7273C158.134 84.93 157.67 85.1683 157.225 85.4494L156.409 84.8703L155.211 85.8385L155.594 86.762C155.237 87.1312 154.893 87.5287 154.59 87.963L153.621 87.7458L152.88 89.1037L153.587 89.8058C153.387 90.3005 153.23 90.7963 153.114 91.3072L152.133 91.4707L151.968 93.0107L152.888 93.3956C152.885 93.918 152.937 94.4422 153.025 94.9537L152.178 95.4893L152.612 96.9799L153.609 96.9787C153.811 97.4588 154.047 97.9257 154.328 98.3661L153.752 99.1865L154.715 100.398L155.642 100.007C156.008 100.372 156.404 100.711 156.836 101.015L156.613 101.996L157.964 102.742L158.669 102.032C159.153 102.232 159.654 102.384 160.155 102.499L160.325 103.486L161.857 103.659L162.233 102.733C162.752 102.73 163.274 102.677 163.789 102.589L164.322 103.44L165.797 103.004L165.797 102.002C166.274 101.799 166.739 101.561 167.183 101.28L167.992 101.859L169.197 100.891L168.807 99.967C169.171 99.5985 169.508 99.2003 169.817 98.7666L170.786 98.9832L171.527 97.6253L170.82 96.9232C171.02 96.4292 171.17 95.9327 171.285 95.4284L172.273 95.2571ZM164.549 94.6593C163.838 95.9617 162.206 96.4424 160.911 95.727C159.615 95.0116 159.144 93.372 159.856 92.0697C160.568 90.7674 162.191 90.2938 163.487 91.0087C164.783 91.7241 165.26 93.357 164.549 94.6593Z" fill="#407BFF"/>
<path d="M180.774 69.1884L178.985 67.9464C178.985 67.9452 178.985 67.9434 178.984 67.9422C178.807 67.2889 178.563 66.6603 178.265 66.0692L178.723 64.2613L176.129 61.4678L174.303 61.8038C173.738 61.4642 173.13 61.1771 172.495 60.9551C172.494 60.9545 172.492 60.9545 172.49 60.9539L171.38 59.0743L167.582 58.9434L166.346 60.7416C166.344 60.7422 166.341 60.7428 166.339 60.7434C165.69 60.9213 165.065 61.1662 164.478 61.4654L162.68 61.0046L159.902 63.6129L160.236 65.4454C160.235 65.446 160.235 65.4467 160.235 65.4473C159.89 66.0221 159.611 66.6326 159.39 67.272L157.521 68.3879L157.391 72.2069L159.18 73.4495C159.357 74.107 159.594 74.7344 159.897 75.3304C159.897 75.331 159.897 75.331 159.897 75.331L159.441 77.1334L162.035 79.9263L163.85 79.5927C164.422 79.9329 165.03 80.2212 165.674 80.4432C165.674 80.4438 165.675 80.4438 165.675 80.4438L166.784 82.3204L170.582 82.4513L171.816 80.6544C172.473 80.477 173.099 80.2315 173.693 79.9311C173.693 79.9311 173.694 79.9311 173.694 79.9305L175.483 80.3889L178.261 77.7812L177.927 75.9487C178.272 75.3738 178.551 74.7627 178.772 74.1239L180.642 73.0068L180.774 69.1884ZM168.935 74.9944C166.574 74.9129 164.729 72.9199 164.81 70.5529C164.891 68.1786 166.866 66.3243 169.227 66.4052C171.589 66.4866 173.433 68.473 173.353 70.8466C173.273 73.2137 171.296 75.0758 168.935 74.9944Z" fill="white"/>
<path d="M193.826 38.7102L194.138 37.952C194.139 37.952 194.14 37.9514 194.14 37.9514C194.365 37.8349 194.575 37.695 194.768 37.5382L195.464 37.5647L196.28 36.3872L196.014 35.7394C196.093 35.5041 196.151 35.2574 196.181 35.0053C196.181 35.0047 196.181 35.0041 196.181 35.0034L196.78 34.4455L196.529 33.0327L195.775 32.7185C195.774 32.7179 195.774 32.7167 195.773 32.716C195.658 32.4904 195.519 32.2793 195.363 32.0857L195.389 31.386L194.218 30.5656L193.575 30.8328H193.574C193.337 30.7508 193.093 30.6959 192.842 30.6645L192.287 30.0625L190.882 30.3152L190.568 31.0741C190.342 31.1911 190.132 31.328 189.938 31.4873L189.244 31.4608L188.428 32.6382L188.693 33.2819C188.614 33.5201 188.556 33.7669 188.526 34.022L187.928 34.5794L188.179 35.9921L188.933 36.3064C189.049 36.535 189.188 36.7467 189.345 36.9422L189.319 37.6389L190.49 38.4593L191.133 38.1915C191.37 38.2735 191.615 38.3284 191.866 38.3597L192.421 38.9624L193.826 38.7102ZM190.772 34.7972C190.616 33.9189 191.199 33.081 192.07 32.9242C192.943 32.7673 193.776 33.35 193.933 34.2283C194.089 35.1066 193.508 35.9439 192.635 36.1013C191.765 36.2581 190.929 35.6754 190.772 34.7972Z" fill="#407BFF"/>
<path d="M177.364 34.7078L176.906 34.3187C177.702 33.3705 178.832 32.1689 180.51 31.2852L180.789 31.8202C179 32.7618 177.854 34.1257 177.364 34.7078Z" fill="#407BFF"/>
<path d="M182.154 31.2788L181.917 30.7238C184.187 29.7466 186.558 29.3654 188.961 29.5898L188.905 30.1906C186.601 29.9698 184.331 30.3402 182.154 31.2788Z" fill="#407BFF"/>
<path d="M181.022 35.4514L180.526 35.1118C181.759 33.2919 184.194 31.7072 186.449 31.2578L186.565 31.849C184.452 32.2712 182.173 33.7521 181.022 35.4514Z" fill="#407BFF"/>
<path d="M141.206 93.5035C141.125 93.5035 141.047 93.4709 140.99 93.4118L139.732 92.1082C139.091 92.0473 138.458 91.9291 137.844 91.7547L135.884 92.624C135.791 92.6668 135.683 92.656 135.597 92.5999L132.312 90.4102C132.227 90.3529 132.176 90.257 132.177 90.1538L132.21 88.0045C131.811 87.5051 131.455 86.9628 131.15 86.3897L129.467 85.7334C129.372 85.696 129.302 85.6134 129.281 85.5127L128.498 81.6291C128.478 81.5284 128.51 81.4241 128.583 81.3523L129.88 80.0879C129.94 79.4467 130.058 78.8091 130.23 78.1884L129.367 76.2195C129.326 76.1254 129.335 76.0168 129.391 75.9305L131.568 72.6273C131.625 72.5417 131.705 72.4886 131.823 72.4922L133.96 72.5254C134.462 72.1224 135.002 71.7647 135.567 71.4607L136.22 69.7675C136.257 69.6716 136.34 69.6016 136.44 69.5805L140.303 68.7927C140.403 68.7734 140.507 68.8047 140.578 68.8783L141.834 70.1807C142.473 70.241 143.108 70.3598 143.726 70.5336L145.684 69.6655C145.777 69.6245 145.885 69.6336 145.971 69.6903L149.256 71.8793C149.341 71.9366 149.391 72.0326 149.39 72.1357L149.358 74.2862C149.757 74.7862 150.113 75.3285 150.416 75.8998L152.1 76.5567C152.196 76.5941 152.265 76.6767 152.286 76.7775L153.069 80.661C153.09 80.7617 153.057 80.8661 152.984 80.9379L151.687 82.2028C151.628 82.8368 151.51 83.4732 151.336 84.0987L152.201 86.0706C152.242 86.1647 152.232 86.2739 152.177 86.3596L150 89.6634C149.943 89.7491 149.853 89.7919 149.745 89.7985L147.608 89.7659C147.11 90.1653 146.57 90.5218 146.003 90.827L145.348 92.5238C145.311 92.6198 145.228 92.6897 145.128 92.7108L141.265 93.4986C141.245 93.5017 141.225 93.5035 141.206 93.5035ZM137.823 91.1328C137.852 91.1328 137.88 91.1371 137.908 91.1455C138.551 91.3349 139.218 91.4604 139.895 91.5171C139.967 91.5231 140.034 91.5551 140.085 91.6076L141.306 92.8737L144.848 92.1517L145.484 90.5037C145.51 90.4355 145.56 90.3788 145.625 90.345C146.226 90.0295 146.795 89.6543 147.314 89.2285C147.368 89.1838 147.43 89.1531 147.507 89.1609L149.59 89.1929L151.586 86.1647L150.744 84.2441C150.716 84.1795 150.711 84.106 150.731 84.0378C150.92 83.3797 151.044 82.7077 151.1 82.0405C151.106 81.9675 151.138 81.9 151.19 81.8487L152.45 80.6206L151.732 77.061L150.096 76.4228C150.026 76.3956 149.969 76.3438 149.936 76.2768C149.624 75.6736 149.25 75.1047 148.825 74.5842C148.78 74.5287 148.755 74.4593 148.757 74.3881L148.788 72.2926L145.776 70.2856L143.871 71.1302C143.806 71.1585 143.734 71.1633 143.666 71.144C143.016 70.954 142.345 70.8285 141.672 70.7724C141.6 70.7664 141.533 70.7338 141.482 70.6826L140.262 69.4176L136.721 70.1397L136.087 71.7846C136.061 71.8528 136.01 71.9095 135.945 71.9433C135.348 72.2564 134.779 72.6328 134.256 73.0616C134.201 73.1063 134.128 73.1383 134.061 73.1304L131.979 73.0978L129.983 76.126L130.824 78.0436C130.86 78.1263 130.857 78.2204 130.818 78.3006C130.649 78.9032 130.524 79.5758 130.468 80.2508C130.462 80.3232 130.43 80.3907 130.378 80.442L129.119 81.6696L129.837 85.2291L131.472 85.8667C131.546 85.8951 131.604 85.9512 131.636 86.0218C131.947 86.6202 132.32 87.1884 132.743 87.7053C132.788 87.7608 132.813 87.8314 132.812 87.9026L132.78 89.997L135.792 92.0045L137.702 91.1576C137.741 91.1419 137.782 91.1328 137.823 91.1328ZM140.774 89.1814C139.257 89.1814 137.725 88.7495 136.368 87.8459C134.589 86.66 133.374 84.8479 132.949 82.7445C132.524 80.6405 132.939 78.496 134.119 76.7063H134.12C136.559 73.0116 141.531 71.997 145.203 74.4442C148.877 76.8951 149.885 81.894 147.45 85.5881C145.913 87.9183 143.367 89.1814 140.774 89.1814ZM134.619 77.0399C133.529 78.6945 133.144 80.6779 133.538 82.6244C133.931 84.5704 135.054 86.2462 136.7 87.3428C140.1 89.6073 144.698 88.6705 146.949 85.2545C149.201 81.8379 148.269 77.2136 144.872 74.9473C141.474 72.6834 136.875 73.622 134.619 77.0399Z" fill="white"/>
<path d="M255.496 106.588L246.079 105.31L252.307 58.3749L234.138 55.9102L190.066 96.7033L187.751 114.154L225.726 119.306L223.832 133.58L242.001 136.045L243.895 121.771L253.312 123.049L255.496 106.588ZM207.845 100.122L231.1 78.8119L227.911 102.845L207.845 100.122Z" fill="#212529"/>
<path d="M236.48 135.597C236.462 135.597 236.444 135.596 236.426 135.592C236.264 135.562 236.155 135.406 236.185 135.241L250.181 58.0719C250.21 57.909 250.368 57.8064 250.529 57.8294C250.693 57.8595 250.801 58.017 250.771 58.1804L236.775 135.35C236.749 135.495 236.623 135.597 236.48 135.597Z" fill="#263238"/>
<path d="M248.899 59.3686C248.889 59.6413 248.662 59.8548 248.39 59.8458C248.119 59.8361 247.907 59.6075 247.916 59.3348C247.925 59.0622 248.153 58.8487 248.424 58.8577C248.696 58.8667 248.908 59.0954 248.899 59.3686Z" fill="#263238"/>
<path d="M246.899 69.8042C246.89 70.0768 246.662 70.2904 246.391 70.2813C246.12 70.2723 245.908 70.043 245.917 69.7704C245.926 69.4977 246.154 69.2842 246.425 69.2932C246.696 69.3023 246.908 69.5309 246.899 69.8042Z" fill="#263238"/>
<path d="M244.9 80.2417C244.89 80.5143 244.663 80.7279 244.391 80.7188C244.12 80.7098 243.908 80.4805 243.917 80.2079C243.926 79.9352 244.154 79.7217 244.425 79.7307C244.697 79.7404 244.909 79.969 244.9 80.2417Z" fill="#263238"/>
<path d="M240.968 91.105C240.958 91.3776 240.731 91.5911 240.46 91.5821C240.188 91.5724 239.976 91.3438 239.985 91.0712C239.994 90.7985 240.222 90.585 240.493 90.594C240.764 90.6031 240.977 90.8317 240.968 91.105Z" fill="#263238"/>
<path d="M240.901 101.113C240.891 101.385 240.664 101.599 240.392 101.59C240.121 101.58 239.909 101.352 239.918 101.079C239.927 100.806 240.155 100.593 240.426 100.602C240.698 100.611 240.91 100.84 240.901 101.113Z" fill="#263238"/>
<path d="M238.901 111.55C238.892 111.823 238.664 112.036 238.393 112.027C238.122 112.018 237.91 111.789 237.919 111.516C237.928 111.244 238.156 111.03 238.427 111.039C238.698 111.048 238.91 111.277 238.901 111.55Z" fill="#263238"/>
<path d="M236.902 121.986C236.892 122.258 236.665 122.472 236.393 122.463C236.122 122.453 235.91 122.225 235.919 121.952C235.928 121.679 236.156 121.466 236.427 121.475C236.699 121.484 236.911 121.713 236.902 121.986Z" fill="#263238"/>
<path d="M234.902 132.421C234.893 132.694 234.665 132.908 234.394 132.899C234.123 132.889 233.911 132.66 233.92 132.388C233.929 132.115 234.157 131.901 234.428 131.91C234.699 131.919 234.911 132.149 234.902 132.421Z" fill="#263238"/>
<path d="M240.476 91.3896C240.338 91.3896 240.214 91.2931 240.184 91.1508C240.149 90.9879 240.252 90.8281 240.414 90.7925L241.904 90.4709C242.069 90.4384 242.226 90.5391 242.261 90.7032C242.296 90.8661 242.192 91.0259 242.03 91.0615L240.54 91.383C240.518 91.3872 240.497 91.3896 240.476 91.3896Z" fill="#263238"/>
<path d="M245.451 85.8301C245.451 85.8301 244.108 89.3462 243.656 91.4768C243.204 93.6074 243.177 98.3679 243.177 98.3679" fill="#263238"/>
<path d="M243.177 98.6703H243.175C243.009 98.6691 242.876 98.5334 242.877 98.3669C242.878 98.1715 242.909 93.5508 243.363 91.4142C243.815 89.2855 245.115 85.8677 245.171 85.7223C245.23 85.5673 245.403 85.49 245.558 85.5492C245.713 85.6089 245.79 85.7838 245.731 85.9388C245.718 85.9744 244.392 89.458 243.95 91.5403C243.509 93.6166 243.478 98.3235 243.477 98.3705C243.476 98.537 243.342 98.6703 243.177 98.6703Z" fill="#263238"/>
<path d="M133.471 150.738C134.305 137.224 132.772 112.659 158.038 115.911C185.119 119.396 177.371 151.233 177.371 151.233L133.471 150.738Z" fill="#263238"/>
<path d="M150.908 142.615C156.997 142.615 161.933 137.653 161.933 131.531C161.933 125.41 156.997 120.447 150.908 120.447C144.819 120.447 139.883 125.41 139.883 131.531C139.883 137.653 144.819 142.615 150.908 142.615Z" fill="white"/>
<path d="M152.356 120.465C147.134 119.568 141.55 123.438 141 127.359L161.704 129.273C160.975 124.804 156.5 121.176 152.356 120.465Z" fill="#263238"/>
<path d="M159.346 131.255C159.197 134.153 157.627 136.427 155.837 136.335C154.047 136.242 152.716 133.818 152.864 130.92C153.012 128.022 154.583 125.748 156.373 125.841C158.162 125.933 159.494 128.357 159.346 131.255Z" fill="#263238"/>
<path d="M150.908 143.218C144.498 143.218 139.283 137.976 139.283 131.531C139.283 125.086 144.498 119.844 150.908 119.844C157.319 119.844 162.533 125.086 162.533 131.531C162.533 137.976 157.318 143.218 150.908 143.218ZM150.908 121.05C145.16 121.05 140.483 125.752 140.483 131.531C140.483 137.311 145.159 142.012 150.908 142.012C156.657 142.012 161.333 137.311 161.333 131.531C161.333 125.752 156.656 121.05 150.908 121.05Z" fill="#407BFF"/>
<path opacity="0.3" d="M174.291 150.398C174.268 150.398 174.244 150.395 174.22 150.389C174.059 150.35 173.96 150.187 173.999 150.025C174.019 149.943 175.93 141.764 173.945 133.495C173.906 133.333 174.005 133.17 174.166 133.131C174.325 133.094 174.489 133.191 174.528 133.353C176.549 141.768 174.602 150.083 174.582 150.166C174.549 150.305 174.427 150.398 174.291 150.398Z" fill="white"/>
<path opacity="0.3" d="M172.619 128.973C172.505 128.973 172.396 128.908 172.346 128.797C171.574 127.105 170.617 125.551 169.5 124.178C169.395 124.049 169.415 123.86 169.543 123.754C169.671 123.648 169.86 123.667 169.965 123.797C171.114 125.209 172.098 126.807 172.891 128.546C172.96 128.698 172.894 128.877 172.743 128.946C172.703 128.964 172.661 128.973 172.619 128.973Z" fill="white"/>
<path d="M77.2409 214.123C77.1665 214.123 77.0921 214.122 77.0177 214.12C75.3617 214.074 74.0561 212.687 74.1011 211.022C74.1461 209.357 75.5105 208.069 77.1821 208.09C77.2007 208.091 77.2199 208.091 77.2397 208.091C78.9731 208.091 83.1431 205.973 91.8665 192.148C92.3351 191.406 93.1031 190.905 93.9683 190.778C94.8353 190.655 95.7113 190.913 96.3713 191.49C107.136 200.926 118.544 206.8 118.658 206.858C120.134 207.612 120.724 209.428 119.974 210.913C119.224 212.398 117.419 212.992 115.943 212.237C115.49 212.006 105.518 206.881 95.0639 198.275C87.7523 209.325 82.3265 214.123 77.2409 214.123Z" fill="#263238"/>
<path d="M95.8018 190.948C95.7166 190.948 95.6314 190.942 95.545 190.93C94.561 190.789 93.877 189.872 94.018 188.882C94.4446 185.88 93.916 174.631 90.133 165.884C89.788 165.087 90.0556 164.156 90.7702 163.667C98.989 158.036 116.496 157.362 117.237 157.336C118.226 157.315 119.064 158.083 119.099 159.082C119.133 160.08 118.356 160.919 117.363 160.953C117.201 160.959 101.895 161.549 94.03 165.901C97.3804 174.61 98.14 185.467 97.5814 189.394C97.453 190.297 96.6832 190.948 95.8018 190.948Z" fill="#263238"/>
<path d="M98.8259 188.605C97.6289 185.767 92.2331 186.089 89.0651 188.522C87.3719 189.822 85.0805 193.735 84.8393 195.152C84.5987 196.57 85.5755 197.855 87.2531 197.709C89.3219 197.529 92.1617 194.506 92.1617 194.506C90.2723 196.369 92.7101 197.683 96.3479 194.989C98.3663 193.495 100.166 191.784 98.8259 188.605Z" fill="#407BFF"/>
<path d="M202.024 151.534C201.997 151.534 201.968 151.53 201.941 151.522C201.782 151.476 201.689 151.308 201.736 151.149C202.535 148.35 203.408 146.64 204.556 145.689C204.38 145.089 204.4 144.399 204.647 143.724C204.889 143.067 205.355 142.414 206.065 141.911C205.717 141.533 205.588 141.039 205.711 140.474C205.847 139.846 206.301 139.165 206.992 138.57C206.72 138.256 206.654 137.914 206.652 137.661C206.637 135.862 209.956 133.121 213.709 132.606C213.874 132.576 214.025 132.699 214.047 132.864C214.069 133.029 213.955 133.181 213.79 133.204C210.227 133.693 207.24 136.286 207.252 137.656C207.254 137.878 207.335 138.056 207.469 138.201C208.82 137.255 210.814 136.647 213.038 137.077C214.88 137.431 215.629 137.822 215.542 138.384C215.379 139.441 211.457 139.66 208.828 139.345C208.232 139.274 207.796 139.133 207.478 138.956C206.825 139.493 206.406 140.096 206.297 140.603C206.199 141.054 206.344 141.369 206.594 141.589C207.707 141.012 209.275 140.771 211.343 141.23C214.066 141.834 214.167 142.168 214.228 142.366C214.271 142.508 214.237 142.654 214.132 142.766C213.558 143.377 209.388 143.087 207.293 142.571C207.02 142.504 206.779 142.412 206.571 142.299C205.877 142.739 205.43 143.332 205.21 143.932C205.034 144.414 204.994 144.893 205.075 145.322C205.183 145.257 205.293 145.198 205.406 145.144C206.647 144.551 208.148 144.651 209.998 145.446C211.225 145.974 211.817 146.441 211.86 146.917C211.873 147.058 211.846 147.327 211.518 147.546C210.603 148.157 207.396 148.064 205.729 147.172C205.336 146.96 205.025 146.65 204.806 146.275C203.825 147.176 203.035 148.788 202.313 151.315C202.274 151.448 202.154 151.534 202.024 151.534ZM205.279 145.905C205.444 146.214 205.691 146.469 206.01 146.64C207.364 147.364 210.028 147.53 211.027 147.125C211.231 147.041 211.262 146.972 211.262 146.972C211.262 146.97 211.229 146.632 209.761 146.001C208.079 145.278 206.738 145.177 205.663 145.689C205.532 145.752 205.403 145.823 205.279 145.905ZM207.279 141.943C207.331 141.959 207.383 141.973 207.434 141.986C209.552 142.507 212.413 142.596 213.394 142.434C213.09 142.305 212.47 142.099 211.213 141.82C209.549 141.451 208.248 141.566 207.279 141.943ZM208.036 138.552C208.307 138.654 208.613 138.713 208.898 138.747C211.888 139.103 214.528 138.682 214.922 138.308C214.82 138.215 214.418 137.957 212.925 137.67C210.955 137.293 209.234 137.789 208.036 138.552Z" fill="#263238"/>
<path d="M123.916 213.115C124.312 212.988 124.179 212.604 123.738 212.604H115.615C100.146 210.958 89.3381 213.165 96.1487 213.685C102.959 214.206 95.6693 214.097 90.6959 215.988C85.7225 217.879 127.688 218.356 131.505 215.988C135.025 213.803 118.435 214.881 123.916 213.115Z" fill="#263238"/>
<path d="M182.081 215.522L111.4 213.166L108.467 144.266L191.933 146.142L182.081 215.522Z" fill="#407BFF"/>
<path d="M133.471 214.205C133.316 214.205 133.185 214.086 133.172 213.928L127.507 144.726C127.493 144.56 127.616 144.414 127.781 144.401C127.951 144.391 128.092 144.511 128.105 144.677L133.771 213.878C133.784 214.044 133.661 214.19 133.496 214.203C133.487 214.204 133.479 214.205 133.471 214.205Z" fill="#263238"/>
<path d="M182.081 215.522L201.079 212.615L207.062 148.547L191.933 146.143L182.081 215.522Z" fill="#407BFF"/>
<path opacity="0.2" d="M182.081 215.522L201.079 212.615L207.062 148.547L191.933 146.143L182.081 215.522Z" fill="black"/>
<path d="M117.44 199.884L115.698 158.949C115.516 154.676 118.964 151.138 123.217 151.234L176.052 152.422C180.465 152.521 183.799 156.474 183.175 160.867L177.317 202.122C176.786 205.86 173.54 208.598 169.786 208.472L124.551 206.965C120.704 206.836 117.605 203.75 117.44 199.884Z" fill="#263238"/>
<path d="M123.148 163.795L131.322 164.057L131.255 166.176L126.138 166.012L126.088 167.59L130.835 167.742L130.771 169.766L126.024 169.614L125.962 171.57L131.228 171.738L131.157 173.986L122.834 173.72L123.148 163.795Z" fill="white"/>
<path d="M132.84 174.039L133.154 164.115L138.238 164.278C139.18 164.308 139.898 164.413 140.391 164.591C140.884 164.77 141.276 165.083 141.568 165.533C141.859 165.983 141.995 166.524 141.974 167.156C141.957 167.707 141.825 168.178 141.579 168.57C141.333 168.962 141.001 169.276 140.585 169.51C140.32 169.66 139.958 169.779 139.501 169.869C139.861 170.003 140.122 170.133 140.284 170.26C140.393 170.345 140.55 170.524 140.755 170.797C140.959 171.07 141.095 171.28 141.163 171.427L142.549 174.351L139.102 174.24L137.568 171.155C137.374 170.757 137.198 170.495 137.04 170.373C136.825 170.213 136.578 170.127 136.3 170.118L136.03 170.11L135.903 174.138L132.84 174.039ZM136.091 168.235L137.377 168.276C137.516 168.28 137.786 168.244 138.189 168.166C138.392 168.132 138.56 168.034 138.694 167.871C138.827 167.708 138.897 167.518 138.904 167.301C138.914 166.981 138.821 166.732 138.624 166.554C138.427 166.376 138.051 166.278 137.494 166.26L136.154 166.217L136.091 168.235Z" fill="white"/>
<path d="M143.566 174.383L143.88 164.459L148.964 164.622C149.906 164.652 150.625 164.756 151.117 164.935C151.61 165.113 152.002 165.427 152.294 165.877C152.585 166.327 152.721 166.868 152.701 167.5C152.683 168.051 152.551 168.522 152.305 168.914C152.059 169.306 151.727 169.62 151.311 169.854C151.046 170.004 150.685 170.123 150.227 170.212C150.587 170.346 150.848 170.477 151.01 170.603C151.12 170.688 151.276 170.868 151.481 171.141C151.686 171.414 151.822 171.624 151.889 171.771L153.275 174.694L149.828 174.584L148.294 171.499C148.1 171.1 147.924 170.839 147.766 170.717C147.551 170.556 147.304 170.471 147.026 170.462L146.756 170.454L146.629 174.481L143.566 174.383ZM146.817 168.578L148.103 168.619C148.242 168.624 148.513 168.587 148.915 168.51C149.119 168.475 149.287 168.377 149.42 168.214C149.553 168.051 149.623 167.861 149.63 167.645C149.64 167.324 149.547 167.075 149.35 166.897C149.153 166.719 148.777 166.622 148.22 166.603L146.881 166.561L146.817 168.578Z" fill="white"/>
<path d="M153.789 169.749C153.841 168.128 154.329 166.881 155.256 166.007C156.182 165.134 157.446 164.723 159.049 164.774C160.692 164.826 161.944 165.31 162.804 166.225C163.665 167.14 164.07 168.397 164.02 169.995C163.983 171.155 163.759 172.1 163.347 172.83C162.935 173.56 162.356 174.119 161.609 174.509C160.862 174.899 159.941 175.076 158.846 175.041C157.733 175.005 156.817 174.797 156.099 174.417C155.381 174.037 154.807 173.455 154.378 172.668C153.949 171.882 153.753 170.909 153.789 169.749ZM156.839 169.86C156.807 170.861 156.97 171.587 157.326 172.037C157.683 172.486 158.18 172.721 158.817 172.742C159.473 172.763 159.987 172.564 160.359 172.148C160.732 171.73 160.936 170.966 160.971 169.856C161.001 168.922 160.835 168.233 160.474 167.79C160.113 167.347 159.611 167.115 158.969 167.095C158.354 167.075 157.853 167.278 157.467 167.704C157.08 168.13 156.871 168.849 156.839 169.86Z" fill="white"/>
<path d="M165.544 175.086L165.858 165.162L170.942 165.325C171.884 165.355 172.603 165.459 173.095 165.638C173.588 165.817 173.98 166.13 174.272 166.58C174.563 167.03 174.699 167.571 174.679 168.203C174.661 168.754 174.529 169.225 174.283 169.617C174.037 170.009 173.705 170.323 173.289 170.557C173.023 170.707 172.662 170.826 172.205 170.916C172.565 171.05 172.826 171.18 172.988 171.306C173.097 171.392 173.254 171.571 173.459 171.844C173.663 172.117 173.8 172.327 173.867 172.474L175.253 175.398L171.806 175.287L170.272 172.202C170.078 171.804 169.902 171.542 169.744 171.42C169.529 171.259 169.282 171.174 169.004 171.165L168.734 171.157L168.607 175.185L165.544 175.086ZM168.795 169.281L170.081 169.322C170.22 169.327 170.491 169.291 170.893 169.213C171.097 169.178 171.265 169.08 171.398 168.917C171.531 168.754 171.601 168.564 171.608 168.348C171.618 168.027 171.525 167.778 171.328 167.6C171.131 167.422 170.755 167.325 170.198 167.307L168.859 167.264L168.795 169.281Z" fill="white"/>
<path d="M170.399 191.948C170.186 191.948 169.973 191.861 169.817 191.69L164.681 186.039L159.139 191.129C158.818 191.425 158.32 191.401 158.026 191.079L152.89 185.428L147.347 190.518C147.026 190.813 146.528 190.79 146.235 190.468L141.098 184.817L135.556 189.908C135.403 190.05 135.195 190.124 134.99 190.115C134.781 190.105 134.585 190.013 134.444 189.858L129.307 184.206L123.765 189.297C123.444 189.592 122.946 189.568 122.653 189.247C122.359 188.924 122.382 188.423 122.703 188.128L128.826 182.503C129.147 182.207 129.645 182.23 129.939 182.553L135.076 188.204L140.618 183.113C140.771 182.971 140.978 182.898 141.184 182.906C141.393 182.916 141.589 183.008 141.73 183.163L146.867 188.815L152.409 183.724C152.729 183.429 153.228 183.452 153.521 183.774L158.658 189.426L164.2 184.335C164.521 184.039 165.019 184.062 165.313 184.385L170.981 190.622C171.274 190.944 171.251 191.445 170.93 191.74C170.779 191.88 170.589 191.948 170.399 191.948Z" fill="white"/>
<path d="M75.4499 216.986L71.6951 215.186L68.3453 198.798L70.1633 196.785L75.4499 216.986Z" fill="#407BFF"/>
<path d="M75.4499 216.986L80.4329 214.059L76.1609 200.558L70.1633 196.785L75.4499 216.986Z" fill="#407BFF"/>
<path opacity="0.2" d="M75.4499 216.986L80.4329 214.059L76.1609 200.558L70.1633 196.785L75.4499 216.986Z" fill="black"/>
<path d="M157.169 219.967C157.028 219.967 156.889 219.964 156.755 219.96C155.099 219.915 153.793 218.528 153.838 216.862C153.884 215.198 155.252 213.889 156.919 213.931C161.541 214.083 171.323 211.228 176.911 205.775C177.256 205.437 177.677 205.189 178.138 205.05C187.611 202.192 191.137 207.966 191.282 208.213L186.118 211.284C186.118 211.284 186.138 211.325 186.187 211.394C186.13 211.315 184.789 209.561 180.516 210.646C173.504 217.081 162.74 219.967 157.169 219.967Z" fill="#263238"/>
<path d="M156.837 223.975L145.909 223.283L145.047 203.029L159.733 203.581L156.837 223.975Z" fill="#407BFF"/>
<path d="M156.837 223.974L159.391 221.418L160.974 208.789L159.733 203.58L156.837 223.974Z" fill="#407BFF"/>
<path opacity="0.2" d="M156.837 223.974L159.391 221.418L160.974 208.789L159.733 203.58L156.837 223.974Z" fill="black"/>
<path d="M220.146 216.306C219.767 216.306 219.384 216.186 219.058 215.937C212.821 211.172 204.391 202.711 201.156 194.549C201.109 194.43 201.074 194.306 201.053 194.179C199.476 184.749 197.969 164.898 197.905 164.057C197.83 163.062 198.572 162.192 199.564 162.116C200.552 162.043 201.419 162.787 201.494 163.784C201.51 163.987 203.032 184.032 204.571 193.386C207.798 201.322 216.545 209.471 221.236 213.055C222.028 213.66 222.182 214.795 221.58 215.591C221.227 216.06 220.69 216.306 220.146 216.306Z" fill="#263238"/>
<path d="M228.467 217.219C227.075 217.219 225.497 216.585 223.778 215.334C222.973 214.748 222.793 213.617 223.376 212.807C223.959 211.998 225.084 211.816 225.889 212.402C227.375 213.484 228.187 213.6 228.467 213.6C229.462 213.6 230.267 214.41 230.267 215.41C230.267 216.409 229.461 217.219 228.467 217.219Z" fill="#263238"/>
<path d="M224.282 215.282C226.208 209.531 234.104 210.667 236.823 211.521C239.543 212.375 241.992 213.45 243.465 214.419C244.938 215.387 244.962 217.003 242.998 217.927C240.576 219.066 234.501 218.055 234.501 218.055C237.646 219.44 234.495 221.658 228.978 219.479C227.182 218.77 223.602 217.39 224.282 215.282Z" fill="#407BFF"/>
<path d="M205.117 166.539C204.403 171.427 200.377 175.03 197.102 174.546C193.828 174.063 193.691 169.698 194.406 164.811C195.121 159.923 196.415 156.365 199.69 156.849C202.965 157.333 205.832 161.653 205.117 166.539Z" fill="#263238"/>
<path d="M125.925 147.029C126.196 147.029 126.416 146.808 126.416 146.535C126.416 146.262 126.196 146.041 125.925 146.041C125.654 146.041 125.434 146.262 125.434 146.535C125.434 146.808 125.654 147.029 125.925 147.029Z" fill="#263238"/>
<path d="M130.925 150.096C130.925 150.368 130.704 150.59 130.433 150.59C130.162 150.59 129.941 150.368 129.941 150.096C129.941 149.822 130.161 149.602 130.433 149.602C130.705 149.602 130.925 149.822 130.925 150.096Z" fill="#263238"/>
<path d="M131.475 208.553C131.475 208.826 131.255 209.047 130.983 209.047C130.712 209.047 130.491 208.825 130.491 208.553C130.491 208.279 130.712 208.059 130.983 208.059C131.255 208.058 131.475 208.279 131.475 208.553Z" fill="#263238"/>
<path d="M135.983 212.113C135.983 212.386 135.763 212.607 135.491 212.607C135.22 212.607 135 212.386 135 212.113C135 211.84 135.22 211.619 135.491 211.619C135.763 211.619 135.983 211.84 135.983 212.113Z" fill="#263238"/>
<path d="M49.5059 218.043C48.0779 218.043 46.1471 217.173 45.1061 215.661C45.0119 215.524 45.0455 215.336 45.1817 215.241C45.3179 215.146 45.5045 215.18 45.5993 215.318C46.7189 216.943 49.1867 217.81 50.2823 217.296C50.3975 217.242 50.4911 217.174 50.5625 217.092C49.5833 216.637 48.6881 215.747 48.4469 214.388C48.3107 213.624 48.2027 212.591 48.8303 212.448C49.6907 212.254 50.8163 214.346 51.2495 215.931C51.3299 216.225 51.3551 216.497 51.3275 216.742C51.7067 216.846 52.0799 216.873 52.3997 216.827C52.6595 216.789 53.0285 216.681 53.2247 216.377C52.4957 215.882 52.0055 215.008 51.8417 213.85C51.6089 212.201 51.7835 211.913 51.9653 211.773C52.0835 211.682 52.2335 211.664 52.3781 211.726C53.0195 212 53.7971 214.34 53.9459 215.664C53.9621 215.81 53.9621 215.95 53.9477 216.082C54.1931 216.181 54.4637 216.234 54.7571 216.24C55.2773 216.27 55.7915 216.104 56.2031 215.861C56.1179 215.807 56.0375 215.747 55.9619 215.683C55.3391 215.148 55.0883 214.293 55.1939 213.07C55.2755 212.125 55.4897 211.608 55.8677 211.446C56.0003 211.387 56.2703 211.332 56.5925 211.59C57.2405 212.111 57.8453 213.76 57.6281 214.942C57.5831 215.186 57.4781 215.421 57.3269 215.636C58.4279 215.827 59.9771 215.516 61.3133 215.185C61.4735 215.145 61.6367 215.243 61.6763 215.405C61.7159 215.567 61.6181 215.73 61.4573 215.77C59.8313 216.174 58.0811 216.503 56.8445 216.142C56.2949 216.582 55.5209 216.848 54.7457 216.843C54.3923 216.836 54.0629 216.772 53.7623 216.657C53.5259 217.062 53.0861 217.336 52.4879 217.424C52.0895 217.483 51.6203 217.445 51.1451 217.309C51.0101 217.535 50.8061 217.716 50.5373 217.843C50.2493 217.977 49.8965 218.042 49.5059 218.043ZM48.9875 213.05C48.9527 213.142 48.8897 213.447 49.0385 214.283C49.2359 215.393 49.9505 216.13 50.7419 216.52C50.7383 216.391 50.7149 216.249 50.6723 216.092C50.2007 214.368 49.3049 213.18 48.9875 213.05ZM52.3301 212.524C52.3265 212.751 52.3469 213.132 52.4363 213.766C52.5581 214.627 52.8737 215.288 53.3477 215.71C53.2073 214.498 52.6727 213.096 52.3301 212.524ZM56.1047 212H56.1035C56.1023 212 55.8785 212.114 55.7909 213.122C55.7033 214.137 55.8869 214.824 56.3513 215.223C56.4569 215.314 56.5769 215.39 56.7107 215.452C56.8805 215.263 56.9963 215.052 57.0365 214.832C57.1973 213.958 56.7833 212.678 56.3189 212.159C56.1989 212.025 56.1215 212 56.1047 212Z" fill="#263238"/>
<path d="M137.324 222.604L138.95 219.769L137.324 216.934H135.583L136.567 219.769L135.583 222.604H137.324Z" fill="#263238"/>
<path d="M135.698 221.246C134.888 221.246 134.228 220.583 134.228 219.768C134.228 218.954 134.888 218.296 135.698 218.296L132.933 217.74L132.2 219.985L133.433 221.878L135.698 221.246Z" fill="#263238"/>
<path d="M135.934 216.934H132.676L131.05 219.769L132.676 222.604H135.934L137.56 219.769L135.934 216.934ZM134.308 221.247C133.498 221.247 132.838 220.583 132.838 219.769C132.838 218.954 133.498 218.297 134.308 218.297C135.118 218.297 135.772 218.954 135.772 219.769C135.772 220.583 135.118 221.247 134.308 221.247Z" fill="#407BFF"/>
<path d="M250.733 216.744L249.526 214.638L250.733 212.533H252.026L251.296 214.639L252.026 216.744H250.733Z" fill="#407BFF"/>
<path d="M251.941 215.735C252.543 215.735 253.033 215.242 253.033 214.637C253.033 214.033 252.543 213.544 251.941 213.544L253.994 213.131L254.539 214.798L253.623 216.204L251.941 215.735Z" fill="#407BFF"/>
<path d="M251.766 212.533H254.186L255.394 214.638L254.186 216.744H251.766L250.558 214.638L251.766 212.533ZM252.974 215.736C253.576 215.736 254.066 215.243 254.066 214.638C254.066 214.034 253.576 213.545 252.974 213.545C252.372 213.545 251.887 214.034 251.887 214.638C251.886 215.243 252.372 215.736 252.974 215.736Z" fill="#263238"/>
<path d="M205.769 219.54H208.48C209.185 219.54 209.763 218.959 209.763 218.249C209.763 217.54 209.185 216.959 208.48 216.959H205.769C205.063 216.959 204.485 217.54 204.485 218.249C204.485 218.959 205.063 219.54 205.769 219.54Z" fill="#263238"/>
<path d="M201.438 217.105C202.108 215.678 203.73 215.033 205.063 215.664C206.396 216.296 206.933 217.965 206.264 219.392C205.595 220.819 203.972 221.464 202.64 220.833C201.306 220.201 200.768 218.532 201.438 217.105Z" fill="#407BFF"/>
<path d="M202.201 220.819L202.945 221.172L205.53 215.66L204.786 215.308L202.201 220.819Z" fill="#263238"/>
</svg>
