<svg width="32" height="32" viewBox="0 0 32 32" fill="none" xmlns="http://www.w3.org/2000/svg">
<path d="M24 10.6667C24 8.54502 23.1571 6.51018 21.6569 5.00989C20.1566 3.5096 18.1217 2.66675 16 2.66675C13.8783 2.66675 11.8434 3.5096 10.3431 5.00989C8.84286 6.51018 8 8.54502 8 10.6667C8 20.0001 4 22.6667 4 22.6667H28C28 22.6667 24 20.0001 24 10.6667Z" stroke="#333333" stroke-width="2" stroke-linecap="round" stroke-linejoin="round"/>
<path d="M18.3086 28C18.0742 28.4041 17.7378 28.7395 17.3329 28.9727C16.9281 29.2059 16.4692 29.3286 16.002 29.3286C15.5348 29.3286 15.0758 29.2059 14.671 28.9727C14.2662 28.7395 13.9297 28.4041 13.6953 28" stroke="#333333" stroke-width="2" stroke-linecap="round" stroke-linejoin="round"/>
</svg>
