<svg width="32" height="32" viewBox="0 0 32 32" fill="none" xmlns="http://www.w3.org/2000/svg">
<g clip-path="url(#clip0_7192_28455)">
<path d="M16 20C18.2091 20 20 18.2091 20 16C20 13.7909 18.2091 12 16 12C13.7909 12 12 13.7909 12 16C12 18.2091 13.7909 20 16 20Z" stroke="#25282B" stroke-width="2" stroke-linecap="round" stroke-linejoin="round"/>
<path d="M25.8668 20.0006C25.6893 20.4028 25.6364 20.8489 25.7148 21.2814C25.7932 21.714 25.9994 22.1131 26.3068 22.4273L26.3868 22.5073C26.6348 22.755 26.8315 23.0491 26.9657 23.3728C27.0999 23.6965 27.1689 24.0435 27.1689 24.394C27.1689 24.7444 27.0999 25.0914 26.9657 25.4152C26.8315 25.7389 26.6348 26.033 26.3868 26.2806C26.1392 26.5286 25.8451 26.7253 25.5213 26.8595C25.1976 26.9937 24.8506 27.0627 24.5002 27.0627C24.1497 27.0627 23.8027 26.9937 23.479 26.8595C23.1553 26.7253 22.8612 26.5286 22.6135 26.2806L22.5335 26.2006C22.2193 25.8933 21.8201 25.6871 21.3876 25.6086C20.9551 25.5302 20.509 25.5832 20.1068 25.7606C19.7125 25.9297 19.3761 26.2103 19.1392 26.568C18.9023 26.9258 18.7752 27.3449 18.7735 27.774V28.0006C18.7735 28.7079 18.4925 29.3862 17.9924 29.8863C17.4923 30.3864 16.8141 30.6673 16.1068 30.6673C15.3996 30.6673 14.7213 30.3864 14.2212 29.8863C13.7211 29.3862 13.4402 28.7079 13.4402 28.0006V27.8806C13.4298 27.4393 13.287 27.0113 13.0302 26.6523C12.7734 26.2932 12.4145 26.0197 12.0002 25.8673C11.598 25.6898 11.1519 25.6369 10.7194 25.7153C10.2869 25.7937 9.88773 25.9999 9.5735 26.3073L9.4935 26.3873C9.24583 26.6353 8.95173 26.8319 8.628 26.9661C8.30427 27.1003 7.95727 27.1694 7.60683 27.1694C7.25639 27.1694 6.90938 27.1003 6.58565 26.9661C6.26193 26.8319 5.96782 26.6353 5.72016 26.3873C5.47223 26.1397 5.27553 25.8456 5.14134 25.5218C5.00714 25.1981 4.93806 24.8511 4.93806 24.5006C4.93806 24.1502 5.00714 23.8032 5.14134 23.4795C5.27553 23.1557 5.47223 22.8616 5.72016 22.614L5.80016 22.534C6.10754 22.2197 6.31374 21.8206 6.39217 21.3881C6.47059 20.9556 6.41765 20.5095 6.24016 20.1073C6.07115 19.713 5.7905 19.3766 5.43278 19.1397C5.07506 18.9028 4.65588 18.7757 4.22683 18.774H4.00016C3.29292 18.774 2.61464 18.493 2.11454 17.9929C1.61445 17.4928 1.3335 16.8146 1.3335 16.1073C1.3335 15.4001 1.61445 14.7218 2.11454 14.2217C2.61464 13.7216 3.29292 13.4407 4.00016 13.4407H4.12016C4.56149 13.4303 4.9895 13.2875 5.34856 13.0307C5.70762 12.7739 5.98112 12.415 6.1335 12.0007C6.31098 11.5985 6.36393 11.1524 6.2855 10.7199C6.20708 10.2873 6.00088 9.88822 5.6935 9.57398L5.6135 9.49398C5.36556 9.24632 5.16887 8.95222 5.03467 8.62849C4.90047 8.30476 4.8314 7.95776 4.8314 7.60732C4.8314 7.25688 4.90047 6.90987 5.03467 6.58614C5.16887 6.26241 5.36556 5.96831 5.6135 5.72065C5.86116 5.47271 6.15526 5.27602 6.47899 5.14182C6.80272 5.00763 7.14972 4.93855 7.50016 4.93855C7.8506 4.93855 8.19761 5.00763 8.52134 5.14182C8.84506 5.27602 9.13917 5.47271 9.38683 5.72065L9.46683 5.80065C9.78107 6.10803 10.1802 6.31423 10.6127 6.39266C11.0452 6.47108 11.4913 6.41814 11.8935 6.24065H12.0002C12.3945 6.07163 12.7309 5.79099 12.9678 5.43327C13.2047 5.07555 13.3318 4.65637 13.3335 4.22732V4.00065C13.3335 3.29341 13.6144 2.61513 14.1145 2.11503C14.6146 1.61494 15.2929 1.33398 16.0002 1.33398C16.7074 1.33398 17.3857 1.61494 17.8858 2.11503C18.3859 2.61513 18.6668 3.29341 18.6668 4.00065V4.12065C18.6685 4.5497 18.7957 4.96888 19.0326 5.3266C19.2695 5.68433 19.6058 5.96497 20.0002 6.13398C20.4023 6.31147 20.8484 6.36442 21.2809 6.28599C21.7135 6.20756 22.1126 6.00137 22.4268 5.69398L22.5068 5.61398C22.7545 5.36605 23.0486 5.16936 23.3723 5.03516C23.696 4.90096 24.0431 4.83189 24.3935 4.83189C24.7439 4.83189 25.0909 4.90096 25.4147 5.03516C25.7384 5.16936 26.0325 5.36605 26.2802 5.61398C26.5281 5.86165 26.7248 6.15575 26.859 6.47948C26.9932 6.8032 27.0623 7.15021 27.0623 7.50065C27.0623 7.85109 26.9932 8.1981 26.859 8.52182C26.7248 8.84555 26.5281 9.13966 26.2802 9.38732L26.2002 9.46732C25.8928 9.78156 25.6866 10.1807 25.6082 10.6132C25.5297 11.0457 25.5827 11.4918 25.7602 11.894V12.0007C25.9292 12.395 26.2098 12.7313 26.5675 12.9682C26.9253 13.2051 27.3444 13.3323 27.7735 13.334H28.0002C28.7074 13.334 29.3857 13.6149 29.8858 14.115C30.3859 14.6151 30.6668 15.2934 30.6668 16.0007C30.6668 16.7079 30.3859 17.3862 29.8858 17.8863C29.3857 18.3864 28.7074 18.6673 28.0002 18.6673H27.8802C27.4511 18.669 27.0319 18.7962 26.6742 19.0331C26.3165 19.27 26.0358 19.6063 25.8668 20.0006V20.0006Z" stroke="#25282B" stroke-width="2" stroke-linecap="round" stroke-linejoin="round"/>
</g>
<defs>
<clipPath id="clip0_7192_28455">
<rect width="32" height="32" fill="white"/>
</clipPath>
</defs>
</svg>
