<svg width="28" height="28" viewBox="0 0 28 28" fill="none" xmlns="http://www.w3.org/2000/svg">
<path d="M9.55564 0.666748H4.00008C2.16675 0.666748 0.666748 2.16675 0.666748 4.00008V12.889H12.889V4.00008C12.889 2.16675 11.389 0.666748 9.55564 0.666748ZM10.6667 10.6667H2.88897V4.00008C2.88897 3.38897 3.38897 2.88897 4.00008 2.88897H9.55564C10.1667 2.88897 10.6667 3.38897 10.6667 4.00008V10.6667ZM24.0001 15.1112H18.4445C16.6112 15.1112 15.1112 16.6112 15.1112 18.4445V27.3334H27.3334V18.4445C27.3334 16.6112 25.8334 15.1112 24.0001 15.1112ZM25.1112 25.1112H17.3334V18.4445C17.3334 17.8334 17.8334 17.3334 18.4445 17.3334H24.0001C24.6112 17.3334 25.1112 17.8334 25.1112 18.4445V25.1112ZM15.7667 7.78897C14.9001 6.9223 14.9001 5.51119 15.7667 4.64453L19.4223 0.98897L20.989 2.55564L18.4445 5.10008H21.7779C24.2334 5.10008 26.2223 7.08897 26.2223 9.54453V12.8779H24.0001V9.54453C24.0001 8.3223 23.0001 7.3223 21.7779 7.3223H18.4445L20.989 9.86675L19.4223 11.4334L15.7667 7.77786V7.78897ZM12.2445 20.2001C13.1112 21.0667 13.1112 22.4779 12.2445 23.3445L8.58897 27.0001L7.0223 25.4334L9.56675 22.889H6.23342C3.77786 22.889 1.78897 20.9001 1.78897 18.4445V15.1112H4.00008V18.4445C4.00008 19.6667 5.00008 20.6667 6.2223 20.6667H9.55564L7.01119 18.1223L8.57786 16.5556L12.2334 20.2112L12.2445 20.2001Z" fill="#333333"/>
</svg>
