<svg width="32" height="32" viewBox="0 0 32 32" fill="none" xmlns="http://www.w3.org/2000/svg">
<path d="M27.4062 22.5H26V18.6522C26 18.0166 25.4834 17.5 24.8478 17.5H16.5V14.4066H19.4869C20.5468 14.4066 21.4091 13.5447 21.4091 12.4844V5.42219C21.4091 4.36227 20.5472 3.5 19.4869 3.5H12.5444C11.4845 3.5 10.6222 4.3619 10.6222 5.42219V12.4844C10.6222 13.5443 11.4841 14.4066 12.5444 14.4066H15.5312V17.5H7.18344C6.54787 17.5 6.03125 18.0166 6.03125 18.6522V22.5H4.625C4.02199 22.5 3.53125 22.9903 3.53125 23.5938V27.375C3.53125 27.9784 4.02162 28.4688 4.625 28.4688H8.40625C9.00926 28.4688 9.5 27.9784 9.5 27.375V23.5938C9.5 22.9904 9.00963 22.5 8.40625 22.5H7V18.6522C7 18.5512 7.08245 18.4688 7.18344 18.4688H15.5312V22.5H14.125C13.522 22.5 13.0312 22.9903 13.0312 23.5938V27.375C13.0312 27.9784 13.5216 28.4688 14.125 28.4688H17.9062C18.5093 28.4688 19 27.9784 19 27.375V23.5938C19 22.9904 18.5096 22.5 17.9062 22.5H16.5V18.4688H24.8478C24.9488 18.4688 25.0312 18.5512 25.0312 18.6522V22.5H23.625C23.022 22.5 22.5312 22.9903 22.5312 23.5938V27.375C22.5312 27.9784 23.0216 28.4688 23.625 28.4688H27.4062C28.0093 28.4688 28.5 27.9784 28.5 27.375V23.5938C28.5 22.9904 28.0096 22.5 27.4062 22.5ZM11.5909 12.4844V5.42219C11.5909 4.89678 12.0187 4.46875 12.5444 4.46875H19.4872C20.0126 4.46875 20.4406 4.89655 20.4406 5.42219V12.4844C20.4406 13.0098 20.0128 13.4378 19.4872 13.4378H12.5444C12.0187 13.4378 11.5909 13.0098 11.5909 12.4844Z" fill="#333333" stroke="#333333" stroke-width="0.5"/>
</svg>
